# Generated by the TriMeshRef class
# Number of vertices: 148
# Number of faces: 288
v -0.88113479382014681 -0.53279400000000021 -0.88113479382014681
v -0.88113479382014681 -0.53279400000000021 -0.58742319588009795
v -0.88113479382014681 -0.53279400000000021 -0.29371159794004897
v -0.88113479382014681 -0.53279400000000021 0
v -0.88113479382014681 -0.53279400000000021 0.29371159794004886
v -0.88113479382014681 -0.53279400000000021 0.58742319588009773
v -0.88113479382014681 -0.53279400000000021 0.88113479382014681
v -0.88113479382014681 -0.23908240205995129 -0.88113479382014681
v -0.88113479382014681 -0.23908240205995129 -0.58742319588009795
v -0.88113479382014681 -0.23908240205995129 -0.29371159794004897
v -0.88113479382014681 -0.23908240205995129 0
v -0.88113479382014681 -0.23908240205995129 0.29371159794004886
v -0.88113479382014681 -0.23908240205995129 0.58742319588009773
v -0.88113479382014681 -0.23908240205995129 0.88113479382014681
v -0.88113479382014681 0.054629195880097625 -0.88113479382014681
v -0.88113479382014681 0.054629195880097625 -0.58742319588009795
v -0.88113479382014681 0.054629195880097625 -0.29371159794004897
v -0.88113479382014681 0.054629195880097625 0
v -0.88113479382014681 0.054629195880097625 0.29371159794004886
v -0.88113479382014681 0.054629195880097625 0.58742319588009773
v -0.88113479382014681 0.054629195880097625 0.88113479382014681
v -0.58742319588009795 -0.53279400000000021 -0.88113479382014681
v -0.58742319588009795 -0.53279400000000021 -0.58742319588009795
v -0.58742319588009795 -0.53279400000000021 -0.29371159794004897
v -0.58742319588009795 -0.53279400000000021 0
v -0.58742319588009795 -0.53279400000000021 0.29371159794004886
v -0.58742319588009795 -0.53279400000000021 0.58742319588009773
v -0.58742319588009795 -0.53279400000000021 0.88113479382014681
v -0.58742319588009795 -0.23908240205995129 -0.88113479382014681
v -0.58742319588009795 -0.23908240205995129 0.88113479382014681
v -0.58742319588009795 0.054629195880097625 -0.88113479382014681
v -0.58742319588009795 0.054629195880097625 -0.58742319588009795
v -0.58742319588009795 0.054629195880097625 -0.29371159794004897
v -0.58742319588009795 0.054629195880097625 0
v -0.58742319588009795 0.054629195880097625 0.29371159794004886
v -0.58742319588009795 0.054629195880097625 0.58742319588009773
v -0.58742319588009795 0.054629195880097625 0.88113479382014681
v -0.29371159794004897 -0.53279400000000021 -0.88113479382014681
v -0.29371159794004897 -0.53279400000000021 -0.58742319588009795
v -0.29371159794004897 -0.53279400000000021 -0.29371159794004897
v -0.29371159794004897 -0.53279400000000021 0
v -0.29371159794004897 -0.53279400000000021 0.29371159794004886
v -0.29371159794004897 -0.53279400000000021 0.58742319588009773
v -0.29371159794004897 -0.53279400000000021 0.88113479382014681
v -0.29371159794004897 -0.23908240205995129 -0.88113479382014681
v -0.29371159794004897 -0.23908240205995129 0.88113479382014681
v -0.29371159794004897 0.054629195880097625 -0.88113479382014681
v -0.29371159794004897 0.054629195880097625 -0.58742319588009795
v -0.29371159794004897 0.054629195880097625 -0.29371159794004897
v -0.29371159794004897 0.054629195880097625 0
v -0.29371159794004897 0.054629195880097625 0.29371159794004886
v -0.29371159794004897 0.054629195880097625 0.58742319588009773
v -0.29371159794004897 0.054629195880097625 0.88113479382014681
v -0.29371159794004897 0.3483407938201466 -0.29371159794004897
v -0.29371159794004897 0.3483407938201466 0
v -0.29371159794004897 0.3483407938201466 0.29371159794004886
v -0.29371159794004897 0.64205239176019546 -0.29371159794004897
v -0.29371159794004897 0.64205239176019546 0
v -0.29371159794004897 0.64205239176019546 0.29371159794004886
v -0.29371159794004897 0.93576398970024433 -0.29371159794004897
v -0.29371159794004897 0.93576398970024433 0
v -0.29371159794004897 0.93576398970024433 0.29371159794004886
v 0 -0.53279400000000021 -0.88113479382014681
v 0 -0.53279400000000021 -0.58742319588009795
v 0 -0.53279400000000021 -0.29371159794004897
v 0 -0.53279400000000021 0
v 0 -0.53279400000000021 0.29371159794004886
v 0 -0.53279400000000021 0.58742319588009773
v 0 -0.53279400000000021 0.88113479382014681
v 0 -0.23908240205995129 -0.88113479382014681
v 0 -0.23908240205995129 0.88113479382014681
v 0 0.054629195880097625 -0.88113479382014681
v 0 0.054629195880097625 -0.58742319588009795
v 0 0.054629195880097625 -0.29371159794004897
v 0 0.054629195880097625 0
v 0 0.054629195880097625 0.29371159794004886
v 0 0.054629195880097625 0.58742319588009773
v 0 0.054629195880097625 0.88113479382014681
v 0 0.3483407938201466 -0.29371159794004897
v 0 0.3483407938201466 0
v 0 0.3483407938201466 0.29371159794004886
v 0 0.64205239176019546 -0.29371159794004897
v 0 0.64205239176019546 0.29371159794004886
v 0 0.93576398970024433 -0.29371159794004897
v 0 0.93576398970024433 0
v 0 0.93576398970024433 0.29371159794004886
v 0.29371159794004886 -0.53279400000000021 -0.88113479382014681
v 0.29371159794004886 -0.53279400000000021 -0.58742319588009795
v 0.29371159794004886 -0.53279400000000021 -0.29371159794004897
v 0.29371159794004886 -0.53279400000000021 0
v 0.29371159794004886 -0.53279400000000021 0.29371159794004886
v 0.29371159794004886 -0.53279400000000021 0.58742319588009773
v 0.29371159794004886 -0.53279400000000021 0.88113479382014681
v 0.29371159794004886 -0.23908240205995129 -0.88113479382014681
v 0.29371159794004886 -0.23908240205995129 0.88113479382014681
v 0.29371159794004886 0.054629195880097625 -0.88113479382014681
v 0.29371159794004886 0.054629195880097625 -0.58742319588009795
v 0.29371159794004886 0.054629195880097625 -0.29371159794004897
v 0.29371159794004886 0.054629195880097625 0
v 0.29371159794004886 0.054629195880097625 0.29371159794004886
v 0.29371159794004886 0.054629195880097625 0.58742319588009773
v 0.29371159794004886 0.054629195880097625 0.88113479382014681
v 0.29371159794004886 0.3483407938201466 -0.29371159794004897
v 0.29371159794004886 0.3483407938201466 0
v 0.29371159794004886 0.3483407938201466 0.29371159794004886
v 0.29371159794004886 0.64205239176019546 -0.29371159794004897
v 0.29371159794004886 0.64205239176019546 0
v 0.29371159794004886 0.64205239176019546 0.29371159794004886
v 0.29371159794004886 0.93576398970024433 -0.29371159794004897
v 0.29371159794004886 0.93576398970024433 0
v 0.29371159794004886 0.93576398970024433 0.29371159794004886
v 0.58742319588009773 -0.53279400000000021 -0.88113479382014681
v 0.58742319588009773 -0.53279400000000021 -0.58742319588009795
v 0.58742319588009773 -0.53279400000000021 -0.29371159794004897
v 0.58742319588009773 -0.53279400000000021 0
v 0.58742319588009773 -0.53279400000000021 0.29371159794004886
v 0.58742319588009773 -0.53279400000000021 0.58742319588009773
v 0.58742319588009773 -0.53279400000000021 0.88113479382014681
v 0.58742319588009773 -0.23908240205995129 -0.88113479382014681
v 0.58742319588009773 -0.23908240205995129 0.88113479382014681
v 0.58742319588009773 0.054629195880097625 -0.88113479382014681
v 0.58742319588009773 0.054629195880097625 -0.58742319588009795
v 0.58742319588009773 0.054629195880097625 -0.29371159794004897
v 0.58742319588009773 0.054629195880097625 0
v 0.58742319588009773 0.054629195880097625 0.29371159794004886
v 0.58742319588009773 0.054629195880097625 0.58742319588009773
v 0.58742319588009773 0.054629195880097625 0.88113479382014681
v 0.88113479382014681 -0.53279400000000021 -0.88113479382014681
v 0.88113479382014681 -0.53279400000000021 -0.58742319588009795
v 0.88113479382014681 -0.53279400000000021 -0.29371159794004897
v 0.88113479382014681 -0.53279400000000021 0
v 0.88113479382014681 -0.53279400000000021 0.29371159794004886
v 0.88113479382014681 -0.53279400000000021 0.58742319588009773
v 0.88113479382014681 -0.53279400000000021 0.88113479382014681
v 0.88113479382014681 -0.23908240205995129 -0.88113479382014681
v 0.88113479382014681 -0.23908240205995129 -0.58742319588009795
v 0.88113479382014681 -0.23908240205995129 -0.29371159794004897
v 0.88113479382014681 -0.23908240205995129 0
v 0.88113479382014681 -0.23908240205995129 0.29371159794004886
v 0.88113479382014681 -0.23908240205995129 0.58742319588009773
v 0.88113479382014681 -0.23908240205995129 0.88113479382014681
v 0.88113479382014681 0.054629195880097625 -0.88113479382014681
v 0.88113479382014681 0.054629195880097625 -0.58742319588009795
v 0.88113479382014681 0.054629195880097625 -0.29371159794004897
v 0.88113479382014681 0.054629195880097625 0
v 0.88113479382014681 0.054629195880097625 0.29371159794004886
v 0.88113479382014681 0.054629195880097625 0.58742319588009773
v 0.88113479382014681 0.054629195880097625 0.88113479382014681
f 120 141 148
f 148 127 120
f 139 146 147
f 147 140 139
f 125 126 147
f 147 146 125
f 140 147 148
f 148 141 140
f 138 145 146
f 146 139 138
f 124 125 146
f 146 145 124
f 137 144 145
f 145 138 137
f 135 142 143
f 143 136 135
f 117 133 134
f 134 118 117
f 118 134 141
f 141 120 118
f 116 132 133
f 133 117 116
f 114 130 131
f 131 115 114
f 126 127 148
f 148 147 126
f 129 136 137
f 137 130 129
f 121 122 143
f 143 142 121
f 113 129 130
f 130 114 113
f 95 120 127
f 127 102 95
f 100 101 126
f 126 125 100
f 94 96 121
f 121 119 94
f 93 118 120
f 120 95 93
f 91 116 117
f 117 92 91
f 89 114 115
f 115 90 89
f 115 131 132
f 132 116 115
f 130 137 138
f 138 131 130
f 87 94 119
f 119 112 87
f 107 110 111
f 111 108 107
f 96 97 122
f 122 121 96
f 85 86 111
f 111 110 85
f 83 108 111
f 111 86 83
f 106 109 110
f 110 107 106
f 104 107 108
f 108 105 104
f 81 105 108
f 108 83 81
f 79 103 104
f 104 80 79
f 71 95 102
f 102 78 71
f 24 40 41
f 41 25 24
f 20 21 37
f 37 36 20
f 70 72 96
f 96 94 70
f 79 82 106
f 106 103 79
f 68 92 93
f 93 69 68
f 69 93 95
f 95 71 69
f 72 73 97
f 97 96 72
f 66 90 91
f 91 67 66
f 64 88 89
f 89 65 64
f 2 3 10
f 10 9 2
f 55 80 81
f 81 56 55
f 63 87 88
f 88 64 63
f 58 59 62
f 62 61 58
f 57 58 61
f 61 60 57
f 60 61 85
f 85 84 60
f 54 55 58
f 58 57 54
f 54 79 80
f 80 55 54
f 90 115 116
f 116 91 90
f 54 57 82
f 82 79 54
f 61 62 86
f 86 85 61
f 11 12 19
f 19 18 11
f 36 37 53
f 53 52 36
f 52 53 78
f 78 77 52
f 46 71 78
f 78 53 46
f 51 52 77
f 77 76 51
f 56 81 83
f 83 59 56
f 50 51 76
f 76 75 50
f 49 50 75
f 75 74 49
f 103 106 107
f 107 104 103
f 43 68 69
f 69 44 43
f 44 69 71
f 71 46 44
f 57 60 84
f 84 82 57
f 42 67 68
f 68 43 42
f 41 66 67
f 67 42 41
f 40 65 66
f 66 41 40
f 92 117 118
f 118 93 92
f 39 64 65
f 65 40 39
f 98 99 124
f 124 123 98
f 82 84 109
f 109 106 82
f 31 32 48
f 48 47 31
f 38 63 64
f 64 39 38
f 88 113 114
f 114 89 88
f 59 83 86
f 86 62 59
f 97 98 123
f 123 122 97
f 77 78 102
f 102 101 77
f 30 46 53
f 53 37 30
f 14 30 37
f 37 21 14
f 18 19 35
f 35 34 18
f 27 43 44
f 44 28 27
f 99 100 125
f 125 124 99
f 9 10 17
f 17 16 9
f 28 44 46
f 46 30 28
f 33 34 50
f 50 49 33
f 13 14 21
f 21 20 13
f 128 135 136
f 136 129 128
f 80 104 105
f 105 81 80
f 34 35 51
f 51 50 34
f 87 112 113
f 113 88 87
f 1 8 29
f 29 22 1
f 7 28 30
f 30 14 7
f 47 48 73
f 73 72 47
f 65 89 90
f 90 66 65
f 101 102 127
f 127 126 101
f 45 47 72
f 72 70 45
f 8 9 16
f 16 15 8
f 22 38 39
f 39 23 22
f 132 139 140
f 140 133 132
f 8 15 31
f 31 29 8
f 29 31 47
f 47 45 29
f 32 33 49
f 49 48 32
f 112 128 129
f 129 113 112
f 19 20 36
f 36 35 19
f 6 7 14
f 14 13 6
f 2 23 24
f 24 3 2
f 10 11 18
f 18 17 10
f 133 140 141
f 141 134 133
f 119 121 142
f 142 135 119
f 1 22 23
f 23 2 1
f 74 75 99
f 99 98 74
f 5 26 27
f 27 6 5
f 122 123 144
f 144 143 122
f 25 41 42
f 42 26 25
f 48 49 74
f 74 73 48
f 16 17 33
f 33 32 16
f 12 13 20
f 20 19 12
f 67 91 92
f 92 68 67
f 15 16 32
f 32 31 15
f 112 119 135
f 135 128 112
f 23 39 40
f 40 24 23
f 136 143 144
f 144 137 136
f 6 27 28
f 28 7 6
f 123 124 145
f 145 144 123
f 5 6 13
f 13 12 5
f 75 76 100
f 100 99 75
f 4 25 26
f 26 5 4
f 38 45 70
f 70 63 38
f 26 42 43
f 43 27 26
f 22 29 45
f 45 38 22
f 63 70 94
f 94 87 63
f 76 77 101
f 101 100 76
f 3 24 25
f 25 4 3
f 84 85 110
f 110 109 84
f 35 36 52
f 52 51 35
f 17 18 34
f 34 33 17
f 131 138 139
f 139 132 131
f 1 2 9
f 9 8 1
f 3 4 11
f 11 10 3
f 55 56 59
f 59 58 55
f 73 74 98
f 98 97 73
f 4 5 12
f 12 11 4
