# https://github.com/mikedh/trimesh
v -0.07540600 0.07155750 -0.00358100
v -0.07802580 0.07017330 0.01068080
v -0.07693825 0.07131475 0.02375775
v -0.08042555 0.08511209 -0.00694455
v -0.08621025 0.08412871 0.01012618
v -0.08203280 0.08443813 0.02887087
v -0.07922629 0.10260719 -0.00663981
v -0.08701773 0.10559351 0.00860116
v -0.08355427 0.10582267 0.03039002
v -0.08095433 0.11131717 0.04277033
v -0.08178471 0.12386967 -0.00365052
v -0.09068412 0.12234273 0.00894268
v -0.09198920 0.12125646 0.02882524
v -0.08359122 0.12160274 0.04766724
v -0.07473175 0.15188550 -0.02449825
v -0.07707113 0.14568403 -0.00762529
v -0.08669331 0.14463676 0.00968364
v -0.08778746 0.14443551 0.02886051
v -0.07989164 0.13863293 0.04677979
v -0.07644300 0.17034800 -0.04364050
v -0.07669452 0.16486669 -0.03035403
v -0.07624672 0.15804089 -0.01236344
v -0.07882960 0.15470640 0.01166250
v -0.07845633 0.15439783 0.02482333
v -0.07625017 0.17548433 -0.04750983
v -0.07435100 0.17390000 -0.03939000
v -0.06064268 0.03893497 -0.00561284
v -0.06263993 0.04005575 0.00767184
v -0.06026798 0.03948078 0.03031050
v -0.05916770 0.03910970 0.04284445
v -0.06175700 0.06514195 -0.00708055
v -0.06473991 0.06071939 0.00959400
v -0.06329227 0.06512847 0.02819587
v -0.05718200 0.07232150 0.04008150
v -0.05453850 0.08495350 -0.02142650
v -0.06467135 0.08224765 -0.01743995
v -0.07206380 0.07709640 0.03683320
v -0.06391293 0.08496663 0.04302967
v -0.05598850 0.09762650 -0.02089200
v -0.06587413 0.10519581 -0.01451825
v -0.06597847 0.10824600 0.03815620
v -0.06634192 0.10442746 0.04284412
v -0.06369850 0.12376408 -0.00868928
v -0.05711800 0.12260670 0.03743160
v -0.06576091 0.12188579 0.04685853
v -0.06820650 0.15263775 -0.04469075
v -0.06850842 0.14959803 -0.02985242
v -0.06398756 0.14469924 -0.00836761
v -0.06045475 0.15230900 -0.00018925
v -0.06020227 0.14532940 0.03358943
v -0.06828064 0.13976155 0.04364886
v -0.06651368 0.16457732 -0.04999277
v -0.06682027 0.16283788 -0.03176582
v -0.06721868 0.15908268 -0.01181249
v -0.06212324 0.15604368 0.00721958
v -0.06365075 0.15505317 0.02466642
v -0.06816653 0.17649313 -0.05247350
v -0.07102600 0.17365100 -0.03997600
v -0.03864625 0.03890125 -0.02540805
v -0.04342657 0.04136463 -0.01157002
v -0.04422526 0.03702246 0.01017538
v -0.04582183 0.04101742 0.03071107
v -0.04371604 0.04080324 0.04262278
v -0.04522239 0.06117758 -0.01179665
v -0.05279650 0.05559050 0.01591650
v -0.04930733 0.05987217 0.03320933
v -0.04177006 0.06345983 0.04045828
v -0.04181872 0.08648211 -0.02234544
v -0.04443500 0.07715415 -0.01931323
v -0.04427004 0.08329035 0.04326483
v -0.04541583 0.09748033 -0.02192525
v -0.04464557 0.10868686 -0.01877857
v -0.04352312 0.11044412 0.03702537
v -0.04304858 0.10096525 0.04166767
v -0.04589362 0.12439632 -0.00757435
v -0.04220011 0.12919895 0.00894130
v -0.04527702 0.12302669 0.02825084
v -0.04505891 0.14829668 -0.00366482
v -0.04829083 0.14402498 0.00787028
v -0.05196200 0.14130600 0.02326440
v -0.04279494 0.16320954 -0.00756548
v -0.04434285 0.16092037 0.00466656
v -0.03690460 0.17472000 -0.00697380
v -0.02495346 0.04145954 -0.02692952
v -0.02703716 0.03957138 -0.01243370
v -0.02606811 0.03709111 0.00948400
v -0.02570694 0.03813913 0.03069594
v -0.02517421 0.04091722 0.04766003
v -0.02393390 0.06385879 -0.03156517
v -0.03234983 0.05944092 -0.01589492
v -0.03031492 0.05787142 0.03792558
v -0.02497958 0.06459767 0.04421933
v -0.02455856 0.08343580 -0.03417665
v -0.02536759 0.08554924 0.04951561
v -0.02306437 0.09954321 -0.02556679
v -0.02654200 0.11055280 -0.01896280
v -0.02892350 0.11037550 0.03767325
v -0.02112381 0.09996376 0.04542338
v -0.02574221 0.12040221 -0.00896532
v -0.02514723 0.12633787 0.01000577
v -0.02395381 0.12074596 0.02894504
v -0.01684250 0.17101125 -0.02249775
v -0.02523887 0.16395044 -0.01073498
v -0.03087400 0.15815967 0.00058767
v -0.01757287 0.17916560 -0.02377667
v -0.02513413 0.17845158 -0.01399129
v -0.00372885 0.04120885 -0.02607475
v -0.00369800 0.03759039 -0.01089718
v -0.00302109 0.03692503 0.00953506
v -0.00257255 0.03815372 0.02949443
v -0.00611945 0.03970458 0.04660535
v -0.00556111 0.06385495 -0.03474616
v -0.00429009 0.06401036 0.05538073
v -0.00541243 0.08430823 -0.03629163
v -0.00597500 0.08420445 0.05697618
v -0.00407143 0.10019300 -0.02626010
v -0.00551950 0.11196750 -0.01934650
v -0.00453763 0.10292733 0.04660117
v -0.00385038 0.12196343 -0.01039771
v -0.00285067 0.13039107 0.00882080
v -0.00355900 0.12573713 0.02960978
v -0.00132275 0.11555150 0.04005475
v -0.01143760 0.16979400 -0.02318280
v -0.01279386 0.16784629 -0.01703686
v -0.01167155 0.17710382 -0.02507155
v 0.01338209 0.04355900 -0.02356882
v 0.01568153 0.03730674 -0.01130033
v 0.01438319 0.03510063 0.00875500
v 0.01436417 0.03612146 0.03103403
v 0.01405679 0.04244114 0.04372743
v 0.01630642 0.06233358 -0.02831175
v 0.01754429 0.06275171 0.04928541
v 0.01534550 0.08464500 -0.02861163
v 0.01764979 0.08342563 0.05104774
v 0.01288125 0.09760267 -0.02405875
v 0.01601346 0.10754723 -0.01824877
v 0.02014733 0.11083133 0.03822433
v 0.01400022 0.10286441 0.04458256
v 0.01644495 0.12061205 -0.00852626
v 0.01481007 0.12854007 0.00867840
v 0.01608274 0.12260213 0.02955785
v 0.00742800 0.11373300 0.03987900
v 0.03483366 0.04668794 -0.00651634
v 0.03617126 0.03839237 0.00808019
v 0.03524427 0.04560991 0.03020776
v 0.02779600 0.06857450 -0.02211050
v 0.03783543 0.06323746 -0.00995159
v 0.04494100 0.06888233 0.00004433
v 0.04019483 0.06295362 0.03126772
v 0.02940500 0.06412600 0.04163800
v 0.02743450 0.08074050 -0.02274700
v 0.03806681 0.08333494 -0.01177141
v 0.04507557 0.08619436 0.00714393
v 0.04145375 0.08360538 0.02897871
v 0.03089330 0.08358720 0.04285070
v 0.03412028 0.10350976 -0.00918600
v 0.04113438 0.10260358 0.00875042
v 0.03517287 0.10382375 0.02997650
v 0.02871250 0.09653000 0.04214025
v 0.02914033 0.11565633 -0.00463767
v 0.02983283 0.11919350 0.01012900
v 0.03036420 0.11635420 0.02582140
v 0.04999975 0.05129425 -0.00236625
v 0.05235652 0.04776979 0.00862079
v 0.04988130 0.04925360 0.02535030
v 0.04936207 0.05942050 -0.00312379
v 0.05617097 0.06624410 0.00920252
v 0.05293597 0.06426077 0.02484828
v 0.04643461 0.07818206 0.01135972
f 141 162 161
f 161 140 141
f 160 139 161
f 161 157 160
f 160 157 156
f 161 139 140
f 126 131 127
f 126 143 127
f 126 131 147
f 147 143 126
f 141 158 162
f 98 74 94
f 94 74 70
f 31 36 69
f 69 64 31
f 141 137 158
f 137 138 158
f 158 138 159
f 18 19 51
f 51 50 18
f 110 128 129
f 128 110 109
f 108 128 109
f 61 62 28
f 62 29 28
f 135 116 136
f 82 81 55
f 55 81 54
f 83 106 81
f 81 106 103
f 81 82 103
f 125 123 105
f 63 62 30
f 30 62 29
f 12 8 9
f 9 13 12
f 13 9 14
f 123 124 103
f 123 103 102
f 8 5 9
f 5 6 9
f 108 127 128
f 52 53 46
f 46 53 47
f 45 44 51
f 51 44 50
f 132 150 134
f 134 150 155
f 155 150 149
f 149 154 155
f 48 43 16
f 16 43 11
f 107 126 127
f 98 97 74
f 74 97 73
f 97 101 73
f 73 101 77
f 97 98 101
f 98 118 101
f 118 122 101
f 101 122 121
f 95 116 93
f 93 116 114
f 114 116 133
f 133 116 135
f 5 8 4
f 4 8 7
f 55 23 56
f 23 17 24
f 69 35 68
f 35 69 36
f 35 36 68
f 36 39 68
f 68 39 71
f 71 39 72
f 72 39 40
f 71 72 95
f 14 9 10
f 111 113 88
f 88 113 92
f 1 2 4
f 4 2 5
f 36 31 4
f 4 31 1
f 39 36 40
f 101 100 77
f 77 100 76
f 159 138 155
f 155 138 134
f 159 155 158
f 158 155 154
f 24 17 18
f 23 24 56
f 50 56 24
f 24 18 50
f 93 114 112
f 157 153 156
f 156 153 152
f 42 14 10
f 14 42 45
f 167 153 169
f 45 42 41
f 45 41 44
f 10 41 42
f 75 40 43
f 75 72 40
f 87 63 88
f 87 62 63
f 87 91 62
f 62 91 66
f 63 62 67
f 62 67 66
f 62 66 63
f 132 130 150
f 150 130 145
f 150 145 149
f 137 141 138
f 1 31 2
f 78 75 43
f 43 48 78
f 78 79 75
f 75 79 76
f 78 48 79
f 148 167 166
f 148 166 147
f 167 148 153
f 148 152 153
f 61 86 62
f 12 17 11
f 11 17 16
f 130 132 111
f 6 3 37
f 113 94 92
f 113 111 132
f 25 52 20
f 25 57 52
f 52 53 20
f 20 53 21
f 15 53 47
f 15 21 53
f 9 6 38
f 9 38 42
f 9 42 41
f 38 6 37
f 60 59 85
f 59 84 85
f 89 112 84
f 84 112 107
f 10 9 41
f 73 77 41
f 73 41 74
f 77 44 41
f 70 42 38
f 70 74 42
f 141 142 138
f 143 147 166
f 166 163 143
f 87 86 110
f 110 86 109
f 109 86 108
f 108 86 85
f 118 98 115
f 111 110 130
f 110 129 130
f 88 87 111
f 111 87 110
f 105 106 125
f 124 125 106
f 124 106 103
f 124 123 125
f 84 59 60
f 60 85 84
f 14 45 19
f 19 45 51
f 118 115 138
f 138 115 134
f 145 165 168
f 145 168 149
f 165 164 168
f 164 167 168
f 127 144 128
f 127 143 144
f 144 143 164
f 164 143 163
f 113 132 115
f 115 132 134
f 148 147 152
f 86 60 85
f 86 61 60
f 62 86 87
f 44 77 50
f 77 80 50
f 60 61 27
f 27 61 28
f 58 53 57
f 58 57 26
f 58 26 53
f 57 25 26
f 53 26 21
f 26 25 21
f 25 20 21
f 123 102 105
f 112 131 107
f 56 79 55
f 50 80 56
f 80 79 56
f 112 114 133
f 112 133 131
f 94 115 98
f 113 115 94
f 3 33 37
f 122 141 121
f 122 142 141
f 118 138 122
f 122 138 142
f 117 136 116
f 154 153 158
f 158 153 157
f 147 146 152
f 126 107 131
f 7 11 40
f 40 11 43
f 11 7 8
f 8 12 11
f 140 120 141
f 141 120 121
f 120 119 100
f 100 119 99
f 140 139 120
f 120 139 119
f 100 99 76
f 76 99 75
f 119 117 99
f 99 117 96
f 119 117 116
f 119 136 117
f 117 116 96
f 96 116 95
f 136 119 139
f 55 48 49
f 55 54 48
f 54 78 48
f 54 81 78
f 103 105 102
f 146 151 152
f 146 131 151
f 32 33 2
f 2 33 3
f 104 103 82
f 18 13 14
f 85 60 90
f 64 90 60
f 95 72 96
f 2 3 5
f 5 3 6
f 66 65 62
f 62 65 61
f 66 32 65
f 66 33 32
f 144 129 128
f 144 145 129
f 53 52 57
f 147 131 146
f 63 29 62
f 21 22 54
f 21 54 53
f 99 96 75
f 75 96 72
f 54 48 53
f 53 48 47
f 136 156 152
f 139 156 136
f 156 139 160
f 136 152 135
f 135 152 133
f 37 33 38
f 38 33 34
f 38 34 70
f 70 34 67
f 67 34 66
f 34 33 66
f 67 66 91
f 91 92 67
f 67 92 70
f 70 92 94
f 7 40 36
f 7 36 4
f 93 68 71
f 71 95 93
f 162 158 161
f 161 158 157
f 61 65 32
f 61 32 28
f 151 133 152
f 74 41 42
f 129 145 130
f 165 144 164
f 165 145 144
f 18 14 19
f 12 13 17
f 17 13 18
f 106 105 103
f 77 76 80
f 80 76 79
f 21 16 22
f 21 15 16
f 16 17 22
f 16 47 48
f 47 16 15
f 149 168 154
f 168 167 169
f 32 31 28
f 85 84 108
f 107 108 84
f 107 127 108
f 167 164 166
f 163 166 164
f 28 31 27
f 31 64 27
f 27 64 60
f 85 90 89
f 89 84 85
f 89 69 93
f 93 69 68
f 69 89 90
f 69 90 64
f 78 82 79
f 81 103 78
f 78 103 82
f 154 169 153
f 168 169 154
f 53 52 47
f 52 46 47
f 88 91 87
f 92 91 88
f 112 89 93
f 121 120 101
f 101 120 100
f 32 2 31
f 79 82 55
f 63 30 29
f 54 22 55
f 22 17 23
f 22 23 55
f 55 49 54
f 54 49 48
f 133 151 131

