301  3  0  0
   0    -0.081807249999999998  0.074633000000000019  0.0082682499999999996
   1    -0.080903200000000008  0.074521000000000018  0.019583199999999999
   2    -0.082336710000000007  0.086529000000000009  -0.005050859999999999
   3    -0.086901200000000012  0.086306330000000001  0.0070742699999999988
   4    -0.086480840000000003  0.086096050000000021  0.021208790000000002
   5    -0.081480750000000005  0.086025880000000013  0.031920499999999997
   6    -0.081966330000000004  0.099905439999999998  -0.0048343299999999995
   7    -0.086824090000000007  0.10229978000000002  0.0069800000000000001
   8    -0.086922110000000011  0.10055574000000002  0.021983110000000004
   9    -0.081556799999999999  0.101547  0.030955400000000004
  10    -0.082376000000000005  0.11721729  -0.0025151399999999999
  11    -0.088476609999999997  0.11529109000000001  0.0069463299999999997
  12    -0.09069675000000002  0.11585968999999999  0.021971620000000004
  13    -0.087805450000000007  0.114373  0.037037199999999999
  14    -0.083952559999999996  0.11767872000000001  0.047484439999999989
  15    -0.083554170000000011  0.12953408000000002  -0.0027211700000000002
  16    -0.089335349999999994  0.13115864999999999  0.0065819000000000008
  17    -0.091973630000000001  0.1312865  0.021907560000000003
  18    -0.090545600000000004  0.13061880000000001  0.036405129999999994
  19    -0.083474920000000008  0.12977108000000001  0.049264769999999992
  20    -0.080218499999999998  0.14176700000000003  -0.0022675000000000004
  21    -0.085658709999999999  0.14631910000000004  0.0077987600000000001
  22    -0.089433730000000003  0.14652565000000001  0.021778810000000003
  23    -0.085927290000000003  0.14477935000000003  0.034959940000000002
  24    -0.080935500000000007  0.15423400000000001  0.0113455
  25    -0.082143800000000003  0.15424080000000001  0.018930600000000002
  26    -0.066425120000000018  0.037375749999999999  -0.00426962
  27    -0.068058189999999991  0.038376229999999997  0.00524304
  28    -0.06455799999999999  0.037489669999999996  0.023552330000000003
  29    -0.06527767000000001  0.038560499999999998  0.033994329999999996
  30    -0.065547999999999995  0.062514  -0.00089000000000000006
  31    -0.068376670000000014  0.061907829999999997  0.0086588299999999993
  32    -0.067288600000000004  0.0620712  0.019762799999999997
  33    -0.067041000000000003  0.077494000000000021  -0.016517
  34    -0.071031750000000018  0.071466170000000023  -0.0075734200000000008
  35    -0.074805880000000005  0.067129370000000008  0.0076035
  36    -0.073493370000000016  0.067827250000000006  0.022268999999999997
  37    -0.069616200000000003  0.073018899999999998  0.0350725
  38    -0.068713250000000017  0.086274000000000017  -0.017174250000000002
  39    -0.074839000000000003  0.085274000000000016  -0.013178200000000001
  40    -0.071687210000000001  0.085398680000000005  0.040029530000000001
  41    -0.064412999999999998  0.089830999999999994  0.044305999999999998
  42    -0.066734000000000016  0.097806000000000004  -0.016738999999999997
  43    -0.07376623000000003  0.10221662000000002  -0.011427689999999997
  44    -0.072782830000000007  0.10233154000000001  0.038072040000000001
  45    -0.072044500000000011  0.11555672000000002  -0.0078200600000000002
  46    -0.069780429999999991  0.11097607000000001  0.041176210000000005
  47    -0.071606170000000025  0.11695034  0.049706060000000003
  48    -0.071763290000000021  0.13204747000000003  -0.0075300599999999999
  49    -0.065129500000000007  0.13465049999999998  0.042199250000000008
  50    -0.070922920000000014  0.13012453999999998  0.049757620000000009
  51    -0.067594000000000015  0.153393  -0.047523999999999997
  52    -0.069434559999999992  0.15087433  -0.037089169999999998
  53    -0.071310640000000008  0.14847924000000004  -0.023337719999999999
  54    -0.072784340000000017  0.14536524000000003  -0.008828759999999998
  55    -0.078694330000000021  0.152476  0.00120667
  56    -0.069926470000000004  0.14736133000000004  0.039127469999999998
  57    -0.073759620000000012  0.1412255  0.046323250000000003
  58    -0.068379250000000003  0.16093358000000002  -0.051350670000000008
  59    -0.072776170000000029  0.16178297  -0.038227299999999999
  60    -0.073210790000000012  0.16274937000000003  -0.023219549999999999
  61    -0.071793940000000028  0.15813553  -0.0085038700000000002
  62    -0.071198670000000019  0.1554208  0.0058700000000000002
  63    -0.071594100000000022  0.15549710000000003  0.022879799999999995
  64    -0.071217000000000003  0.1540165  0.0309305
  65    -0.07016244000000002  0.17505946000000003  -0.052233390000000011
  66    -0.071798360000000006  0.17174921000000004  -0.039486359999999998
  67    -0.072082250000000014  0.16932949999999999  -0.028305750000000005
  68    -0.057230780000000002  0.038358380000000004  -0.00686186
  69    -0.058658200000000008  0.038724439999999992  0.0067147599999999993
  70    -0.057600440000000003  0.038967559999999998  0.021652330000000004
  71    -0.05801305000000001  0.039363640000000005  0.038058380000000003
  72    -0.054864580000000003  0.039350080000000003  0.045329330000000001
  73    -0.054462380000000005  0.056633430000000005  -0.00592014
  74    -0.058080569999999998  0.056055460000000001  0.0066977099999999999
  75    -0.054895550000000008  0.056288289999999998  0.022161350000000003
  76    -0.051546120000000008  0.054435880000000006  0.033342530000000002
  77    -0.056650290000000006  0.076037140000000017  -0.018050430000000006
  78    -0.057004110000000004  0.067832670000000012  -0.011869559999999999
  79    -0.062057000000000001  0.063801999999999998  0.028480000000000002
  80    -0.056500060000000005  0.070505500000000013  0.038151890000000008
  81    -0.056087269999999995  0.085274200000000022  -0.020553930000000005
  82    -0.05749025  0.080889749999999996  0.043735250000000003
  83    -0.057336730000000002  0.087479550000000003  0.044752090000000001
  84    -0.054977080000000005  0.099949499999999983  -0.020104920000000002
  85    -0.057396269999999999  0.099695450000000005  0.042452730000000001
  86    -0.055243999999999994  0.1103715  -0.017271999999999999
  87    -0.058045920000000001  0.11820533  -0.0115125
  88    -0.057101600000000009  0.11658957  0.037824369999999996
  89    -0.06327975000000001  0.12097250000000001  0.045613500000000008
  90    -0.056029100000000005  0.13067528  -0.00566659
  91    -0.050393500000000008  0.13510349999999999  0.00061100000000000011
  92    -0.051027500000000003  0.13610775  0.025388500000000005
  93    -0.05804753  0.13144321000000003  0.036806579999999998
  94    -0.062977999999999992  0.125222  0.044638000000000004
  95    -0.062926999999999997  0.15318099999999998  -0.031619000000000008
  96    -0.063081999999999999  0.15054800000000002  -0.022227099999999996
  97    -0.059589580000000003  0.14765826000000001  -0.005135869999999999
  98    -0.052309140000000011  0.14591995000000005  0.0049611000000000004
  99    -0.052891590000000009  0.14629768000000004  0.021330770000000002
 100    -0.059908530000000002  0.14530588000000003  0.034335940000000002
 101    -0.06269079000000001  0.16406757  -0.05187321000000001
 102    -0.062840329999999986  0.16103070999999999  -0.037873900000000002
 103    -0.06255717999999999  0.15864135000000001  -0.023686059999999998
 104    -0.055195920000000002  0.15790569000000002  -0.0064438500000000001
 105    -0.056316250000000005  0.15736584000000001  0.006109690000000001
 106    -0.059095000000000002  0.15498100000000001  0.020542269999999998
 107    -0.062605790000000008  0.17230807000000001  -0.055444859999999999
 108    -0.040051550000000005  0.039995549999999998  -0.022058110000000002
 109    -0.04224758  0.03767583  -0.009460109999999999
 110    -0.041658590000000009  0.034562320000000007  0.0066415900000000002
 111    -0.040773820000000009  0.034773710000000006  0.021198120000000001
 112    -0.040916890000000004  0.038112730000000004  0.03906341
 113    -0.04077571  0.03897871  0.045342569999999999
 114    -0.03483300000000001  0.048804  -0.016659
 115    -0.041352110000000011  0.054653330000000014  -0.011511889999999999
 116    -0.042669660000000012  0.056293380000000004  0.038685860000000002
 117    -0.039634200000000001  0.072811600000000004  -0.017987600000000003
 118    -0.041529330000000003  0.065031329999999998  -0.014336670000000001
 119    -0.043821710000000007  0.069304429999999986  0.040692710000000007
 120    -0.039847190000000005  0.085376000000000007  -0.022082059999999997
 121    -0.039259910000000002  0.085804000000000005  0.043126180000000007
 122    -0.048823999999999999  0.089665500000000009  0.044688499999999999
 123    -0.041563670000000004  0.099633109999999997  -0.021640779999999998
 124    -0.039886999999999999  0.10165440000000001  0.04115980000000001
 125    -0.040670330000000005  0.11137633  -0.017846330000000001
 126    -0.042286669999999998  0.11949899999999999  -0.01264433
 127    -0.041837620000000013  0.12170500000000002  0.027338500000000002
 128    -0.04309936000000001  0.11459250000000001  0.033911640000000007
 129    -0.043020460000000003  0.12620931000000002  -0.0050291500000000005
 130    -0.044017029999999999  0.13098311000000001  0.00709511
 131    -0.042857760000000009  0.12817192999999999  0.02073407
 132    -0.041816130000000007  0.15051993000000002  -0.0041002
 133    -0.045587849999999999  0.14712727  0.0062328799999999997
 134    -0.042010620000000012  0.16130749999999999  -0.0090076200000000009
 135    -0.041819410000000008  0.16065441  0.0039940000000000002
 136    -0.038643880000000005  0.17217618000000001  -0.0064395299999999997
 137    -0.04044967  0.16977633000000003  0.00062300000000000007
 138    -0.027149689999999997  0.039050640000000005  -0.025356100000000003
 139    -0.027723059999999997  0.038436720000000001  -0.0086076699999999996
 140    -0.028192350000000001  0.036993939999999996  0.0068248800000000002
 141    -0.026742999999999999  0.036936610000000002  0.021040330000000003
 142    -0.027316970000000003  0.037000229999999995  0.036305539999999997
 143    -0.027274970000000003  0.039560339999999999  0.049822680000000008
 144    -0.021823330000000002  0.059300830000000006  -0.032712500000000005
 145    -0.027797499999999999  0.054626460000000009  -0.024207079999999999
 146    -0.032879870000000005  0.05602087  -0.013397620000000001
 147    -0.028550230000000003  0.056368229999999998  0.039629810000000008
 148    -0.02217467  0.052157830000000009  0.046894999999999999
 149    -0.02471367  0.07207694000000002  -0.035676670000000001
 150    -0.032245499999999996  0.069727799999999993  -0.0236969
 151    -0.029950870000000004  0.07039875000000001  0.041062370000000001
 152    -0.023457890000000002  0.073485330000000001  0.049351440000000003
 153    -0.024411450000000005  0.084819149999999996  -0.035933550000000002
 154    -0.031462169999999998  0.087170830000000005  -0.027016829999999999
 155    -0.031963999999999992  0.083927570000000007  0.042911570000000003
 156    -0.025452870000000002  0.087444580000000008  0.049804870000000001
 157    -0.021969000000000002  0.093675000000000008  -0.032223999999999996
 158    -0.027282999999999998  0.1000833  -0.0240778
 159    -0.027615710000000002  0.10298742999999999  0.042091290000000003
 160    -0.022192599999999996  0.095889199999999994  0.046437800000000001
 161    -0.0277144  0.1110724  -0.018318400000000006
 162    -0.028684900000000003  0.11980399999999999  -0.010002200000000001
 163    -0.028697  0.12194162000000001  0.025658880000000002
 164    -0.025691460000000003  0.11527585000000001  0.034614310000000009
 165    -0.025778250000000003  0.12412625000000004  -0.0025525000000000001
 166    -0.027042499999999997  0.12610071999999997  0.007204669999999999
 167    -0.0267488  0.12524670000000002  0.018461500000000006
 168    -0.025502500000000001  0.16607461999999998  -0.017062750000000002
 169    -0.027202649999999998  0.16062309  -0.0080029100000000002
 170    -0.030873999999999999  0.15815966999999997  0.00058766999999999999
 171    -0.024437750000000001  0.17583110000000002  -0.019166699999999998
 172    -0.027406179999999999  0.17601661000000002  -0.010717239999999999
 173    -0.020285000000000001  0.185332  -0.016740999999999999
 174    -0.024108999999999998  0.18356700000000001  -0.014476000000000001
 175    -0.01200273  0.038190090000000003  -0.023326819999999998
 176    -0.01205667  0.038740999999999998  -0.0087125999999999992
 177    -0.011416619999999999  0.038411850000000004  0.0081501499999999984
 178    -0.011451709999999997  0.03845059  0.021385530000000007
 179    -0.011393559999999999  0.038328060000000004  0.036179390000000006
 180    -0.013008479999999999  0.039972760000000003  0.048985949999999993
 181    -0.0128608  0.0572224  -0.034067699999999999
 182    -0.012511619999999999  0.056346120000000006  0.05183175000000001
 183    -0.01278758  0.071634420000000018  -0.03761989000000001
 184    -0.011153829999999998  0.073056999999999997  0.056180500000000001
 185    -0.01284156  0.084986600000000009  -0.037770360000000003
 186    -0.012488469999999998  0.086884670000000011  0.056687399999999999
 187    -0.011090399999999999  0.095065800000000006  -0.032553800000000008
 188    -0.01125753  0.10074871000000001  -0.025371650000000006
 189    -0.012205880000000001  0.10469062000000003  0.043304620000000009
 190    -0.01078933  0.09747393  0.050168130000000005
 191    -0.012817  0.11238774999999999  -0.018918250000000005
 192    -0.013286860000000003  0.12056829000000001  -0.011079139999999999
 193    -0.011632999999999999  0.11662625000000003  0.037846169999999998
 194    -0.0097940000000000006  0.12626600000000002  -0.0044618000000000001
 195    -0.0116895  0.12899900000000003  0.0065313300000000001
 196    -0.0130934  0.12775410000000001  0.0217621
 197    -0.010069  0.12476100000000002  0.031221999999999996
 198    -0.014391429999999998  0.16555286  -0.018042859999999997
 199    -0.016662199999999999  0.16334820000000003  -0.0115771
 200    -0.01431587  0.17567733000000002  -0.022663490000000001
 201    -0.018535000000000003  0.16878800000000002  -0.013717999999999999
 202    -0.016766  0.18482849999999998  -0.022154500000000001
 203    0.00279971  0.03824371  -0.02256824
 204    0.0036636799999999999  0.037195569999999997  -0.0091896800000000004
 205    0.0031563699999999999  0.035698620000000007  0.0065682900000000009
 206    0.0035849600000000003  0.036542479999999995  0.021889779999999998
 207    0.0042454999999999993  0.036865499999999995  0.035970820000000001
 208    0.0031919999999999995  0.041271670000000003  0.046779999999999995
 209    6.3999999999999997e-06  0.057402399999999999  -0.032249
 210    0.00436967  0.053853000000000012  -0.030154
 211    0.0033606299999999999  0.055398630000000004  0.052921750000000004
 212    0.0030590000000000001  0.070984130000000006  -0.034031380000000007
 213    0.0013359999999999999  0.072808429999999993  0.056886289999999999
 214    0.0019045600000000002  0.086857439999999994  -0.034174880000000005
 215    0.010017  0.091673500000000005  -0.030149499999999996
 216    0.0037128  0.087062400000000012  0.055649100000000007
 217    -0.0019455000000000002  0.095105000000000009  -0.031847
 218    0.0038873800000000002  0.099306559999999988  -0.025219439999999999
 219    0.0043584000000000001  0.10619060000000002  0.042697200000000005
 220    0.0044826400000000004  0.09867882  0.049423180000000004
 221    0.0056119999999999998  0.11325785999999999  -0.018560860000000002
 222    0.0048378299999999996  0.12071150000000001  -0.01298183
 223    0.0028471899999999999  0.11616350000000002  0.038906879999999998
 224    0.0043691700000000003  0.12673366999999999  -0.0052651699999999996
 225    0.0032575800000000004  0.13056325000000002  0.0059075799999999999
 226    0.0023066699999999998  0.1298562  0.022285930000000002
 227    0.00187583  0.12560249999999998  0.031524329999999996
 228    0.015357619999999999  0.04055162000000001  -0.020675150000000003
 229    0.018806610000000001  0.037159830000000005  -0.0086946499999999999
 230    0.017830459999999999  0.035235999999999996  0.0060318499999999992
 231    0.019119089999999998  0.035274179999999995  0.021506360000000002
 232    0.017565810000000005  0.038437220000000001  0.037679700000000003
 233    0.012254250000000001  0.041197250000000005  0.044679999999999997
 234    0.020589119999999999  0.054423120000000012  -0.024878999999999998
 235    0.0238055  0.05362250000000001  0.042492000000000002
 236    0.017544300000000002  0.057604000000000002  0.048074499999999999
 237    0.013205000000000001  0.074031000000000013  -0.030782999999999998
 238    0.018784000000000002  0.070229500000000014  -0.028147829999999999
 239    0.020644219999999998  0.072399670000000013  0.049486999999999996
 240    0.018086130000000002  0.087537250000000011  -0.026741500000000001
 241    0.019503819999999998  0.085104450000000012  0.050100820000000011
 242    0.017471080000000003  0.09980022999999999  -0.021655310000000007
 243    0.017005440000000004  0.10567878000000001  0.042300220000000006
 244    0.017491500000000004  0.09800963  0.047116500000000006
 245    0.013160999999999999  0.11085349999999999  -0.017850000000000001
 246    0.019985460000000003  0.11738685  -0.010062769999999999
 247    0.0244925  0.12244325000000002  0.024216999999999999
 248    0.018577750000000004  0.11715265000000001  0.034638650000000014
 249    0.016572  0.12501567  -0.0029800000000000004
 250    0.017818870000000001  0.12741137000000002  0.0070623800000000009
 251    0.016872199999999997  0.12697530000000001  0.022224199999999996
 252    0.012843  0.12475150000000002  0.030778
 253    0.031342560000000005  0.044188720000000001  -0.0060214999999999999
 254    0.032859200000000005  0.03720913  0.0047834700000000006
 255    0.033501000000000003  0.039702670000000002  0.024366920000000004
 256    0.031994909999999994  0.04523518  0.032059999999999998
 257    0.028500000000000001  0.053789000000000003  -0.017961000000000005
 258    0.036251120000000005  0.055325239999999998  -0.0087618799999999979
 259    0.035028209999999997  0.056061320000000005  0.034950110000000006
 260    0.031136109999999998  0.071400560000000002  -0.019264440000000001
 261    0.038018429999999999  0.070657640000000008  -0.011509709999999999
 262    0.035207889999999999  0.070598000000000008  0.037478560000000001
 263    0.028362000000000002  0.07748300000000001  0.044958999999999999
 264    0.032111000000000008  0.086421000000000012  -0.018652000000000002
 265    0.038117330000000005  0.084733560000000013  -0.01294678
 266    0.035188769999999994  0.086632770000000026  0.038413850000000006
 267    0.027011  0.084902500000000006  0.045948999999999997
 268    0.0280935  0.09934999999999998  -0.017232999999999998
 269    0.035354999999999998  0.10218165000000001  -0.0090723500000000016
 270    0.039164499999999998  0.10706325000000003  0.0046967499999999995
 271    0.039452399999999999  0.10286380000000001  0.024196599999999999
 272    0.0319761  0.099627499999999994  0.037392100000000005
 273    0.027106999999999999  0.094072000000000003  0.044367999999999998
 274    0.030192869999999997  0.11272812000000001  -0.0065043699999999998
 275    0.031732310000000007  0.11694923  0.0078267700000000003
 276    0.032431000000000001  0.11503993  0.022453530000000003
 277    0.029236749999999999  0.11170138  0.032535750000000002
 278    0.042889400000000001  0.045591800000000002  -0.0026880000000000003
 279    0.047398330000000002  0.044020999999999998  0.0061983300000000002
 280    0.047363640000000005  0.044759640000000003  0.020917500000000002
 281    0.042548000000000002  0.04811300000000001  0.030889999999999997
 282    0.047339720000000009  0.056265039999999995  -0.0038417600000000005
 283    0.054268500000000004  0.051316880000000009  0.0041582499999999996
 284    0.052204820000000006  0.056164640000000002  0.025979270000000002
 285    0.045173270000000001  0.056042469999999997  0.030999930000000002
 286    0.043672220000000012  0.06855  -0.0038563299999999998
 287    0.049500060000000005  0.07179538000000002  0.00545788
 288    0.048490860000000004  0.070801589999999998  0.022357030000000003
 289    0.041439999999999998  0.07455450000000001  0.030161
 290    0.042613000000000012  0.085984620000000012  -0.0052814999999999997
 291    0.045432850000000004  0.085677080000000003  0.0059729199999999996
 292    0.044274249999999994  0.085696810000000012  0.021922370000000004
 293    0.041079000000000004  0.082951999999999998  0.030907
 294    0.041663000000000006  0.097100000000000006  -0.0028319999999999999
 295    0.042884249999999999  0.099214079999999996  0.0063998299999999996
 296    0.042731380000000006  0.097051129999999999  0.020197
 297    0.058248000000000001  0.05747845  0.0076515499999999992
 298    0.058165000000000001  0.057441289999999999  0.019778999999999998
 299    0.058582260000000004  0.067577419999999999  0.0085960500000000009
 300    0.058290069999999999  0.067928530000000001  0.018945800000000002
# Generated by pq1.2a0.001 
