# Generated by the TriMeshRef class
# Number of vertices: 896
# Number of faces: 1796
v -0.41633616560494979 -0.13160013969262746 0.11113227959499336
v -0.41633616560494979 -0.13160013969262746 0.16705473299582779
v -0.41633616560494979 -0.075677686291793056 0.11113227959499336
v -0.41633616560494979 -0.075677686291793056 0.16705473299582779
v -0.41633616560494979 -0.019755232890958596 0.055209826194158915
v -0.41633616560494979 -0.019755232890958596 0.11113227959499336
v -0.41633616560494979 -0.019755232890958596 0.16705473299582779
v -0.41633616560494979 0.036167220509875864 0.055209826194158915
v -0.41633616560494979 0.036167220509875864 0.11113227959499336
v -0.41633616560494979 0.036167220509875864 0.16705473299582779
v -0.41633616560494979 0.092089673910710323 0.055209826194158915
v -0.41633616560494979 0.092089673910710323 0.11113227959499336
v -0.41633616560494979 0.092089673910710323 0.16705473299582779
v -0.41633616560494979 0.14801212731154478 0.055209826194158915
v -0.41633616560494979 0.14801212731154478 0.11113227959499336
v -0.36041371220411533 -0.4112124066967997 0.16705473299582779
v -0.36041371220411533 -0.4112124066967997 0.22297718639666225
v -0.36041371220411533 -0.4112124066967997 0.27889963979749671
v -0.36041371220411533 -0.35528995329596524 0.16705473299582779
v -0.36041371220411533 -0.35528995329596524 0.22297718639666225
v -0.36041371220411533 -0.35528995329596524 0.27889963979749671
v -0.36041371220411533 -0.35528995329596524 0.33482209319833112
v -0.36041371220411533 -0.29936749989513078 0.16705473299582779
v -0.36041371220411533 -0.29936749989513078 0.22297718639666225
v -0.36041371220411533 -0.29936749989513078 0.27889963979749671
v -0.36041371220411533 -0.29936749989513078 0.33482209319833112
v -0.36041371220411533 -0.24344504649429638 0.11113227959499336
v -0.36041371220411533 -0.24344504649429638 0.16705473299582779
v -0.36041371220411533 -0.24344504649429638 0.22297718639666225
v -0.36041371220411533 -0.24344504649429638 0.27889963979749671
v -0.36041371220411533 -0.24344504649429638 0.33482209319833112
v -0.36041371220411533 -0.18752259309346192 0.055209826194158915
v -0.36041371220411533 -0.18752259309346192 0.11113227959499336
v -0.36041371220411533 -0.18752259309346192 0.16705473299582779
v -0.36041371220411533 -0.18752259309346192 0.22297718639666225
v -0.36041371220411533 -0.18752259309346192 0.27889963979749671
v -0.36041371220411533 -0.13160013969262746 0.055209826194158915
v -0.36041371220411533 -0.13160013969262746 0.11113227959499336
v -0.36041371220411533 -0.13160013969262746 0.16705473299582779
v -0.36041371220411533 -0.13160013969262746 0.22297718639666225
v -0.36041371220411533 -0.13160013969262746 0.27889963979749671
v -0.36041371220411533 -0.075677686291793056 0.055209826194158915
v -0.36041371220411533 -0.075677686291793056 0.11113227959499336
v -0.36041371220411533 -0.075677686291793056 0.16705473299582779
v -0.36041371220411533 -0.075677686291793056 0.22297718639666225
v -0.36041371220411533 -0.075677686291793056 0.27889963979749671
v -0.36041371220411533 -0.019755232890958596 0.055209826194158915
v -0.36041371220411533 -0.019755232890958596 0.11113227959499336
v -0.36041371220411533 -0.019755232890958596 0.16705473299582779
v -0.36041371220411533 -0.019755232890958596 0.22297718639666225
v -0.36041371220411533 -0.019755232890958596 0.27889963979749671
v -0.36041371220411533 0.036167220509875864 0.055209826194158915
v -0.36041371220411533 0.036167220509875864 0.16705473299582779
v -0.36041371220411533 0.092089673910710323 0.055209826194158915
v -0.36041371220411533 0.092089673910710323 0.11113227959499336
v -0.36041371220411533 0.092089673910710323 0.16705473299582779
v -0.36041371220411533 0.14801212731154478 0.055209826194158915
v -0.36041371220411533 0.14801212731154478 0.11113227959499336
v -0.30449125880328087 -0.4112124066967997 0.16705473299582779
v -0.30449125880328087 -0.4112124066967997 0.22297718639666225
v -0.30449125880328087 -0.4112124066967997 0.27889963979749671
v -0.30449125880328087 -0.35528995329596524 0.16705473299582779
v -0.30449125880328087 -0.35528995329596524 0.27889963979749671
v -0.30449125880328087 -0.35528995329596524 0.33482209319833112
v -0.30449125880328087 -0.29936749989513078 0.11113227959499336
v -0.30449125880328087 -0.29936749989513078 0.16705473299582779
v -0.30449125880328087 -0.29936749989513078 0.33482209319833112
v -0.30449125880328087 -0.24344504649429638 0.11113227959499336
v -0.30449125880328087 -0.24344504649429638 0.16705473299582779
v -0.30449125880328087 -0.24344504649429638 0.27889963979749671
v -0.30449125880328087 -0.24344504649429638 0.33482209319833112
v -0.30449125880328087 -0.18752259309346192 0.055209826194158915
v -0.30449125880328087 -0.18752259309346192 0.11113227959499336
v -0.30449125880328087 -0.18752259309346192 0.27889963979749671
v -0.30449125880328087 -0.18752259309346192 0.33482209319833112
v -0.30449125880328087 -0.13160013969262746 -0.00071262720667553126
v -0.30449125880328087 -0.13160013969262746 0.055209826194158915
v -0.30449125880328087 -0.13160013969262746 0.27889963979749671
v -0.30449125880328087 -0.13160013969262746 0.33482209319833112
v -0.30449125880328087 -0.075677686291793056 -0.00071262720667553126
v -0.30449125880328087 -0.075677686291793056 0.055209826194158915
v -0.30449125880328087 -0.075677686291793056 0.11113227959499336
v -0.30449125880328087 -0.075677686291793056 0.27889963979749671
v -0.30449125880328087 -0.019755232890958596 -0.00071262720667553126
v -0.30449125880328087 -0.019755232890958596 0.055209826194158915
v -0.30449125880328087 -0.019755232890958596 0.11113227959499336
v -0.30449125880328087 -0.019755232890958596 0.16705473299582779
v -0.30449125880328087 -0.019755232890958596 0.22297718639666225
v -0.30449125880328087 -0.019755232890958596 0.27889963979749671
v -0.30449125880328087 0.036167220509875864 -0.00071262720667553126
v -0.30449125880328087 0.036167220509875864 0.055209826194158915
v -0.30449125880328087 0.036167220509875864 0.11113227959499336
v -0.30449125880328087 0.036167220509875864 0.16705473299582779
v -0.30449125880328087 0.036167220509875864 0.22297718639666225
v -0.30449125880328087 0.036167220509875864 0.27889963979749671
v -0.30449125880328087 0.092089673910710323 0.055209826194158915
v -0.30449125880328087 0.092089673910710323 0.11113227959499336
v -0.30449125880328087 0.092089673910710323 0.16705473299582779
v -0.30449125880328087 0.092089673910710323 0.22297718639666225
v -0.24856880540244647 -0.4112124066967997 0.16705473299582779
v -0.24856880540244647 -0.4112124066967997 0.22297718639666225
v -0.24856880540244647 -0.4112124066967997 0.27889963979749671
v -0.24856880540244647 -0.4112124066967997 0.33482209319833112
v -0.24856880540244647 -0.35528995329596524 0.11113227959499336
v -0.24856880540244647 -0.35528995329596524 0.16705473299582779
v -0.24856880540244647 -0.35528995329596524 0.22297718639666225
v -0.24856880540244647 -0.35528995329596524 0.27889963979749671
v -0.24856880540244647 -0.35528995329596524 0.33482209319833112
v -0.24856880540244647 -0.29936749989513078 0.11113227959499336
v -0.24856880540244647 -0.29936749989513078 0.16705473299582779
v -0.24856880540244647 -0.29936749989513078 0.22297718639666225
v -0.24856880540244647 -0.29936749989513078 0.27889963979749671
v -0.24856880540244647 -0.29936749989513078 0.33482209319833112
v -0.24856880540244647 -0.24344504649429638 0.11113227959499336
v -0.24856880540244647 -0.24344504649429638 0.22297718639666225
v -0.24856880540244647 -0.24344504649429638 0.27889963979749671
v -0.24856880540244647 -0.24344504649429638 0.33482209319833112
v -0.24856880540244647 -0.18752259309346192 0.055209826194158915
v -0.24856880540244647 -0.18752259309346192 0.11113227959499336
v -0.24856880540244647 -0.18752259309346192 0.33482209319833112
v -0.24856880540244647 -0.13160013969262746 -0.00071262720667553126
v -0.24856880540244647 -0.13160013969262746 0.055209826194158915
v -0.24856880540244647 -0.13160013969262746 0.27889963979749671
v -0.24856880540244647 -0.13160013969262746 0.33482209319833112
v -0.24856880540244647 -0.075677686291793056 -0.00071262720667553126
v -0.24856880540244647 -0.075677686291793056 0.055209826194158915
v -0.24856880540244647 -0.075677686291793056 0.27889963979749671
v -0.24856880540244647 -0.019755232890958596 -0.00071262720667553126
v -0.24856880540244647 -0.019755232890958596 0.27889963979749671
v -0.24856880540244647 0.036167220509875864 -0.00071262720667553126
v -0.24856880540244647 0.036167220509875864 0.055209826194158915
v -0.24856880540244647 0.036167220509875864 0.11113227959499336
v -0.24856880540244647 0.036167220509875864 0.16705473299582779
v -0.24856880540244647 0.036167220509875864 0.22297718639666225
v -0.24856880540244647 0.036167220509875864 0.27889963979749671
v -0.24856880540244647 0.092089673910710323 0.11113227959499336
v -0.24856880540244647 0.092089673910710323 0.16705473299582779
v -0.24856880540244647 0.092089673910710323 0.22297718639666225
v -0.24856880540244647 0.14801212731154478 0.055209826194158915
v -0.24856880540244647 0.14801212731154478 0.11113227959499336
v -0.24856880540244647 0.14801212731154478 0.16705473299582779
v -0.24856880540244647 0.14801212731154478 0.22297718639666225
v -0.24856880540244647 0.20393458071237924 0.055209826194158915
v -0.24856880540244647 0.20393458071237924 0.11113227959499336
v -0.24856880540244647 0.20393458071237924 0.16705473299582779
v -0.24856880540244647 0.20393458071237924 0.22297718639666225
v -0.24856880540244647 0.25985703411321359 0.055209826194158915
v -0.24856880540244647 0.25985703411321359 0.11113227959499336
v -0.24856880540244647 0.25985703411321359 0.16705473299582779
v -0.24856880540244647 0.25985703411321359 0.22297718639666225
v -0.24856880540244647 0.31577948751404805 0.055209826194158915
v -0.24856880540244647 0.31577948751404805 0.11113227959499336
v -0.24856880540244647 0.31577948751404805 0.16705473299582779
v -0.24856880540244647 0.31577948751404805 0.22297718639666225
v -0.24856880540244647 0.37170194091488251 0.055209826194158915
v -0.24856880540244647 0.37170194091488251 0.11113227959499336
v -0.24856880540244647 0.37170194091488251 0.16705473299582779
v -0.24856880540244647 0.37170194091488251 0.22297718639666225
v -0.24856880540244647 0.42762439431571697 0.11113227959499336
v -0.24856880540244647 0.42762439431571697 0.16705473299582779
v -0.19264635200161201 -0.4112124066967997 0.16705473299582779
v -0.19264635200161201 -0.4112124066967997 0.22297718639666225
v -0.19264635200161201 -0.4112124066967997 0.27889963979749671
v -0.19264635200161201 -0.4112124066967997 0.33482209319833112
v -0.19264635200161201 -0.4112124066967997 0.39074454659916558
v -0.19264635200161201 -0.35528995329596524 0.11113227959499336
v -0.19264635200161201 -0.35528995329596524 0.16705473299582779
v -0.19264635200161201 -0.35528995329596524 0.22297718639666225
v -0.19264635200161201 -0.35528995329596524 0.33482209319833112
v -0.19264635200161201 -0.35528995329596524 0.39074454659916558
v -0.19264635200161201 -0.29936749989513078 0.11113227959499336
v -0.19264635200161201 -0.29936749989513078 0.16705473299582779
v -0.19264635200161201 -0.29936749989513078 0.22297718639666225
v -0.19264635200161201 -0.29936749989513078 0.27889963979749671
v -0.19264635200161201 -0.29936749989513078 0.33482209319833112
v -0.19264635200161201 -0.29936749989513078 0.39074454659916558
v -0.19264635200161201 -0.24344504649429638 0.11113227959499336
v -0.19264635200161201 -0.24344504649429638 0.22297718639666225
v -0.19264635200161201 -0.24344504649429638 0.27889963979749671
v -0.19264635200161201 -0.24344504649429638 0.33482209319833112
v -0.19264635200161201 -0.24344504649429638 0.39074454659916558
v -0.19264635200161201 -0.18752259309346192 0.055209826194158915
v -0.19264635200161201 -0.18752259309346192 0.11113227959499336
v -0.19264635200161201 -0.18752259309346192 0.33482209319833112
v -0.19264635200161201 -0.13160013969262746 0.055209826194158915
v -0.19264635200161201 -0.13160013969262746 0.27889963979749671
v -0.19264635200161201 -0.13160013969262746 0.33482209319833112
v -0.19264635200161201 -0.075677686291793056 -0.00071262720667553126
v -0.19264635200161201 -0.075677686291793056 0.055209826194158915
v -0.19264635200161201 -0.075677686291793056 0.27889963979749671
v -0.19264635200161201 -0.075677686291793056 0.33482209319833112
v -0.19264635200161201 -0.019755232890958596 -0.00071262720667553126
v -0.19264635200161201 -0.019755232890958596 0.27889963979749671
v -0.19264635200161201 0.036167220509875864 -0.00071262720667553126
v -0.19264635200161201 0.036167220509875864 0.055209826194158915
v -0.19264635200161201 0.036167220509875864 0.11113227959499336
v -0.19264635200161201 0.036167220509875864 0.16705473299582779
v -0.19264635200161201 0.036167220509875864 0.22297718639666225
v -0.19264635200161201 0.036167220509875864 0.27889963979749671
v -0.19264635200161201 0.092089673910710323 0.055209826194158915
v -0.19264635200161201 0.092089673910710323 0.11113227959499336
v -0.19264635200161201 0.092089673910710323 0.16705473299582779
v -0.19264635200161201 0.092089673910710323 0.22297718639666225
v -0.19264635200161201 0.14801212731154478 0.055209826194158915
v -0.19264635200161201 0.14801212731154478 0.11113227959499336
v -0.19264635200161201 0.14801212731154478 0.16705473299582779
v -0.19264635200161201 0.14801212731154478 0.22297718639666225
v -0.19264635200161201 0.14801212731154478 0.27889963979749671
v -0.19264635200161201 0.20393458071237924 0.055209826194158915
v -0.19264635200161201 0.20393458071237924 0.22297718639666225
v -0.19264635200161201 0.20393458071237924 0.27889963979749671
v -0.19264635200161201 0.25985703411321359 0.055209826194158915
v -0.19264635200161201 0.25985703411321359 0.22297718639666225
v -0.19264635200161201 0.25985703411321359 0.27889963979749671
v -0.19264635200161201 0.31577948751404805 0.055209826194158915
v -0.19264635200161201 0.31577948751404805 0.22297718639666225
v -0.19264635200161201 0.31577948751404805 0.27889963979749671
v -0.19264635200161201 0.37170194091488251 0.055209826194158915
v -0.19264635200161201 0.37170194091488251 0.11113227959499336
v -0.19264635200161201 0.37170194091488251 0.16705473299582779
v -0.19264635200161201 0.37170194091488251 0.22297718639666225
v -0.19264635200161201 0.37170194091488251 0.27889963979749671
v -0.19264635200161201 0.42762439431571697 0.055209826194158915
v -0.19264635200161201 0.42762439431571697 0.11113227959499336
v -0.19264635200161201 0.42762439431571697 0.16705473299582779
v -0.19264635200161201 0.42762439431571697 0.22297718639666225
v -0.19264635200161201 0.48354684771655143 0.11113227959499336
v -0.19264635200161201 0.48354684771655143 0.16705473299582779
v -0.19264635200161201 0.48354684771655143 0.22297718639666225
v -0.19264635200161201 0.53946930111738589 0.11113227959499336
v -0.19264635200161201 0.53946930111738589 0.16705473299582779
v -0.19264635200161201 0.53946930111738589 0.22297718639666225
v -0.19264635200161201 0.59539175451822035 0.16705473299582779
v -0.19264635200161201 0.59539175451822035 0.22297718639666225
v -0.13672389860077755 -0.4112124066967997 0.16705473299582779
v -0.13672389860077755 -0.4112124066967997 0.22297718639666225
v -0.13672389860077755 -0.4112124066967997 0.27889963979749671
v -0.13672389860077755 -0.4112124066967997 0.33482209319833112
v -0.13672389860077755 -0.4112124066967997 0.39074454659916558
v -0.13672389860077755 -0.35528995329596524 0.16705473299582779
v -0.13672389860077755 -0.35528995329596524 0.27889963979749671
v -0.13672389860077755 -0.35528995329596524 0.33482209319833112
v -0.13672389860077755 -0.35528995329596524 0.39074454659916558
v -0.13672389860077755 -0.29936749989513078 0.11113227959499336
v -0.13672389860077755 -0.29936749989513078 0.16705473299582779
v -0.13672389860077755 -0.29936749989513078 0.27889963979749671
v -0.13672389860077755 -0.29936749989513078 0.33482209319833112
v -0.13672389860077755 -0.29936749989513078 0.39074454659916558
v -0.13672389860077755 -0.24344504649429638 0.11113227959499336
v -0.13672389860077755 -0.24344504649429638 0.22297718639666225
v -0.13672389860077755 -0.24344504649429638 0.27889963979749671
v -0.13672389860077755 -0.24344504649429638 0.33482209319833112
v -0.13672389860077755 -0.24344504649429638 0.39074454659916558
v -0.13672389860077755 -0.18752259309346192 0.055209826194158915
v -0.13672389860077755 -0.18752259309346192 0.11113227959499336
v -0.13672389860077755 -0.18752259309346192 0.22297718639666225
v -0.13672389860077755 -0.18752259309346192 0.27889963979749671
v -0.13672389860077755 -0.18752259309346192 0.33482209319833112
v -0.13672389860077755 -0.13160013969262746 0.055209826194158915
v -0.13672389860077755 -0.13160013969262746 0.11113227959499336
v -0.13672389860077755 -0.13160013969262746 0.27889963979749671
v -0.13672389860077755 -0.13160013969262746 0.33482209319833112
v -0.13672389860077755 -0.075677686291793056 -0.00071262720667553126
v -0.13672389860077755 -0.075677686291793056 0.055209826194158915
v -0.13672389860077755 -0.075677686291793056 0.27889963979749671
v -0.13672389860077755 -0.075677686291793056 0.33482209319833112
v -0.13672389860077755 -0.019755232890958596 -0.00071262720667553126
v -0.13672389860077755 -0.019755232890958596 0.055209826194158915
v -0.13672389860077755 -0.019755232890958596 0.22297718639666225
v -0.13672389860077755 -0.019755232890958596 0.27889963979749671
v -0.13672389860077755 0.036167220509875864 -0.00071262720667553126
v -0.13672389860077755 0.036167220509875864 0.055209826194158915
v -0.13672389860077755 0.036167220509875864 0.11113227959499336
v -0.13672389860077755 0.036167220509875864 0.22297718639666225
v -0.13672389860077755 0.036167220509875864 0.27889963979749671
v -0.13672389860077755 0.092089673910710323 0.055209826194158915
v -0.13672389860077755 0.092089673910710323 0.11113227959499336
v -0.13672389860077755 0.092089673910710323 0.22297718639666225
v -0.13672389860077755 0.092089673910710323 0.27889963979749671
v -0.13672389860077755 0.14801212731154478 0.055209826194158915
v -0.13672389860077755 0.14801212731154478 0.22297718639666225
v -0.13672389860077755 0.14801212731154478 0.27889963979749671
v -0.13672389860077755 0.20393458071237924 0.055209826194158915
v -0.13672389860077755 0.20393458071237924 0.27889963979749671
v -0.13672389860077755 0.25985703411321359 0.055209826194158915
v -0.13672389860077755 0.25985703411321359 0.27889963979749671
v -0.13672389860077755 0.31577948751404805 0.055209826194158915
v -0.13672389860077755 0.31577948751404805 0.27889963979749671
v -0.13672389860077755 0.37170194091488251 0.055209826194158915
v -0.13672389860077755 0.37170194091488251 0.22297718639666225
v -0.13672389860077755 0.37170194091488251 0.27889963979749671
v -0.13672389860077755 0.42762439431571697 0.055209826194158915
v -0.13672389860077755 0.42762439431571697 0.11113227959499336
v -0.13672389860077755 0.42762439431571697 0.22297718639666225
v -0.13672389860077755 0.42762439431571697 0.27889963979749671
v -0.13672389860077755 0.48354684771655143 0.11113227959499336
v -0.13672389860077755 0.48354684771655143 0.22297718639666225
v -0.13672389860077755 0.53946930111738589 0.11113227959499336
v -0.13672389860077755 0.53946930111738589 0.16705473299582779
v -0.13672389860077755 0.53946930111738589 0.22297718639666225
v -0.13672389860077755 0.59539175451822035 0.11113227959499336
v -0.13672389860077755 0.59539175451822035 0.16705473299582779
v -0.13672389860077755 0.59539175451822035 0.22297718639666225
v -0.080801445199943145 -0.4112124066967997 0.16705473299582779
v -0.080801445199943145 -0.4112124066967997 0.22297718639666225
v -0.080801445199943145 -0.4112124066967997 0.27889963979749671
v -0.080801445199943145 -0.35528995329596524 0.16705473299582779
v -0.080801445199943145 -0.35528995329596524 0.22297718639666225
v -0.080801445199943145 -0.35528995329596524 0.27889963979749671
v -0.080801445199943145 -0.35528995329596524 0.33482209319833112
v -0.080801445199943145 -0.35528995329596524 0.39074454659916558
v -0.080801445199943145 -0.29936749989513078 0.11113227959499336
v -0.080801445199943145 -0.29936749989513078 0.16705473299582779
v -0.080801445199943145 -0.29936749989513078 0.22297718639666225
v -0.080801445199943145 -0.29936749989513078 0.27889963979749671
v -0.080801445199943145 -0.29936749989513078 0.33482209319833112
v -0.080801445199943145 -0.29936749989513078 0.39074454659916558
v -0.080801445199943145 -0.24344504649429638 0.11113227959499336
v -0.080801445199943145 -0.24344504649429638 0.16705473299582779
v -0.080801445199943145 -0.24344504649429638 0.22297718639666225
v -0.080801445199943145 -0.24344504649429638 0.27889963979749671
v -0.080801445199943145 -0.24344504649429638 0.33482209319833112
v -0.080801445199943145 -0.24344504649429638 0.39074454659916558
v -0.080801445199943145 -0.18752259309346192 0.11113227959499336
v -0.080801445199943145 -0.18752259309346192 0.22297718639666225
v -0.080801445199943145 -0.18752259309346192 0.27889963979749671
v -0.080801445199943145 -0.13160013969262746 0.055209826194158915
v -0.080801445199943145 -0.13160013969262746 0.11113227959499336
v -0.080801445199943145 -0.13160013969262746 0.27889963979749671
v -0.080801445199943145 -0.075677686291793056 0.055209826194158915
v -0.080801445199943145 -0.075677686291793056 0.27889963979749671
v -0.080801445199943145 -0.019755232890958596 0.055209826194158915
v -0.080801445199943145 -0.019755232890958596 0.11113227959499336
v -0.080801445199943145 -0.019755232890958596 0.22297718639666225
v -0.080801445199943145 -0.019755232890958596 0.27889963979749671
v -0.080801445199943145 0.036167220509875864 0.055209826194158915
v -0.080801445199943145 0.036167220509875864 0.11113227959499336
v -0.080801445199943145 0.036167220509875864 0.22297718639666225
v -0.080801445199943145 0.036167220509875864 0.27889963979749671
v -0.080801445199943145 0.092089673910710323 0.055209826194158915
v -0.080801445199943145 0.092089673910710323 0.27889963979749671
v -0.080801445199943145 0.14801212731154478 0.055209826194158915
v -0.080801445199943145 0.14801212731154478 0.27889963979749671
v -0.080801445199943145 0.20393458071237924 0.055209826194158915
v -0.080801445199943145 0.20393458071237924 0.22297718639666225
v -0.080801445199943145 0.20393458071237924 0.27889963979749671
v -0.080801445199943145 0.25985703411321359 0.055209826194158915
v -0.080801445199943145 0.25985703411321359 0.22297718639666225
v -0.080801445199943145 0.25985703411321359 0.27889963979749671
v -0.080801445199943145 0.25985703411321359 0.33482209319833112
v -0.080801445199943145 0.31577948751404805 0.055209826194158915
v -0.080801445199943145 0.31577948751404805 0.27889963979749671
v -0.080801445199943145 0.31577948751404805 0.33482209319833112
v -0.080801445199943145 0.37170194091488251 0.055209826194158915
v -0.080801445199943145 0.37170194091488251 0.27889963979749671
v -0.080801445199943145 0.37170194091488251 0.33482209319833112
v -0.080801445199943145 0.42762439431571697 0.055209826194158915
v -0.080801445199943145 0.42762439431571697 0.11113227959499336
v -0.080801445199943145 0.42762439431571697 0.22297718639666225
v -0.080801445199943145 0.42762439431571697 0.27889963979749671
v -0.080801445199943145 0.48354684771655143 0.11113227959499336
v -0.080801445199943145 0.48354684771655143 0.22297718639666225
v -0.080801445199943145 0.48354684771655143 0.27889963979749671
v -0.080801445199943145 0.53946930111738589 0.11113227959499336
v -0.080801445199943145 0.53946930111738589 0.16705473299582779
v -0.080801445199943145 0.53946930111738589 0.22297718639666225
v -0.080801445199943145 0.59539175451822035 0.11113227959499336
v -0.080801445199943145 0.59539175451822035 0.16705473299582779
v -0.080801445199943145 0.59539175451822035 0.22297718639666225
v -0.024878991799108685 -0.29936749989513078 0.11113227959499336
v -0.024878991799108685 -0.29936749989513078 0.16705473299582779
v -0.024878991799108685 -0.29936749989513078 0.22297718639666225
v -0.024878991799108685 -0.29936749989513078 0.27889963979749671
v -0.024878991799108685 -0.29936749989513078 0.33482209319833112
v -0.024878991799108685 -0.24344504649429638 0.11113227959499336
v -0.024878991799108685 -0.24344504649429638 0.16705473299582779
v -0.024878991799108685 -0.24344504649429638 0.27889963979749671
v -0.024878991799108685 -0.24344504649429638 0.33482209319833112
v -0.024878991799108685 -0.18752259309346192 0.11113227959499336
v -0.024878991799108685 -0.18752259309346192 0.27889963979749671
v -0.024878991799108685 -0.18752259309346192 0.33482209319833112
v -0.024878991799108685 -0.13160013969262746 0.055209826194158915
v -0.024878991799108685 -0.13160013969262746 0.11113227959499336
v -0.024878991799108685 -0.13160013969262746 0.27889963979749671
v -0.024878991799108685 -0.13160013969262746 0.33482209319833112
v -0.024878991799108685 -0.075677686291793056 0.055209826194158915
v -0.024878991799108685 -0.075677686291793056 0.11113227959499336
v -0.024878991799108685 -0.075677686291793056 0.27889963979749671
v -0.024878991799108685 -0.019755232890958596 0.055209826194158915
v -0.024878991799108685 -0.019755232890958596 0.11113227959499336
v -0.024878991799108685 -0.019755232890958596 0.22297718639666225
v -0.024878991799108685 -0.019755232890958596 0.27889963979749671
v -0.024878991799108685 0.036167220509875864 0.055209826194158915
v -0.024878991799108685 0.036167220509875864 0.11113227959499336
v -0.024878991799108685 0.036167220509875864 0.22297718639666225
v -0.024878991799108685 0.036167220509875864 0.27889963979749671
v -0.024878991799108685 0.092089673910710323 0.055209826194158915
v -0.024878991799108685 0.092089673910710323 0.27889963979749671
v -0.024878991799108685 0.14801212731154478 0.055209826194158915
v -0.024878991799108685 0.14801212731154478 0.27889963979749671
v -0.024878991799108685 0.20393458071237924 0.055209826194158915
v -0.024878991799108685 0.20393458071237924 0.11113227959499336
v -0.024878991799108685 0.20393458071237924 0.22297718639666225
v -0.024878991799108685 0.20393458071237924 0.27889963979749671
v -0.024878991799108685 0.25985703411321359 0.055209826194158915
v -0.024878991799108685 0.25985703411321359 0.11113227959499336
v -0.024878991799108685 0.25985703411321359 0.22297718639666225
v -0.024878991799108685 0.25985703411321359 0.27889963979749671
v -0.024878991799108685 0.25985703411321359 0.33482209319833112
v -0.024878991799108685 0.31577948751404805 0.055209826194158915
v -0.024878991799108685 0.31577948751404805 0.33482209319833112
v -0.024878991799108685 0.31577948751404805 0.39074454659916558
v -0.024878991799108685 0.37170194091488251 0.055209826194158915
v -0.024878991799108685 0.37170194091488251 0.27889963979749671
v -0.024878991799108685 0.37170194091488251 0.33482209319833112
v -0.024878991799108685 0.37170194091488251 0.39074454659916558
v -0.024878991799108685 0.42762439431571697 0.055209826194158915
v -0.024878991799108685 0.42762439431571697 0.11113227959499336
v -0.024878991799108685 0.42762439431571697 0.27889963979749671
v -0.024878991799108685 0.48354684771655143 0.11113227959499336
v -0.024878991799108685 0.48354684771655143 0.22297718639666225
v -0.024878991799108685 0.48354684771655143 0.27889963979749671
v -0.024878991799108685 0.53946930111738589 0.11113227959499336
v -0.024878991799108685 0.53946930111738589 0.16705473299582779
v -0.024878991799108685 0.53946930111738589 0.22297718639666225
v -0.024878991799108685 0.53946930111738589 0.27889963979749671
v -0.024878991799108685 0.59539175451822035 0.16705473299582779
v -0.024878991799108685 0.59539175451822035 0.22297718639666225
v 0.031043461601725775 -0.35528995329596524 0.16705473299582779
v 0.031043461601725775 -0.35528995329596524 0.22297718639666225
v 0.031043461601725775 -0.35528995329596524 0.27889963979749671
v 0.031043461601725775 -0.29936749989513078 0.11113227959499336
v 0.031043461601725775 -0.29936749989513078 0.16705473299582779
v 0.031043461601725775 -0.29936749989513078 0.22297718639666225
v 0.031043461601725775 -0.29936749989513078 0.27889963979749671
v 0.031043461601725775 -0.29936749989513078 0.33482209319833112
v 0.031043461601725775 -0.24344504649429638 0.11113227959499336
v 0.031043461601725775 -0.24344504649429638 0.33482209319833112
v 0.031043461601725775 -0.18752259309346192 0.11113227959499336
v 0.031043461601725775 -0.18752259309346192 0.33482209319833112
v 0.031043461601725775 -0.13160013969262746 0.11113227959499336
v 0.031043461601725775 -0.13160013969262746 0.27889963979749671
v 0.031043461601725775 -0.13160013969262746 0.33482209319833112
v 0.031043461601725775 -0.075677686291793056 0.11113227959499336
v 0.031043461601725775 -0.075677686291793056 0.27889963979749671
v 0.031043461601725775 -0.075677686291793056 0.33482209319833112
v 0.031043461601725775 -0.019755232890958596 0.055209826194158915
v 0.031043461601725775 -0.019755232890958596 0.11113227959499336
v 0.031043461601725775 -0.019755232890958596 0.27889963979749671
v 0.031043461601725775 0.036167220509875864 0.055209826194158915
v 0.031043461601725775 0.036167220509875864 0.27889963979749671
v 0.031043461601725775 0.092089673910710323 0.055209826194158915
v 0.031043461601725775 0.092089673910710323 0.27889963979749671
v 0.031043461601725775 0.14801212731154478 0.055209826194158915
v 0.031043461601725775 0.14801212731154478 0.22297718639666225
v 0.031043461601725775 0.14801212731154478 0.27889963979749671
v 0.031043461601725775 0.20393458071237924 0.055209826194158915
v 0.031043461601725775 0.20393458071237924 0.11113227959499336
v 0.031043461601725775 0.20393458071237924 0.22297718639666225
v 0.031043461601725775 0.20393458071237924 0.27889963979749671
v 0.031043461601725775 0.25985703411321359 0.055209826194158915
v 0.031043461601725775 0.25985703411321359 0.11113227959499336
v 0.031043461601725775 0.25985703411321359 0.22297718639666225
v 0.031043461601725775 0.25985703411321359 0.27889963979749671
v 0.031043461601725775 0.25985703411321359 0.33482209319833112
v 0.031043461601725775 0.25985703411321359 0.39074454659916558
v 0.031043461601725775 0.31577948751404805 0.055209826194158915
v 0.031043461601725775 0.31577948751404805 0.33482209319833112
v 0.031043461601725775 0.31577948751404805 0.39074454659916558
v 0.031043461601725775 0.31577948751404805 0.44666700000000004
v 0.031043461601725775 0.37170194091488251 0.055209826194158915
v 0.031043461601725775 0.37170194091488251 0.22297718639666225
v 0.031043461601725775 0.37170194091488251 0.27889963979749671
v 0.031043461601725775 0.37170194091488251 0.33482209319833112
v 0.031043461601725775 0.37170194091488251 0.39074454659916558
v 0.031043461601725775 0.37170194091488251 0.44666700000000004
v 0.031043461601725775 0.42762439431571697 0.055209826194158915
v 0.031043461601725775 0.42762439431571697 0.11113227959499336
v 0.031043461601725775 0.42762439431571697 0.16705473299582779
v 0.031043461601725775 0.42762439431571697 0.22297718639666225
v 0.031043461601725775 0.42762439431571697 0.27889963979749671
v 0.031043461601725775 0.42762439431571697 0.33482209319833112
v 0.031043461601725775 0.48354684771655143 0.11113227959499336
v 0.031043461601725775 0.48354684771655143 0.16705473299582779
v 0.031043461601725775 0.48354684771655143 0.27889963979749671
v 0.031043461601725775 0.48354684771655143 0.33482209319833112
v 0.031043461601725775 0.53946930111738589 0.11113227959499336
v 0.031043461601725775 0.53946930111738589 0.16705473299582779
v 0.031043461601725775 0.53946930111738589 0.22297718639666225
v 0.031043461601725775 0.53946930111738589 0.27889963979749671
v 0.031043461601725775 0.53946930111738589 0.33482209319833112
v 0.086965915002560235 -0.35528995329596524 0.16705473299582779
v 0.086965915002560235 -0.35528995329596524 0.22297718639666225
v 0.086965915002560235 -0.35528995329596524 0.27889963979749671
v 0.086965915002560235 -0.29936749989513078 0.055209826194158915
v 0.086965915002560235 -0.29936749989513078 0.11113227959499336
v 0.086965915002560235 -0.29936749989513078 0.16705473299582779
v 0.086965915002560235 -0.29936749989513078 0.27889963979749671
v 0.086965915002560235 -0.29936749989513078 0.33482209319833112
v 0.086965915002560235 -0.24344504649429638 0.055209826194158915
v 0.086965915002560235 -0.24344504649429638 0.11113227959499336
v 0.086965915002560235 -0.24344504649429638 0.33482209319833112
v 0.086965915002560235 -0.18752259309346192 0.055209826194158915
v 0.086965915002560235 -0.18752259309346192 0.11113227959499336
v 0.086965915002560235 -0.18752259309346192 0.33482209319833112
v 0.086965915002560235 -0.18752259309346192 0.39074454659916558
v 0.086965915002560235 -0.13160013969262746 0.055209826194158915
v 0.086965915002560235 -0.13160013969262746 0.11113227959499336
v 0.086965915002560235 -0.13160013969262746 0.33482209319833112
v 0.086965915002560235 -0.13160013969262746 0.39074454659916558
v 0.086965915002560235 -0.075677686291793056 0.055209826194158915
v 0.086965915002560235 -0.075677686291793056 0.11113227959499336
v 0.086965915002560235 -0.075677686291793056 0.27889963979749671
v 0.086965915002560235 -0.075677686291793056 0.33482209319833112
v 0.086965915002560235 -0.075677686291793056 0.39074454659916558
v 0.086965915002560235 -0.019755232890958596 0.055209826194158915
v 0.086965915002560235 -0.019755232890958596 0.11113227959499336
v 0.086965915002560235 -0.019755232890958596 0.27889963979749671
v 0.086965915002560235 -0.019755232890958596 0.33482209319833112
v 0.086965915002560235 -0.019755232890958596 0.39074454659916558
v 0.086965915002560235 0.036167220509875864 0.055209826194158915
v 0.086965915002560235 0.036167220509875864 0.27889963979749671
v 0.086965915002560235 0.036167220509875864 0.33482209319833112
v 0.086965915002560235 0.092089673910710323 0.055209826194158915
v 0.086965915002560235 0.092089673910710323 0.27889963979749671
v 0.086965915002560235 0.092089673910710323 0.33482209319833112
v 0.086965915002560235 0.14801212731154478 0.055209826194158915
v 0.086965915002560235 0.14801212731154478 0.11113227959499336
v 0.086965915002560235 0.14801212731154478 0.22297718639666225
v 0.086965915002560235 0.14801212731154478 0.27889963979749671
v 0.086965915002560235 0.20393458071237924 0.055209826194158915
v 0.086965915002560235 0.20393458071237924 0.11113227959499336
v 0.086965915002560235 0.20393458071237924 0.22297718639666225
v 0.086965915002560235 0.20393458071237924 0.27889963979749671
v 0.086965915002560235 0.20393458071237924 0.33482209319833112
v 0.086965915002560235 0.25985703411321359 0.055209826194158915
v 0.086965915002560235 0.25985703411321359 0.22297718639666225
v 0.086965915002560235 0.25985703411321359 0.27889963979749671
v 0.086965915002560235 0.25985703411321359 0.33482209319833112
v 0.086965915002560235 0.25985703411321359 0.39074454659916558
v 0.086965915002560235 0.25985703411321359 0.44666700000000004
v 0.086965915002560235 0.31577948751404805 0.055209826194158915
v 0.086965915002560235 0.31577948751404805 0.39074454659916558
v 0.086965915002560235 0.31577948751404805 0.44666700000000004
v 0.086965915002560235 0.37170194091488251 0.055209826194158915
v 0.086965915002560235 0.37170194091488251 0.11113227959499336
v 0.086965915002560235 0.37170194091488251 0.22297718639666225
v 0.086965915002560235 0.37170194091488251 0.27889963979749671
v 0.086965915002560235 0.37170194091488251 0.33482209319833112
v 0.086965915002560235 0.37170194091488251 0.39074454659916558
v 0.086965915002560235 0.37170194091488251 0.44666700000000004
v 0.086965915002560235 0.42762439431571697 0.055209826194158915
v 0.086965915002560235 0.42762439431571697 0.11113227959499336
v 0.086965915002560235 0.42762439431571697 0.16705473299582779
v 0.086965915002560235 0.42762439431571697 0.22297718639666225
v 0.086965915002560235 0.42762439431571697 0.27889963979749671
v 0.086965915002560235 0.42762439431571697 0.33482209319833112
v 0.086965915002560235 0.42762439431571697 0.39074454659916558
v 0.086965915002560235 0.48354684771655143 0.16705473299582779
v 0.086965915002560235 0.48354684771655143 0.33482209319833112
v 0.086965915002560235 0.48354684771655143 0.39074454659916558
v 0.086965915002560235 0.53946930111738589 0.16705473299582779
v 0.086965915002560235 0.53946930111738589 0.22297718639666225
v 0.086965915002560235 0.53946930111738589 0.27889963979749671
v 0.086965915002560235 0.53946930111738589 0.33482209319833112
v 0.086965915002560235 0.53946930111738589 0.39074454659916558
v 0.14288836840339469 -0.35528995329596524 0.16705473299582779
v 0.14288836840339469 -0.35528995329596524 0.22297718639666225
v 0.14288836840339469 -0.35528995329596524 0.27889963979749671
v 0.14288836840339469 -0.29936749989513078 0.055209826194158915
v 0.14288836840339469 -0.29936749989513078 0.11113227959499336
v 0.14288836840339469 -0.29936749989513078 0.16705473299582779
v 0.14288836840339469 -0.29936749989513078 0.27889963979749671
v 0.14288836840339469 -0.29936749989513078 0.33482209319833112
v 0.14288836840339469 -0.24344504649429638 0.055209826194158915
v 0.14288836840339469 -0.24344504649429638 0.33482209319833112
v 0.14288836840339469 -0.24344504649429638 0.39074454659916558
v 0.14288836840339469 -0.18752259309346192 0.055209826194158915
v 0.14288836840339469 -0.18752259309346192 0.33482209319833112
v 0.14288836840339469 -0.18752259309346192 0.39074454659916558
v 0.14288836840339469 -0.18752259309346192 0.44666700000000004
v 0.14288836840339469 -0.13160013969262746 0.055209826194158915
v 0.14288836840339469 -0.13160013969262746 0.39074454659916558
v 0.14288836840339469 -0.13160013969262746 0.44666700000000004
v 0.14288836840339469 -0.075677686291793056 0.055209826194158915
v 0.14288836840339469 -0.075677686291793056 0.39074454659916558
v 0.14288836840339469 -0.075677686291793056 0.44666700000000004
v 0.14288836840339469 -0.019755232890958596 0.055209826194158915
v 0.14288836840339469 -0.019755232890958596 0.33482209319833112
v 0.14288836840339469 -0.019755232890958596 0.39074454659916558
v 0.14288836840339469 0.036167220509875864 0.055209826194158915
v 0.14288836840339469 0.036167220509875864 0.33482209319833112
v 0.14288836840339469 0.036167220509875864 0.39074454659916558
v 0.14288836840339469 0.092089673910710323 0.055209826194158915
v 0.14288836840339469 0.092089673910710323 0.27889963979749671
v 0.14288836840339469 0.092089673910710323 0.33482209319833112
v 0.14288836840339469 0.14801212731154478 0.055209826194158915
v 0.14288836840339469 0.14801212731154478 0.11113227959499336
v 0.14288836840339469 0.14801212731154478 0.22297718639666225
v 0.14288836840339469 0.14801212731154478 0.27889963979749671
v 0.14288836840339469 0.20393458071237924 -0.00071262720667553126
v 0.14288836840339469 0.20393458071237924 0.055209826194158915
v 0.14288836840339469 0.20393458071237924 0.11113227959499336
v 0.14288836840339469 0.20393458071237924 0.22297718639666225
v 0.14288836840339469 0.20393458071237924 0.27889963979749671
v 0.14288836840339469 0.20393458071237924 0.33482209319833112
v 0.14288836840339469 0.25985703411321359 -0.00071262720667553126
v 0.14288836840339469 0.25985703411321359 0.055209826194158915
v 0.14288836840339469 0.25985703411321359 0.33482209319833112
v 0.14288836840339469 0.25985703411321359 0.39074454659916558
v 0.14288836840339469 0.25985703411321359 0.44666700000000004
v 0.14288836840339469 0.31577948751404805 -0.00071262720667553126
v 0.14288836840339469 0.31577948751404805 0.055209826194158915
v 0.14288836840339469 0.31577948751404805 0.44666700000000004
v 0.14288836840339469 0.37170194091488251 0.055209826194158915
v 0.14288836840339469 0.37170194091488251 0.11113227959499336
v 0.14288836840339469 0.37170194091488251 0.33482209319833112
v 0.14288836840339469 0.37170194091488251 0.39074454659916558
v 0.14288836840339469 0.37170194091488251 0.44666700000000004
v 0.14288836840339469 0.42762439431571697 0.11113227959499336
v 0.14288836840339469 0.42762439431571697 0.16705473299582779
v 0.14288836840339469 0.42762439431571697 0.22297718639666225
v 0.14288836840339469 0.42762439431571697 0.33482209319833112
v 0.14288836840339469 0.42762439431571697 0.39074454659916558
v 0.14288836840339469 0.48354684771655143 0.16705473299582779
v 0.14288836840339469 0.48354684771655143 0.22297718639666225
v 0.14288836840339469 0.48354684771655143 0.39074454659916558
v 0.14288836840339469 0.53946930111738589 0.16705473299582779
v 0.14288836840339469 0.53946930111738589 0.22297718639666225
v 0.14288836840339469 0.53946930111738589 0.27889963979749671
v 0.14288836840339469 0.53946930111738589 0.33482209319833112
v 0.14288836840339469 0.53946930111738589 0.39074454659916558
v 0.19881082180422915 -0.35528995329596524 0.055209826194158915
v 0.19881082180422915 -0.35528995329596524 0.11113227959499336
v 0.19881082180422915 -0.35528995329596524 0.16705473299582779
v 0.19881082180422915 -0.35528995329596524 0.22297718639666225
v 0.19881082180422915 -0.35528995329596524 0.27889963979749671
v 0.19881082180422915 -0.29936749989513078 -0.00071262720667553126
v 0.19881082180422915 -0.29936749989513078 0.055209826194158915
v 0.19881082180422915 -0.29936749989513078 0.11113227959499336
v 0.19881082180422915 -0.29936749989513078 0.16705473299582779
v 0.19881082180422915 -0.29936749989513078 0.27889963979749671
v 0.19881082180422915 -0.29936749989513078 0.33482209319833112
v 0.19881082180422915 -0.24344504649429638 -0.00071262720667553126
v 0.19881082180422915 -0.24344504649429638 0.055209826194158915
v 0.19881082180422915 -0.24344504649429638 0.33482209319833112
v 0.19881082180422915 -0.24344504649429638 0.39074454659916558
v 0.19881082180422915 -0.24344504649429638 0.44666700000000004
v 0.19881082180422915 -0.18752259309346192 0.055209826194158915
v 0.19881082180422915 -0.18752259309346192 0.39074454659916558
v 0.19881082180422915 -0.18752259309346192 0.44666700000000004
v 0.19881082180422915 -0.13160013969262746 -0.00071262720667553126
v 0.19881082180422915 -0.13160013969262746 0.055209826194158915
v 0.19881082180422915 -0.13160013969262746 0.44666700000000004
v 0.19881082180422915 -0.075677686291793056 -0.00071262720667553126
v 0.19881082180422915 -0.075677686291793056 0.055209826194158915
v 0.19881082180422915 -0.075677686291793056 0.39074454659916558
v 0.19881082180422915 -0.075677686291793056 0.44666700000000004
v 0.19881082180422915 -0.019755232890958596 -0.00071262720667553126
v 0.19881082180422915 -0.019755232890958596 0.055209826194158915
v 0.19881082180422915 -0.019755232890958596 0.39074454659916558
v 0.19881082180422915 0.036167220509875864 -0.00071262720667553126
v 0.19881082180422915 0.036167220509875864 0.055209826194158915
v 0.19881082180422915 0.036167220509875864 0.33482209319833112
v 0.19881082180422915 0.036167220509875864 0.39074454659916558
v 0.19881082180422915 0.092089673910710323 0.055209826194158915
v 0.19881082180422915 0.092089673910710323 0.11113227959499336
v 0.19881082180422915 0.092089673910710323 0.27889963979749671
v 0.19881082180422915 0.092089673910710323 0.33482209319833112
v 0.19881082180422915 0.092089673910710323 0.39074454659916558
v 0.19881082180422915 0.14801212731154478 0.055209826194158915
v 0.19881082180422915 0.14801212731154478 0.11113227959499336
v 0.19881082180422915 0.14801212731154478 0.27889963979749671
v 0.19881082180422915 0.14801212731154478 0.33482209319833112
v 0.19881082180422915 0.14801212731154478 0.39074454659916558
v 0.19881082180422915 0.20393458071237924 -0.00071262720667553126
v 0.19881082180422915 0.20393458071237924 0.055209826194158915
v 0.19881082180422915 0.20393458071237924 0.27889963979749671
v 0.19881082180422915 0.20393458071237924 0.33482209319833112
v 0.19881082180422915 0.20393458071237924 0.39074454659916558
v 0.19881082180422915 0.25985703411321359 -0.00071262720667553126
v 0.19881082180422915 0.25985703411321359 0.33482209319833112
v 0.19881082180422915 0.25985703411321359 0.39074454659916558
v 0.19881082180422915 0.25985703411321359 0.44666700000000004
v 0.19881082180422915 0.31577948751404805 -0.00071262720667553126
v 0.19881082180422915 0.31577948751404805 0.055209826194158915
v 0.19881082180422915 0.31577948751404805 0.39074454659916558
v 0.19881082180422915 0.31577948751404805 0.44666700000000004
v 0.19881082180422915 0.37170194091488251 -0.00071262720667553126
v 0.19881082180422915 0.37170194091488251 0.055209826194158915
v 0.19881082180422915 0.37170194091488251 0.11113227959499336
v 0.19881082180422915 0.37170194091488251 0.39074454659916558
v 0.19881082180422915 0.37170194091488251 0.44666700000000004
v 0.19881082180422915 0.42762439431571697 0.055209826194158915
v 0.19881082180422915 0.42762439431571697 0.11113227959499336
v 0.19881082180422915 0.42762439431571697 0.16705473299582779
v 0.19881082180422915 0.42762439431571697 0.22297718639666225
v 0.19881082180422915 0.42762439431571697 0.39074454659916558
v 0.19881082180422915 0.48354684771655143 0.11113227959499336
v 0.19881082180422915 0.48354684771655143 0.16705473299582779
v 0.19881082180422915 0.48354684771655143 0.22297718639666225
v 0.19881082180422915 0.48354684771655143 0.39074454659916558
v 0.19881082180422915 0.53946930111738589 0.16705473299582779
v 0.19881082180422915 0.53946930111738589 0.22297718639666225
v 0.19881082180422915 0.53946930111738589 0.27889963979749671
v 0.19881082180422915 0.53946930111738589 0.33482209319833112
v 0.19881082180422915 0.53946930111738589 0.39074454659916558
v 0.2547332752050635 -0.35528995329596524 0.055209826194158915
v 0.2547332752050635 -0.35528995329596524 0.11113227959499336
v 0.2547332752050635 -0.35528995329596524 0.16705473299582779
v 0.2547332752050635 -0.35528995329596524 0.22297718639666225
v 0.2547332752050635 -0.35528995329596524 0.27889963979749671
v 0.2547332752050635 -0.29936749989513078 -0.00071262720667553126
v 0.2547332752050635 -0.29936749989513078 0.055209826194158915
v 0.2547332752050635 -0.29936749989513078 0.16705473299582779
v 0.2547332752050635 -0.29936749989513078 0.22297718639666225
v 0.2547332752050635 -0.29936749989513078 0.27889963979749671
v 0.2547332752050635 -0.29936749989513078 0.33482209319833112
v 0.2547332752050635 -0.24344504649429638 -0.00071262720667553126
v 0.2547332752050635 -0.24344504649429638 0.055209826194158915
v 0.2547332752050635 -0.24344504649429638 0.33482209319833112
v 0.2547332752050635 -0.24344504649429638 0.39074454659916558
v 0.2547332752050635 -0.24344504649429638 0.44666700000000004
v 0.2547332752050635 -0.18752259309346192 0.055209826194158915
v 0.2547332752050635 -0.18752259309346192 0.44666700000000004
v 0.2547332752050635 -0.13160013969262746 -0.00071262720667553126
v 0.2547332752050635 -0.13160013969262746 0.055209826194158915
v 0.2547332752050635 -0.13160013969262746 0.44666700000000004
v 0.2547332752050635 -0.075677686291793056 -0.00071262720667553126
v 0.2547332752050635 -0.075677686291793056 0.39074454659916558
v 0.2547332752050635 -0.075677686291793056 0.44666700000000004
v 0.2547332752050635 -0.019755232890958596 -0.00071262720667553126
v 0.2547332752050635 -0.019755232890958596 0.39074454659916558
v 0.2547332752050635 0.036167220509875864 -0.00071262720667553126
v 0.2547332752050635 0.036167220509875864 0.055209826194158915
v 0.2547332752050635 0.036167220509875864 0.11113227959499336
v 0.2547332752050635 0.036167220509875864 0.39074454659916558
v 0.2547332752050635 0.092089673910710323 0.055209826194158915
v 0.2547332752050635 0.092089673910710323 0.11113227959499336
v 0.2547332752050635 0.092089673910710323 0.16705473299582779
v 0.2547332752050635 0.092089673910710323 0.22297718639666225
v 0.2547332752050635 0.092089673910710323 0.27889963979749671
v 0.2547332752050635 0.092089673910710323 0.33482209319833112
v 0.2547332752050635 0.092089673910710323 0.39074454659916558
v 0.2547332752050635 0.14801212731154478 0.055209826194158915
v 0.2547332752050635 0.14801212731154478 0.11113227959499336
v 0.2547332752050635 0.14801212731154478 0.16705473299582779
v 0.2547332752050635 0.14801212731154478 0.22297718639666225
v 0.2547332752050635 0.14801212731154478 0.27889963979749671
v 0.2547332752050635 0.14801212731154478 0.33482209319833112
v 0.2547332752050635 0.14801212731154478 0.39074454659916558
v 0.2547332752050635 0.20393458071237924 -0.00071262720667553126
v 0.2547332752050635 0.20393458071237924 0.055209826194158915
v 0.2547332752050635 0.20393458071237924 0.11113227959499336
v 0.2547332752050635 0.20393458071237924 0.39074454659916558
v 0.2547332752050635 0.25985703411321359 -0.00071262720667553126
v 0.2547332752050635 0.25985703411321359 0.055209826194158915
v 0.2547332752050635 0.25985703411321359 0.39074454659916558
v 0.2547332752050635 0.31577948751404805 -0.00071262720667553126
v 0.2547332752050635 0.31577948751404805 0.39074454659916558
v 0.2547332752050635 0.37170194091488251 -0.00071262720667553126
v 0.2547332752050635 0.37170194091488251 0.055209826194158915
v 0.2547332752050635 0.37170194091488251 0.39074454659916558
v 0.2547332752050635 0.42762439431571697 0.055209826194158915
v 0.2547332752050635 0.42762439431571697 0.11113227959499336
v 0.2547332752050635 0.42762439431571697 0.39074454659916558
v 0.2547332752050635 0.48354684771655143 0.11113227959499336
v 0.2547332752050635 0.48354684771655143 0.16705473299582779
v 0.2547332752050635 0.48354684771655143 0.33482209319833112
v 0.2547332752050635 0.48354684771655143 0.39074454659916558
v 0.2547332752050635 0.53946930111738589 0.16705473299582779
v 0.2547332752050635 0.53946930111738589 0.22297718639666225
v 0.2547332752050635 0.53946930111738589 0.27889963979749671
v 0.2547332752050635 0.53946930111738589 0.33482209319833112
v 0.2547332752050635 0.53946930111738589 0.39074454659916558
v 0.31065572860589796 -0.35528995329596524 0.055209826194158915
v 0.31065572860589796 -0.35528995329596524 0.11113227959499336
v 0.31065572860589796 -0.35528995329596524 0.16705473299582779
v 0.31065572860589796 -0.29936749989513078 -0.00071262720667553126
v 0.31065572860589796 -0.29936749989513078 0.055209826194158915
v 0.31065572860589796 -0.29936749989513078 0.11113227959499336
v 0.31065572860589796 -0.29936749989513078 0.16705473299582779
v 0.31065572860589796 -0.29936749989513078 0.22297718639666225
v 0.31065572860589796 -0.29936749989513078 0.27889963979749671
v 0.31065572860589796 -0.29936749989513078 0.33482209319833112
v 0.31065572860589796 -0.24344504649429638 -0.00071262720667553126
v 0.31065572860589796 -0.24344504649429638 0.055209826194158915
v 0.31065572860589796 -0.24344504649429638 0.11113227959499336
v 0.31065572860589796 -0.24344504649429638 0.16705473299582779
v 0.31065572860589796 -0.24344504649429638 0.22297718639666225
v 0.31065572860589796 -0.24344504649429638 0.27889963979749671
v 0.31065572860589796 -0.24344504649429638 0.33482209319833112
v 0.31065572860589796 -0.24344504649429638 0.39074454659916558
v 0.31065572860589796 -0.24344504649429638 0.44666700000000004
v 0.31065572860589796 -0.18752259309346192 0.055209826194158915
v 0.31065572860589796 -0.18752259309346192 0.11113227959499336
v 0.31065572860589796 -0.18752259309346192 0.16705473299582779
v 0.31065572860589796 -0.18752259309346192 0.22297718639666225
v 0.31065572860589796 -0.18752259309346192 0.27889963979749671
v 0.31065572860589796 -0.18752259309346192 0.33482209319833112
v 0.31065572860589796 -0.18752259309346192 0.39074454659916558
v 0.31065572860589796 -0.18752259309346192 0.44666700000000004
v 0.31065572860589796 -0.13160013969262746 -0.00071262720667553126
v 0.31065572860589796 -0.13160013969262746 0.055209826194158915
v 0.31065572860589796 -0.13160013969262746 0.11113227959499336
v 0.31065572860589796 -0.13160013969262746 0.16705473299582779
v 0.31065572860589796 -0.13160013969262746 0.22297718639666225
v 0.31065572860589796 -0.13160013969262746 0.27889963979749671
v 0.31065572860589796 -0.13160013969262746 0.33482209319833112
v 0.31065572860589796 -0.13160013969262746 0.39074454659916558
v 0.31065572860589796 -0.13160013969262746 0.44666700000000004
v 0.31065572860589796 -0.075677686291793056 -0.00071262720667553126
v 0.31065572860589796 -0.075677686291793056 0.055209826194158915
v 0.31065572860589796 -0.075677686291793056 0.11113227959499336
v 0.31065572860589796 -0.075677686291793056 0.16705473299582779
v 0.31065572860589796 -0.075677686291793056 0.22297718639666225
v 0.31065572860589796 -0.075677686291793056 0.27889963979749671
v 0.31065572860589796 -0.075677686291793056 0.33482209319833112
v 0.31065572860589796 -0.075677686291793056 0.39074454659916558
v 0.31065572860589796 -0.075677686291793056 0.44666700000000004
v 0.31065572860589796 -0.019755232890958596 -0.00071262720667553126
v 0.31065572860589796 -0.019755232890958596 0.055209826194158915
v 0.31065572860589796 -0.019755232890958596 0.11113227959499336
v 0.31065572860589796 -0.019755232890958596 0.16705473299582779
v 0.31065572860589796 -0.019755232890958596 0.22297718639666225
v 0.31065572860589796 -0.019755232890958596 0.27889963979749671
v 0.31065572860589796 -0.019755232890958596 0.33482209319833112
v 0.31065572860589796 -0.019755232890958596 0.39074454659916558
v 0.31065572860589796 0.036167220509875864 -0.00071262720667553126
v 0.31065572860589796 0.036167220509875864 0.055209826194158915
v 0.31065572860589796 0.036167220509875864 0.11113227959499336
v 0.31065572860589796 0.036167220509875864 0.16705473299582779
v 0.31065572860589796 0.036167220509875864 0.22297718639666225
v 0.31065572860589796 0.036167220509875864 0.27889963979749671
v 0.31065572860589796 0.036167220509875864 0.33482209319833112
v 0.31065572860589796 0.036167220509875864 0.39074454659916558
v 0.31065572860589796 0.092089673910710323 0.11113227959499336
v 0.31065572860589796 0.092089673910710323 0.16705473299582779
v 0.31065572860589796 0.092089673910710323 0.22297718639666225
v 0.31065572860589796 0.092089673910710323 0.27889963979749671
v 0.31065572860589796 0.092089673910710323 0.33482209319833112
v 0.31065572860589796 0.092089673910710323 0.39074454659916558
v 0.31065572860589796 0.14801212731154478 0.11113227959499336
v 0.31065572860589796 0.14801212731154478 0.16705473299582779
v 0.31065572860589796 0.14801212731154478 0.22297718639666225
v 0.31065572860589796 0.14801212731154478 0.27889963979749671
v 0.31065572860589796 0.14801212731154478 0.33482209319833112
v 0.31065572860589796 0.14801212731154478 0.39074454659916558
v 0.31065572860589796 0.20393458071237924 0.055209826194158915
v 0.31065572860589796 0.20393458071237924 0.11113227959499336
v 0.31065572860589796 0.20393458071237924 0.16705473299582779
v 0.31065572860589796 0.20393458071237924 0.22297718639666225
v 0.31065572860589796 0.20393458071237924 0.27889963979749671
v 0.31065572860589796 0.20393458071237924 0.33482209319833112
v 0.31065572860589796 0.20393458071237924 0.39074454659916558
v 0.31065572860589796 0.25985703411321359 -0.00071262720667553126
v 0.31065572860589796 0.25985703411321359 0.055209826194158915
v 0.31065572860589796 0.25985703411321359 0.11113227959499336
v 0.31065572860589796 0.25985703411321359 0.16705473299582779
v 0.31065572860589796 0.25985703411321359 0.22297718639666225
v 0.31065572860589796 0.25985703411321359 0.27889963979749671
v 0.31065572860589796 0.25985703411321359 0.33482209319833112
v 0.31065572860589796 0.25985703411321359 0.39074454659916558
v 0.31065572860589796 0.31577948751404805 -0.00071262720667553126
v 0.31065572860589796 0.31577948751404805 0.055209826194158915
v 0.31065572860589796 0.31577948751404805 0.11113227959499336
v 0.31065572860589796 0.31577948751404805 0.16705473299582779
v 0.31065572860589796 0.31577948751404805 0.22297718639666225
v 0.31065572860589796 0.31577948751404805 0.27889963979749671
v 0.31065572860589796 0.31577948751404805 0.33482209319833112
v 0.31065572860589796 0.31577948751404805 0.39074454659916558
v 0.31065572860589796 0.37170194091488251 -0.00071262720667553126
v 0.31065572860589796 0.37170194091488251 0.055209826194158915
v 0.31065572860589796 0.37170194091488251 0.11113227959499336
v 0.31065572860589796 0.37170194091488251 0.16705473299582779
v 0.31065572860589796 0.37170194091488251 0.22297718639666225
v 0.31065572860589796 0.37170194091488251 0.27889963979749671
v 0.31065572860589796 0.37170194091488251 0.33482209319833112
v 0.31065572860589796 0.37170194091488251 0.39074454659916558
v 0.31065572860589796 0.42762439431571697 0.055209826194158915
v 0.31065572860589796 0.42762439431571697 0.11113227959499336
v 0.31065572860589796 0.42762439431571697 0.16705473299582779
v 0.31065572860589796 0.42762439431571697 0.22297718639666225
v 0.31065572860589796 0.42762439431571697 0.27889963979749671
v 0.31065572860589796 0.42762439431571697 0.33482209319833112
v 0.31065572860589796 0.42762439431571697 0.39074454659916558
v 0.31065572860589796 0.48354684771655143 0.11113227959499336
v 0.31065572860589796 0.48354684771655143 0.16705473299582779
v 0.31065572860589796 0.48354684771655143 0.22297718639666225
v 0.31065572860589796 0.48354684771655143 0.27889963979749671
v 0.31065572860589796 0.48354684771655143 0.33482209319833112
v 0.31065572860589796 0.48354684771655143 0.39074454659916558
v 0.31065572860589796 0.53946930111738589 0.16705473299582779
v 0.31065572860589796 0.53946930111738589 0.22297718639666225
v 0.31065572860589796 0.53946930111738589 0.27889963979749671
v 0.31065572860589796 0.53946930111738589 0.33482209319833112
f 890 895 896
f 896 891 890
f 773 774 896
f 896 895 773
f 889 894 895
f 895 890 889
f 772 773 895
f 895 894 772
f 768 771 893
f 893 888 768
f 885 891 892
f 892 886 885
f 769 770 892
f 892 891 769
f 766 886 892
f 892 770 766
f 882 888 889
f 889 883 882
f 765 767 887
f 887 881 765
f 878 885 886
f 886 879 878
f 763 879 886
f 886 766 763
f 877 884 885
f 885 878 877
f 875 882 883
f 883 876 875
f 762 764 880
f 880 873 762
f 869 877 878
f 878 870 869
f 868 876 877
f 877 869 868
f 867 875 876
f 876 868 867
f 866 874 875
f 875 867 866
f 759 761 872
f 872 864 759
f 758 863 871
f 871 760 758
f 859 867 868
f 868 860 859
f 756 856 857
f 857 757 756
f 755 855 863
f 863 758 755
f 853 861 862
f 862 854 853
f 849 857 858
f 858 850 849
f 751 848 855
f 855 755 751
f 846 853 854
f 854 847 846
f 748 845 846
f 846 749 748
f 844 851 852
f 852 845 844
f 843 850 851
f 851 844 843
f 746 754 850
f 850 843 746
f 841 847 848
f 848 842 841
f 742 749 846
f 846 840 742
f 835 841 842
f 842 836 835
f 737 836 842
f 842 744 737
f 833 839 840
f 840 834 833
f 741 742 840
f 840 839 741
f 831 837 838
f 838 832 831
f 739 740 838
f 838 837 739
f 825 833 834
f 834 826 825
f 822 830 831
f 831 823 822
f 732 734 829
f 829 821 732
f 813 822 823
f 823 814 813
f 729 732 821
f 821 812 729
f 810 819 820
f 820 811 810
f 809 818 819
f 819 810 809
f 807 816 817
f 817 808 807
f 806 815 816
f 816 807 806
f 805 814 815
f 815 806 805
f 804 813 814
f 814 805 804
f 726 729 812
f 812 803 726
f 801 810 811
f 811 802 801
f 799 808 809
f 809 800 799
f 724 727 804
f 804 795 724
f 723 794 802
f 802 725 723
f 827 835 836
f 836 828 827
f 792 800 801
f 801 793 792
f 791 799 800
f 800 792 791
f 789 797 798
f 798 790 789
f 788 796 797
f 797 789 788
f 787 795 796
f 796 788 787
f 718 785 792
f 792 721 718
f 783 790 791
f 791 784 783
f 715 782 783
f 783 716 715
f 781 788 789
f 789 782 781
f 779 786 787
f 787 780 779
f 719 720 787
f 787 786 719
f 713 779 780
f 780 714 713
f 777 781 782
f 782 778 777
f 708 714 780
f 780 776 708
f 769 774 775
f 775 770 769
f 706 707 775
f 775 774 706
f 704 705 773
f 773 772 704
f 703 704 772
f 772 771 703
f 698 766 770
f 770 702 698
f 699 700 768
f 768 767 699
f 695 699 767
f 767 765 695
f 771 772 894
f 894 893 771
f 690 694 764
f 764 762 690
f 680 755 758
f 758 683 680
f 752 756 757
f 757 753 752
f 676 752 753
f 753 677 676
f 676 681 756
f 756 752 676
f 674 675 680
f 680 679 674
f 675 751 755
f 755 680 675
f 673 674 679
f 679 678 673
f 673 749 750
f 750 674 673
f 745 753 754
f 754 746 745
f 671 677 753
f 753 745 671
f 741 748 749
f 749 742 741
f 739 746 747
f 747 740 739
f 667 672 746
f 746 739 667
f 717 784 785
f 785 718 717
f 664 665 670
f 670 669 664
f 669 670 744
f 744 743 669
f 665 737 744
f 744 670 665
f 666 667 739
f 739 738 666
f 823 831 832
f 832 824 823
f 663 666 738
f 738 735 663
f 659 660 663
f 663 662 659
f 662 663 735
f 735 734 662
f 657 730 733
f 733 661 657
f 655 659 732
f 732 729 655
f 657 658 731
f 731 730 657
f 824 832 833
f 833 825 824
f 651 725 728
f 728 654 651
f 700 703 771
f 771 768 700
f 840 846 847
f 847 841 840
f 716 783 784
f 784 717 716
f 649 653 727
f 727 724 649
f 647 648 651
f 651 650 647
f 648 723 725
f 725 651 648
f 865 873 874
f 874 866 865
f 643 718 721
f 721 646 643
f 638 639 645
f 645 644 638
f 637 712 717
f 717 642 637
f 710 715 716
f 716 711 710
f 776 780 781
f 781 777 776
f 633 708 709
f 709 634 633
f 692 763 766
f 766 698 692
f 627 702 707
f 707 632 627
f 629 630 705
f 705 704 629
f 626 629 704
f 704 701 626
f 622 626 701
f 701 697 622
f 617 618 624
f 624 623 617
f 735 738 739
f 739 736 735
f 620 621 696
f 696 695 620
f 614 688 693
f 693 619 614
f 615 616 691
f 691 690 615
f 613 615 690
f 690 686 613
f 611 684 688
f 688 614 611
f 609 682 683
f 683 610 609
f 607 608 613
f 613 612 607
f 851 859 860
f 860 852 851
f 612 613 686
f 686 685 612
f 606 679 682
f 682 609 606
f 601 676 677
f 677 602 601
f 601 607 681
f 681 676 601
f 599 600 605
f 605 604 599
f 652 655 729
f 729 726 652
f 681 685 759
f 759 756 681
f 597 598 603
f 603 602 597
f 710 778 782
f 782 715 710
f 597 602 677
f 677 671 597
f 666 671 672
f 672 667 666
f 592 664 669
f 669 596 592
f 654 728 731
f 731 658 654
f 589 590 593
f 593 592 589
f 592 593 665
f 665 664 592
f 590 661 665
f 665 593 590
f 695 696 700
f 700 699 695
f 671 745 746
f 746 672 671
f 588 591 663
f 663 660 588
f 585 588 660
f 660 656 585
f 586 587 658
f 658 657 586
f 584 654 658
f 658 587 584
f 580 650 651
f 651 581 580
f 624 698 702
f 702 627 624
f 578 582 653
f 653 649 578
f 652 726 727
f 727 653 652
f 574 643 646
f 646 576 574
f 571 640 641
f 641 572 571
f 570 639 640
f 640 571 570
f 570 575 645
f 645 639 570
f 568 636 637
f 637 569 568
f 569 637 642
f 642 573 569
f 567 635 636
f 636 568 567
f 565 566 632
f 632 631 565
f 563 564 630
f 630 629 563
f 625 628 629
f 629 626 625
f 562 563 629
f 629 628 562
f 557 558 561
f 561 560 557
f 621 625 626
f 626 622 621
f 548 549 557
f 557 556 548
f 549 617 623
f 623 557 549
f 567 572 641
f 641 635 567
f 542 545 615
f 615 613 542
f 541 611 614
f 614 544 541
f 883 889 890
f 890 884 883
f 696 697 701
f 701 700 696
f 533 604 605
f 605 534 533
f 531 602 603
f 603 532 531
f 525 595 600
f 600 530 525
f 736 739 837
f 837 831 736
f 524 527 597
f 597 594 524
f 525 526 596
f 596 595 525
f 523 592 596
f 596 526 523
f 674 750 751
f 751 675 674
f 832 838 839
f 839 833 832
f 529 599 604
f 604 533 529
f 521 524 594
f 594 591 521
f 518 519 523
f 523 522 518
f 519 589 592
f 592 523 519
f 516 521 591
f 591 588 516
f 713 719 786
f 786 779 713
f 515 586 590
f 590 520 515
f 633 639 714
f 714 708 633
f 705 706 774
f 774 773 705
f 511 512 517
f 517 516 511
f 511 516 588
f 588 585 511
f 577 647 650
f 650 580 577
f 509 510 515
f 515 514 509
f 510 583 586
f 586 515 510
f 874 881 882
f 882 875 874
f 506 580 583
f 583 510 506
f 503 504 508
f 508 507 503
f 503 507 582
f 582 578 503
f 634 709 710
f 710 635 634
f 733 828 836
f 836 737 733
f 389 393 450
f 450 447 389
f 500 501 504
f 504 503 500
f 334 335 392
f 392 391 334
f 495 496 501
f 501 500 495
f 315 373 377
f 377 321 315
f 493 568 569
f 569 494 493
f 492 567 568
f 568 493 492
f 470 544 551
f 551 476 470
f 481 482 486
f 486 485 481
f 494 569 573
f 573 498 494
f 92 97 98
f 98 93 92
f 480 555 556
f 556 481 480
f 144 145 149
f 149 148 144
f 478 479 554
f 554 553 478
f 471 477 552
f 552 545 471
f 469 470 476
f 476 475 469
f 474 475 550
f 550 549 474
f 652 653 656
f 656 655 652
f 111 173 178
f 178 115 111
f 467 471 545
f 545 542 467
f 475 476 551
f 551 550 475
f 782 789 790
f 790 783 782
f 466 540 543
f 543 469 466
f 464 538 539
f 539 465 464
f 746 843 844
f 844 747 746
f 459 533 537
f 537 463 459
f 527 531 532
f 532 528 527
f 560 561 566
f 566 565 560
f 795 804 805
f 805 796 795
f 455 456 530
f 530 529 455
f 105 167 168
f 168 106 105
f 175 176 181
f 181 180 175
f 195 196 273
f 273 272 195
f 638 644 719
f 719 713 638
f 104 105 110
f 110 109 104
f 401 402 458
f 458 457 401
f 164 238 239
f 239 165 164
f 444 448 517
f 517 512 444
f 513 514 519
f 519 518 513
f 815 824 825
f 825 816 815
f 441 444 512
f 512 508 441
f 256 325 326
f 326 257 256
f 440 505 509
f 509 443 440
f 814 823 824
f 824 815 814
f 583 584 587
f 587 586 583
f 457 461 536
f 536 531 457
f 397 399 454
f 454 452 397
f 78 123 127
f 127 83 78
f 361 364 423
f 423 420 361
f 702 770 775
f 775 707 702
f 437 439 504
f 504 501 437
f 545 546 616
f 616 615 545
f 436 499 502
f 502 438 436
f 432 496 497
f 497 433 432
f 683 758 760
f 760 687 683
f 432 437 501
f 501 496 432
f 430 493 494
f 494 431 430
f 431 494 498
f 498 435 431
f 457 458 462
f 462 461 457
f 407 463 464
f 464 408 407
f 425 426 490
f 490 489 425
f 420 423 487
f 487 483 420
f 419 481 485
f 485 422 419
f 46 83 89
f 89 51 46
f 155 156 219
f 219 218 155
f 478 483 484
f 484 479 478
f 472 480 481
f 481 473 472
f 180 252 258
f 258 184 180
f 472 473 548
f 548 547 472
f 16 19 62
f 62 59 16
f 413 417 477
f 477 471 413
f 414 415 474
f 474 473 414
f 573 642 643
f 643 574 573
f 721 792 793
f 793 722 721
f 454 457 531
f 531 527 454
f 507 511 585
f 585 582 507
f 410 413 471
f 471 467 410
f 797 806 807
f 807 798 797
f 412 469 475
f 475 416 412
f 403 459 463
f 463 407 403
f 528 532 603
f 603 598 528
f 402 406 462
f 462 458 402
f 246 315 316
f 316 247 246
f 403 404 460
f 460 459 403
f 881 887 888
f 888 882 881
f 546 553 620
f 620 616 546
f 399 401 457
f 457 454 399
f 284 346 349
f 349 286 284
f 312 318 319
f 319 313 312
f 453 525 530
f 530 456 453
f 449 518 522
f 522 451 449
f 634 635 641
f 641 640 634
f 393 397 452
f 452 450 393
f 854 862 863
f 863 855 854
f 423 424 488
f 488 487 423
f 447 516 517
f 517 448 447
f 269 274 275
f 275 270 269
f 398 453 456
f 456 400 398
f 101 106 168
f 168 162 101
f 544 614 619
f 619 551 544
f 726 803 804
f 804 727 726
f 387 390 448
f 448 444 387
f 384 442 445
f 445 388 384
f 753 849 850
f 850 754 753
f 633 634 640
f 640 639 633
f 355 356 415
f 415 414 355
f 484 488 562
f 562 559 484
f 370 375 437
f 437 432 370
f 383 387 444
f 444 441 383
f 689 690 762
f 762 761 689
f 414 473 481
f 481 419 414
f 607 612 685
f 685 681 607
f 377 378 381
f 381 380 377
f 845 852 853
f 853 846 845
f 71 117 120
f 120 75 71
f 375 379 439
f 439 437 375
f 373 374 378
f 378 377 373
f 372 434 435
f 435 373 372
f 21 22 26
f 26 25 21
f 485 486 491
f 491 490 485
f 370 432 433
f 433 371 370
f 424 427 428
f 428 425 424
f 365 368 427
f 427 424 365
f 364 365 424
f 424 423 364
f 359 360 363
f 363 362 359
f 500 503 578
f 578 575 500
f 194 195 272
f 272 271 194
f 362 363 422
f 422 421 362
f 659 662 734
f 734 732 659
f 109 114 177
f 177 171 109
f 358 361 420
f 420 418 358
f 355 414 419
f 419 360 355
f 728 811 820
f 820 731 728
f 370 371 376
f 376 375 370
f 357 358 418
f 418 417 357
f 636 711 712
f 712 637 636
f 332 333 390
f 390 389 332
f 351 354 413
f 413 410 351
f 278 279 282
f 282 281 278
f 349 408 409
f 409 350 349
f 687 692 693
f 693 688 687
f 263 267 268
f 268 264 263
f 450 452 524
f 524 521 450
f 862 870 871
f 871 863 862
f 594 597 671
f 671 666 594
f 348 407 408
f 408 349 348
f 336 393 394
f 394 337 336
f 502 576 579
f 579 505 502
f 236 305 306
f 306 237 236
f 139 143 209
f 209 204 139
f 747 844 845
f 845 748 747
f 860 868 869
f 869 861 860
f 345 403 407
f 407 348 345
f 411 412 416
f 416 415 411
f 401 405 406
f 406 402 401
f 761 762 873
f 873 872 761
f 344 347 405
f 405 401 344
f 345 346 404
f 404 403 345
f 856 864 865
f 865 857 856
f 280 283 344
f 344 342 280
f 850 858 859
f 859 851 850
f 595 668 673
f 673 600 595
f 229 297 300
f 300 232 229
f 250 256 257
f 257 251 250
f 320 321 326
f 326 325 320
f 115 178 179
f 179 116 115
f 488 489 563
f 563 562 488
f 341 398 400
f 400 343 341
f 473 474 549
f 549 548 473
f 522 523 526
f 526 525 522
f 340 342 399
f 399 397 340
f 734 735 830
f 830 829 734
f 465 466 469
f 469 468 465
f 242 247 316
f 316 310 242
f 336 340 397
f 397 393 336
f 7 49 53
f 53 10 7
f 490 491 565
f 565 564 490
f 252 253 323
f 323 322 252
f 334 391 395
f 395 338 334
f 333 337 394
f 394 390 333
f 331 388 392
f 392 335 331
f 72 77 122
f 122 118 72
f 668 669 743
f 743 742 668
f 221 290 294
f 294 226 221
f 327 330 386
f 386 382 327
f 411 468 469
f 469 412 411
f 324 328 383
f 383 379 324
f 170 243 248
f 248 176 170
f 405 461 462
f 462 406 405
f 321 377 380
f 380 326 321
f 760 871 879
f 879 763 760
f 391 392 396
f 396 395 391
f 576 577 580
f 580 579 576
f 549 550 618
f 618 617 549
f 59 62 105
f 105 100 59
f 318 375 376
f 376 319 318
f 313 371 372
f 372 314 313
f 753 757 857
f 857 849 753
f 63 107 108
f 108 64 63
f 300 366 369
f 369 303 300
f 847 854 855
f 855 848 847
f 455 459 460
f 460 456 455
f 364 367 368
f 368 365 364
f 600 673 678
f 678 605 600
f 405 410 467
f 467 461 405
f 301 302 368
f 368 367 301
f 132 133 197
f 197 196 132
f 415 416 475
f 475 474 415
f 725 802 811
f 811 728 725
f 298 301 367
f 367 364 298
f 558 624 627
f 627 561 558
f 297 362 366
f 366 300 297
f 296 298 364
f 364 361 296
f 6 7 10
f 10 9 6
f 294 359 362
f 362 297 294
f 293 296 361
f 361 358 293
f 294 295 360
f 360 359 294
f 41 78 83
f 83 46 41
f 289 292 357
f 357 354 289
f 591 594 666
f 666 663 591
f 472 547 555
f 555 480 472
f 816 825 826
f 826 817 816
f 498 573 574
f 574 499 498
f 495 500 575
f 575 570 495
f 876 883 884
f 884 877 876
f 139 204 205
f 205 140 139
f 287 289 354
f 354 351 287
f 582 585 656
f 656 653 582
f 422 485 490
f 490 426 422
f 286 349 352
f 352 288 286
f 345 348 349
f 349 346 345
f 499 574 576
f 576 502 499
f 429 433 497
f 497 492 429
f 388 445 449
f 449 392 388
f 360 419 422
f 422 363 360
f 292 293 358
f 358 357 292
f 283 285 347
f 347 344 283
f 261 265 266
f 266 262 261
f 371 433 434
f 434 372 371
f 429 430 434
f 434 433 429
f 536 542 613
f 613 608 536
f 220 221 226
f 226 225 220
f 557 623 624
f 624 558 557
f 279 341 343
f 343 282 279
f 711 716 717
f 717 712 711
f 249 255 324
f 324 318 249
f 276 280 342
f 342 340 276
f 274 275 279
f 279 278 274
f 65 66 69
f 69 68 65
f 389 447 448
f 448 390 389
f 275 339 341
f 341 279 275
f 272 276 340
f 340 336 272
f 255 260 328
f 328 324 255
f 150 213 216
f 216 154 150
f 100 105 106
f 106 101 100
f 218 223 292
f 292 289 218
f 145 146 150
f 150 149 145
f 167 172 245
f 245 240 167
f 644 645 720
f 720 719 644
f 5 47 48
f 48 6 5
f 94 95 135
f 135 134 94
f 310 316 317
f 317 311 310
f 332 336 337
f 337 333 332
f 302 303 369
f 369 368 302
f 154 216 221
f 221 158 154
f 254 259 260
f 260 255 254
f 227 230 298
f 298 296 227
f 264 268 332
f 332 330 264
f 646 721 722
f 722 647 646
f 274 338 339
f 339 275 274
f 261 329 331
f 331 265 261
f 392 449 451
f 451 396 392
f 84 85 91
f 91 90 84
f 151 155 218
f 218 215 151
f 618 692 698
f 698 624 618
f 496 571 572
f 572 497 496
f 368 369 428
f 428 427 368
f 89 129 135
f 135 95 89
f 250 320 325
f 325 256 250
f 259 327 328
f 328 260 259
f 75 120 124
f 124 79 75
f 37 42 81
f 81 77 37
f 257 326 329
f 329 261 257
f 315 321 322
f 322 316 315
f 547 548 556
f 556 555 547
f 694 695 765
f 765 764 694
f 67 113 117
f 117 71 67
f 242 310 311
f 311 243 242
f 163 237 238
f 238 164 163
f 240 245 313
f 313 307 240
f 60 101 102
f 102 61 60
f 235 304 305
f 305 236 235
f 353 411 415
f 415 356 353
f 231 233 302
f 302 299 231
f 251 252 322
f 322 321 251
f 535 606 609
f 609 539 535
f 232 300 303
f 303 234 232
f 545 552 553
f 553 546 545
f 304 307 308
f 308 305 304
f 439 441 508
f 508 504 439
f 227 228 231
f 231 230 227
f 465 539 540
f 540 466 465
f 884 890 891
f 891 885 884
f 679 680 683
f 683 682 679
f 20 21 25
f 25 24 20
f 482 557 560
f 560 486 482
f 226 294 297
f 297 229 226
f 148 149 153
f 153 152 148
f 764 765 881
f 881 880 764
f 224 227 296
f 296 293 224
f 269 334 338
f 338 274 269
f 514 515 520
f 520 519 514
f 540 610 611
f 611 541 540
f 223 224 293
f 293 292 223
f 128 130 194
f 194 192 128
f 221 222 291
f 291 290 221
f 443 509 514
f 514 446 443
f 188 192 267
f 267 263 188
f 224 225 228
f 228 227 224
f 463 537 538
f 538 464 463
f 121 125 126
f 126 122 121
f 151 152 156
f 156 155 151
f 417 418 478
f 478 477 417
f 821 829 830
f 830 822 821
f 225 226 229
f 229 228 225
f 326 380 384
f 384 329 326
f 647 722 723
f 723 648 647
f 215 218 289
f 289 287 215
f 214 286 288
f 288 217 214
f 481 556 557
f 557 482 481
f 91 96 97
f 97 92 91
f 134 198 203
f 203 138 134
f 730 819 828
f 828 733 730
f 212 215 287
f 287 285 212
f 756 759 864
f 864 856 756
f 477 478 553
f 553 552 477
f 455 529 533
f 533 459 455
f 208 282 284
f 284 211 208
f 210 211 214
f 214 213 210
f 42 43 82
f 82 81 42
f 211 284 286
f 286 214 211
f 826 834 835
f 835 827 826
f 285 287 351
f 351 347 285
f 102 103 108
f 108 107 102
f 209 212 285
f 285 283 209
f 857 865 866
f 866 858 857
f 350 409 411
f 411 353 350
f 316 322 323
f 323 317 316
f 581 651 654
f 654 584 581
f 235 240 307
f 307 304 235
f 143 147 212
f 212 209 143
f 68 73 119
f 119 114 68
f 203 278 281
f 281 207 203
f 200 204 280
f 280 276 200
f 49 87 93
f 93 53 49
f 1 3 43
f 43 38 1
f 196 201 277
f 277 273 196
f 231 232 234
f 234 233 231
f 268 272 336
f 336 332 268
f 265 331 335
f 335 270 265
f 685 686 690
f 690 689 685
f 134 135 199
f 199 198 134
f 217 288 291
f 291 222 217
f 803 812 813
f 813 804 803
f 683 687 688
f 688 684 683
f 267 271 272
f 272 268 267
f 190 265 270
f 270 193 190
f 435 498 499
f 499 436 435
f 744 842 848
f 848 751 744
f 534 605 606
f 606 535 534
f 586 657 661
f 661 590 586
f 800 809 810
f 810 801 800
f 26 67 71
f 71 31 26
f 244 312 313
f 313 245 244
f 187 262 266
f 266 191 187
f 630 631 706
f 706 705 630
f 113 175 180
f 180 117 113
f 343 400 404
f 404 346 343
f 218 219 224
f 224 223 218
f 451 522 525
f 525 453 451
f 233 234 303
f 303 302 233
f 185 189 264
f 264 259 185
f 418 420 483
f 483 478 418
f 400 456 460
f 460 404 400
f 529 530 600
f 600 599 529
f 213 214 217
f 217 216 213
f 190 191 266
f 266 265 190
f 818 827 828
f 828 819 818
f 539 609 610
f 610 540 539
f 182 254 255
f 255 183 182
f 228 229 232
f 232 231 228
f 27 28 34
f 34 33 27
f 182 185 259
f 259 254 182
f 248 317 323
f 323 253 248
f 147 151 215
f 215 212 147
f 173 174 179
f 179 178 173
f 888 893 894
f 894 889 888
f 54 55 97
f 97 96 54
f 88 89 95
f 95 94 88
f 561 627 632
f 632 566 561
f 171 177 249
f 249 244 171
f 655 656 660
f 660 659 655
f 408 464 465
f 465 409 408
f 241 246 247
f 247 242 241
f 23 28 69
f 69 66 23
f 98 99 138
f 138 137 98
f 125 128 192
f 192 188 125
f 661 733 737
f 737 665 661
f 164 165 170
f 170 169 164
f 165 239 243
f 243 170 165
f 27 68 69
f 69 28 27
f 690 691 695
f 695 694 690
f 430 431 435
f 435 434 430
f 24 25 30
f 30 29 24
f 162 236 237
f 237 163 162
f 161 162 168
f 168 167 161
f 161 167 240
f 240 235 161
f 156 157 160
f 160 159 156
f 288 352 355
f 355 291 288
f 720 724 795
f 795 787 720
f 329 384 388
f 388 331 329
f 159 160 225
f 225 224 159
f 505 579 580
f 580 506 505
f 156 159 224
f 224 219 156
f 708 776 777
f 777 709 708
f 447 450 521
f 521 516 447
f 389 390 394
f 394 393 389
f 780 787 788
f 788 781 780
f 313 319 376
f 376 371 313
f 153 154 158
f 158 157 153
f 28 29 35
f 35 34 28
f 157 158 221
f 221 220 157
f 700 701 704
f 704 703 700
f 505 506 510
f 510 509 505
f 198 199 275
f 275 274 198
f 149 150 154
f 154 153 149
f 230 231 299
f 299 298 230
f 308 314 315
f 315 309 308
f 143 144 148
f 148 147 143
f 196 197 202
f 202 201 196
f 798 807 808
f 808 799 798
f 146 210 213
f 213 150 146
f 141 142 146
f 146 145 141
f 250 251 321
f 321 320 250
f 601 602 608
f 608 607 601
f 861 869 870
f 870 862 861
f 864 872 873
f 873 865 864
f 534 535 539
f 539 538 534
f 141 206 207
f 207 142 141
f 104 109 171
f 171 166 104
f 186 187 191
f 191 190 186
f 140 141 145
f 145 144 140
f 305 308 309
f 309 306 305
f 852 860 861
f 861 853 852
f 137 202 206
f 206 141 137
f 2 39 44
f 44 4 2
f 137 138 203
f 203 202 137
f 207 281 282
f 282 208 207
f 8 11 54
f 54 52 8
f 93 94 99
f 99 98 93
f 129 193 199
f 199 135 129
f 14 15 58
f 58 57 14
f 685 689 761
f 761 759 685
f 812 821 822
f 822 813 812
f 479 484 559
f 559 554 479
f 117 180 184
f 184 120 117
f 553 554 621
f 621 620 553
f 257 261 262
f 262 258 257
f 102 163 164
f 164 103 102
f 668 742 749
f 749 673 668
f 25 26 31
f 31 30 25
f 347 351 410
f 410 405 347
f 817 826 827
f 827 818 817
f 200 276 277
f 277 201 200
f 59 100 101
f 101 60 59
f 111 112 174
f 174 173 111
f 576 646 647
f 647 577 576
f 61 102 107
f 107 63 61
f 595 596 669
f 669 668 595
f 136 201 202
f 202 137 136
f 122 126 189
f 189 185 122
f 314 372 373
f 373 315 314
f 118 182 183
f 183 119 118
f 130 131 195
f 195 194 130
f 125 188 189
f 189 126 125
f 18 61 63
f 63 21 18
f 580 581 584
f 584 583 580
f 169 170 176
f 176 175 169
f 9 10 13
f 13 12 9
f 362 421 425
f 425 366 362
f 342 344 401
f 401 399 342
f 237 241 242
f 242 238 237
f 495 570 571
f 571 496 495
f 114 119 183
f 183 177 114
f 808 817 818
f 818 809 808
f 507 508 512
f 512 511 507
f 112 116 179
f 179 174 112
f 767 768 888
f 888 887 767
f 352 353 356
f 356 355 352
f 120 184 187
f 187 124 120
f 409 465 468
f 468 411 409
f 21 63 64
f 64 22 21
f 131 132 196
f 196 195 131
f 531 536 608
f 608 602 531
f 469 543 544
f 544 470 469
f 489 490 564
f 564 563 489
f 192 194 271
f 271 267 192
f 5 8 52
f 52 47 5
f 166 171 172
f 172 167 166
f 171 244 245
f 245 172 171
f 307 313 314
f 314 308 307
f 438 502 505
f 505 440 438
f 374 436 438
f 438 378 374
f 94 134 138
f 138 99 94
f 784 791 792
f 792 785 784
f 834 840 841
f 841 835 834
f 5 6 9
f 9 8 5
f 161 235 236
f 236 162 161
f 244 249 318
f 318 312 244
f 269 270 335
f 335 334 269
f 32 72 73
f 73 33 32
f 272 273 277
f 277 276 272
f 103 164 169
f 169 108 103
f 575 578 649
f 649 645 575
f 92 93 133
f 133 132 92
f 554 559 625
f 625 621 554
f 349 350 353
f 353 352 349
f 180 181 253
f 253 252 180
f 176 248 253
f 253 181 176
f 87 88 94
f 94 93 87
f 384 385 443
f 443 442 384
f 90 91 131
f 131 130 90
f 605 678 679
f 679 606 605
f 769 891 896
f 896 774 769
f 291 355 360
f 360 295 291
f 139 140 144
f 144 143 139
f 445 513 518
f 518 449 445
f 17 18 21
f 21 20 17
f 378 438 440
f 440 381 378
f 642 717 718
f 718 643 642
f 101 162 163
f 163 102 101
f 237 306 309
f 309 241 237
f 709 777 778
f 778 710 709
f 17 60 61
f 61 18 17
f 373 435 436
f 436 374 373
f 81 82 86
f 86 85 81
f 618 619 693
f 693 692 618
f 421 422 426
f 426 425 421
f 396 451 453
f 453 398 396
f 80 81 85
f 85 84 80
f 188 263 264
f 264 189 188
f 638 713 714
f 714 639 638
f 559 562 628
f 628 625 559
f 123 124 187
f 187 186 123
f 136 137 141
f 141 140 136
f 118 122 185
f 185 182 118
f 445 446 514
f 514 513 445
f 62 66 110
f 110 105 62
f 386 389 390
f 390 387 386
f 11 12 15
f 15 14 11
f 76 77 81
f 81 80 76
f 790 798 799
f 799 791 790
f 76 80 125
f 125 121 76
f 198 274 278
f 278 203 198
f 616 620 695
f 695 691 616
f 452 454 527
f 527 524 452
f 111 115 116
f 116 112 111
f 298 299 302
f 302 301 298
f 742 743 750
f 750 749 742
f 108 169 175
f 175 113 108
f 147 148 152
f 152 151 147
f 37 38 43
f 43 42 37
f 429 492 493
f 493 430 429
f 104 166 167
f 167 105 104
f 74 75 79
f 79 78 74
f 290 291 295
f 295 294 290
f 730 731 820
f 820 819 730
f 133 137 202
f 202 197 133
f 238 242 243
f 243 239 238
f 873 880 881
f 881 874 873
f 282 343 346
f 346 284 282
f 533 534 538
f 538 537 533
f 743 744 751
f 751 750 743
f 204 209 283
f 283 280 204
f 483 487 488
f 488 484 483
f 93 98 137
f 137 133 93
f 379 383 441
f 441 439 379
f 202 203 207
f 207 206 202
f 1 2 4
f 4 3 1
f 177 183 255
f 255 249 177
f 54 57 58
f 58 55 54
f 50 51 89
f 89 88 50
f 382 386 387
f 387 383 382
f 65 68 114
f 114 109 65
f 83 127 129
f 129 89 83
f 259 264 330
f 330 327 259
f 424 425 489
f 489 488 424
f 354 357 417
f 417 413 354
f 327 382 383
f 383 328 327
f 34 35 40
f 40 39 34
f 339 396 398
f 398 341 339
f 550 551 619
f 619 618 550
f 55 56 98
f 98 97 55
f 47 52 91
f 91 85 47
f 442 443 446
f 446 445 442
f 12 55 58
f 58 15 12
f 858 866 867
f 867 859 858
f 740 741 839
f 839 838 740
f 1 38 39
f 39 2 1
f 381 440 443
f 443 385 381
f 53 93 98
f 98 56 53
f 564 565 631
f 631 630 564
f 621 622 697
f 697 696 621
f 22 64 67
f 67 26 22
f 12 13 56
f 56 55 12
f 193 270 275
f 275 199 193
f 52 54 96
f 96 91 52
f 527 528 598
f 598 597 527
f 241 309 315
f 315 246 241
f 338 395 396
f 396 339 338
f 47 85 86
f 86 48 47
f 49 50 88
f 88 87 49
f 142 207 210
f 210 146 142
f 43 48 86
f 86 82 43
f 39 40 45
f 45 44 39
f 70 71 75
f 75 74 70
f 519 520 590
f 590 589 519
f 157 220 225
f 225 160 157
f 152 153 157
f 157 156 152
f 10 53 56
f 56 13 10
f 64 108 113
f 113 67 64
f 91 92 132
f 132 131 91
f 36 74 78
f 78 41 36
f 65 109 110
f 110 66 65
f 243 311 317
f 317 248 243
f 33 34 39
f 39 38 33
f 318 324 379
f 379 375 318
f 216 217 222
f 222 221 216
f 45 46 51
f 51 50 45
f 735 736 831
f 831 830 735
f 32 33 38
f 38 37 32
f 29 30 36
f 36 35 29
f 200 201 205
f 205 204 200
f 30 70 74
f 74 36 30
f 72 118 119
f 119 73 72
f 84 90 130
f 130 128 84
f 23 24 29
f 29 28 23
f 461 467 542
f 542 536 461
f 635 710 711
f 711 636 635
f 492 497 572
f 572 567 492
f 11 14 57
f 57 54 11
f 123 186 190
f 190 127 123
f 793 801 802
f 802 794 793
f 44 45 50
f 50 49 44
f 19 20 24
f 24 23 19
f 870 878 879
f 879 871 870
f 366 425 428
f 428 369 366
f 78 79 124
f 124 123 78
f 380 381 385
f 385 384 380
f 645 649 724
f 724 720 645
f 486 560 565
f 565 491 486
f 540 541 544
f 544 543 540
f 251 257 258
f 258 252 251
f 330 332 389
f 389 386 330
f 16 17 20
f 20 19 16
f 35 36 41
f 41 40 35
f 3 6 48
f 48 43 3
f 32 37 77
f 77 72 32
f 19 23 66
f 66 62 19
f 76 121 122
f 122 77 76
f 740 747 748
f 748 741 740
f 207 208 211
f 211 210 207
f 16 59 60
f 60 17 16
f 40 41 46
f 46 45 40
f 796 805 806
f 806 797 796
f 80 84 128
f 128 125 80
f 722 793 794
f 794 723 722
f 184 258 262
f 262 187 184
f 30 31 71
f 71 70 30
f 610 683 684
f 684 611 610
f 136 140 205
f 205 201 136
f 27 33 73
f 73 68 27
f 3 4 7
f 7 6 3
f 8 9 12
f 12 11 8
f 687 760 763
f 763 692 687
f 631 632 707
f 707 706 631
f 127 190 193
f 193 129 127
f 4 44 49
f 49 7 4
