# Generated by the TriMeshRef class
# Number of vertices: 478
# Number of faces: 952
v -0.09871350000000001 0.072174999999999989 -0.016048
v -0.09871350000000001 0.072174999999999989 -0.0011549999999999963
v -0.09871350000000001 0.072174999999999989 0.013738000000000007
v -0.09871350000000001 0.072174999999999989 0.028630999999999997
v -0.09871350000000001 0.072174999999999989 0.043524
v -0.09871350000000001 0.087067999999999993 -0.016048
v -0.09871350000000001 0.087067999999999993 -0.0011549999999999963
v -0.09871350000000001 0.087067999999999993 0.013738000000000007
v -0.09871350000000001 0.087067999999999993 0.028630999999999997
v -0.09871350000000001 0.087067999999999993 0.043524
v -0.09871350000000001 0.101961 -0.016048
v -0.09871350000000001 0.101961 -0.0011549999999999963
v -0.09871350000000001 0.101961 0.013738000000000007
v -0.09871350000000001 0.101961 0.028630999999999997
v -0.09871350000000001 0.101961 0.043524
v -0.09871350000000001 0.101961 0.058417000000000004
v -0.09871350000000001 0.11685399999999999 -0.016048
v -0.09871350000000001 0.11685399999999999 -0.0011549999999999963
v -0.09871350000000001 0.11685399999999999 0.013738000000000007
v -0.09871350000000001 0.11685399999999999 0.028630999999999997
v -0.09871350000000001 0.11685399999999999 0.043524
v -0.09871350000000001 0.11685399999999999 0.058417000000000004
v -0.09871350000000001 0.131747 -0.016048
v -0.09871350000000001 0.131747 -0.0011549999999999963
v -0.09871350000000001 0.131747 0.013738000000000007
v -0.09871350000000001 0.131747 0.028630999999999997
v -0.09871350000000001 0.131747 0.043524
v -0.09871350000000001 0.131747 0.058417000000000004
v -0.09871350000000001 0.14663999999999999 -0.016048
v -0.09871350000000001 0.14663999999999999 -0.0011549999999999963
v -0.09871350000000001 0.14663999999999999 0.013738000000000007
v -0.09871350000000001 0.14663999999999999 0.028630999999999997
v -0.09871350000000001 0.14663999999999999 0.043524
v -0.09871350000000001 0.14663999999999999 0.058417000000000004
v -0.09871350000000001 0.16153299999999998 -0.0011549999999999963
v -0.09871350000000001 0.16153299999999998 0.013738000000000007
v -0.09871350000000001 0.16153299999999998 0.028630999999999997
v -0.09871350000000001 0.16153299999999998 0.043524
v -0.083820500000000006 0.027495999999999993 -0.016048
v -0.083820500000000006 0.027495999999999993 -0.0011549999999999963
v -0.083820500000000006 0.027495999999999993 0.013738000000000007
v -0.083820500000000006 0.042388999999999996 -0.016048
v -0.083820500000000006 0.042388999999999996 -0.0011549999999999963
v -0.083820500000000006 0.042388999999999996 0.013738000000000007
v -0.083820500000000006 0.057281999999999993 -0.016048
v -0.083820500000000006 0.057281999999999993 -0.0011549999999999963
v -0.083820500000000006 0.057281999999999993 0.013738000000000007
v -0.083820500000000006 0.057281999999999993 0.028630999999999997
v -0.083820500000000006 0.057281999999999993 0.043524
v -0.083820500000000006 0.072174999999999989 -0.030940999999999996
v -0.083820500000000006 0.072174999999999989 -0.016048
v -0.083820500000000006 0.072174999999999989 -0.0011549999999999963
v -0.083820500000000006 0.072174999999999989 0.013738000000000007
v -0.083820500000000006 0.072174999999999989 0.028630999999999997
v -0.083820500000000006 0.072174999999999989 0.043524
v -0.083820500000000006 0.087067999999999993 -0.030940999999999996
v -0.083820500000000006 0.087067999999999993 -0.016048
v -0.083820500000000006 0.087067999999999993 0.043524
v -0.083820500000000006 0.101961 -0.030940999999999996
v -0.083820500000000006 0.101961 -0.016048
v -0.083820500000000006 0.101961 0.043524
v -0.083820500000000006 0.101961 0.058417000000000004
v -0.083820500000000006 0.11685399999999999 -0.016048
v -0.083820500000000006 0.11685399999999999 0.058417000000000004
v -0.083820500000000006 0.131747 -0.030940999999999996
v -0.083820500000000006 0.131747 -0.016048
v -0.083820500000000006 0.131747 0.058417000000000004
v -0.083820500000000006 0.14663999999999999 -0.060726999999999996
v -0.083820500000000006 0.14663999999999999 -0.045834
v -0.083820500000000006 0.14663999999999999 -0.030940999999999996
v -0.083820500000000006 0.14663999999999999 -0.016048
v -0.083820500000000006 0.14663999999999999 -0.0011549999999999963
v -0.083820500000000006 0.14663999999999999 0.043524
v -0.083820500000000006 0.14663999999999999 0.058417000000000004
v -0.083820500000000006 0.16153299999999998 -0.060726999999999996
v -0.083820500000000006 0.16153299999999998 -0.045834
v -0.083820500000000006 0.16153299999999998 -0.030940999999999996
v -0.083820500000000006 0.16153299999999998 -0.016048
v -0.083820500000000006 0.16153299999999998 -0.0011549999999999963
v -0.083820500000000006 0.16153299999999998 0.013738000000000007
v -0.083820500000000006 0.16153299999999998 0.028630999999999997
v -0.083820500000000006 0.16153299999999998 0.043524
v -0.083820500000000006 0.176426 -0.060726999999999996
v -0.083820500000000006 0.176426 -0.045834
v -0.083820500000000006 0.176426 -0.030940999999999996
v -0.083820500000000006 0.176426 -0.016048
v -0.083820500000000006 0.176426 -0.0011549999999999963
v -0.083820500000000006 0.19131899999999999 -0.060726999999999996
v -0.083820500000000006 0.19131899999999999 -0.045834
v -0.083820500000000006 0.19131899999999999 -0.030940999999999996
v -0.068927500000000003 0.027495999999999993 -0.016048
v -0.068927500000000003 0.027495999999999993 -0.0011549999999999963
v -0.068927500000000003 0.027495999999999993 0.013738000000000007
v -0.068927500000000003 0.027495999999999993 0.028630999999999997
v -0.068927500000000003 0.027495999999999993 0.043524
v -0.068927500000000003 0.027495999999999993 0.058417000000000004
v -0.068927500000000003 0.042388999999999996 -0.016048
v -0.068927500000000003 0.042388999999999996 -0.0011549999999999963
v -0.068927500000000003 0.042388999999999996 0.013738000000000007
v -0.068927500000000003 0.042388999999999996 0.028630999999999997
v -0.068927500000000003 0.042388999999999996 0.043524
v -0.068927500000000003 0.042388999999999996 0.058417000000000004
v -0.068927500000000003 0.057281999999999993 -0.030940999999999996
v -0.068927500000000003 0.057281999999999993 -0.016048
v -0.068927500000000003 0.057281999999999993 -0.0011549999999999963
v -0.068927500000000003 0.057281999999999993 0.013738000000000007
v -0.068927500000000003 0.057281999999999993 0.028630999999999997
v -0.068927500000000003 0.057281999999999993 0.043524
v -0.068927500000000003 0.057281999999999993 0.058417000000000004
v -0.068927500000000003 0.072174999999999989 -0.030940999999999996
v -0.068927500000000003 0.072174999999999989 -0.016048
v -0.068927500000000003 0.072174999999999989 0.043524
v -0.068927500000000003 0.072174999999999989 0.058417000000000004
v -0.068927500000000003 0.087067999999999993 -0.030940999999999996
v -0.068927500000000003 0.087067999999999993 0.043524
v -0.068927500000000003 0.087067999999999993 0.058417000000000004
v -0.068927500000000003 0.101961 -0.030940999999999996
v -0.068927500000000003 0.101961 -0.016048
v -0.068927500000000003 0.101961 0.043524
v -0.068927500000000003 0.101961 0.058417000000000004
v -0.068927500000000003 0.11685399999999999 -0.030940999999999996
v -0.068927500000000003 0.11685399999999999 -0.016048
v -0.068927500000000003 0.11685399999999999 0.058417000000000004
v -0.068927500000000003 0.131747 -0.030940999999999996
v -0.068927500000000003 0.131747 -0.016048
v -0.068927500000000003 0.131747 0.058417000000000004
v -0.068927500000000003 0.14663999999999999 -0.060726999999999996
v -0.068927500000000003 0.14663999999999999 -0.045834
v -0.068927500000000003 0.14663999999999999 -0.030940999999999996
v -0.068927500000000003 0.14663999999999999 0.043524
v -0.068927500000000003 0.14663999999999999 0.058417000000000004
v -0.068927500000000003 0.16153299999999998 -0.060726999999999996
v -0.068927500000000003 0.16153299999999998 -0.0011549999999999963
v -0.068927500000000003 0.16153299999999998 0.013738000000000007
v -0.068927500000000003 0.16153299999999998 0.028630999999999997
v -0.068927500000000003 0.16153299999999998 0.043524
v -0.068927500000000003 0.176426 -0.060726999999999996
v -0.068927500000000003 0.176426 -0.045834
v -0.068927500000000003 0.176426 -0.030940999999999996
v -0.068927500000000003 0.176426 -0.016048
v -0.068927500000000003 0.176426 -0.0011549999999999963
v -0.068927500000000003 0.19131899999999999 -0.060726999999999996
v -0.068927500000000003 0.19131899999999999 -0.045834
v -0.068927500000000003 0.19131899999999999 -0.030940999999999996
v -0.054034500000000013 0.027495999999999993 -0.030940999999999996
v -0.054034500000000013 0.027495999999999993 -0.016048
v -0.054034500000000013 0.027495999999999993 -0.0011549999999999963
v -0.054034500000000013 0.027495999999999993 0.013738000000000007
v -0.054034500000000013 0.027495999999999993 0.028630999999999997
v -0.054034500000000013 0.027495999999999993 0.043524
v -0.054034500000000013 0.027495999999999993 0.058417000000000004
v -0.054034500000000013 0.042388999999999996 -0.030940999999999996
v -0.054034500000000013 0.042388999999999996 -0.016048
v -0.054034500000000013 0.042388999999999996 0.058417000000000004
v -0.054034500000000013 0.057281999999999993 -0.030940999999999996
v -0.054034500000000013 0.057281999999999993 -0.016048
v -0.054034500000000013 0.057281999999999993 0.043524
v -0.054034500000000013 0.057281999999999993 0.058417000000000004
v -0.054034500000000013 0.072174999999999989 -0.030940999999999996
v -0.054034500000000013 0.072174999999999989 0.043524
v -0.054034500000000013 0.072174999999999989 0.058417000000000004
v -0.054034500000000013 0.087067999999999993 -0.030940999999999996
v -0.054034500000000013 0.087067999999999993 0.058417000000000004
v -0.054034500000000013 0.101961 -0.030940999999999996
v -0.054034500000000013 0.101961 0.043524
v -0.054034500000000013 0.101961 0.058417000000000004
v -0.054034500000000013 0.11685399999999999 -0.030940999999999996
v -0.054034500000000013 0.11685399999999999 -0.016048
v -0.054034500000000013 0.11685399999999999 0.043524
v -0.054034500000000013 0.11685399999999999 0.058417000000000004
v -0.054034500000000013 0.131747 -0.030940999999999996
v -0.054034500000000013 0.131747 -0.016048
v -0.054034500000000013 0.131747 0.043524
v -0.054034500000000013 0.131747 0.058417000000000004
v -0.054034500000000013 0.14663999999999999 -0.060726999999999996
v -0.054034500000000013 0.14663999999999999 -0.045834
v -0.054034500000000013 0.14663999999999999 -0.030940999999999996
v -0.054034500000000013 0.14663999999999999 -0.016048
v -0.054034500000000013 0.14663999999999999 0.028630999999999997
v -0.054034500000000013 0.14663999999999999 0.043524
v -0.054034500000000013 0.14663999999999999 0.058417000000000004
v -0.054034500000000013 0.16153299999999998 -0.060726999999999996
v -0.054034500000000013 0.16153299999999998 -0.045834
v -0.054034500000000013 0.16153299999999998 -0.030940999999999996
v -0.054034500000000013 0.16153299999999998 -0.016048
v -0.054034500000000013 0.16153299999999998 -0.0011549999999999963
v -0.054034500000000013 0.16153299999999998 0.013738000000000007
v -0.054034500000000013 0.16153299999999998 0.028630999999999997
v -0.054034500000000013 0.16153299999999998 0.043524
v -0.054034500000000013 0.176426 -0.060726999999999996
v -0.054034500000000013 0.176426 -0.045834
v -0.054034500000000013 0.176426 -0.030940999999999996
v -0.054034500000000013 0.176426 -0.016048
v -0.054034500000000013 0.176426 -0.0011549999999999963
v -0.054034500000000013 0.176426 0.013738000000000007
v -0.054034500000000013 0.19131899999999999 -0.060726999999999996
v -0.054034500000000013 0.19131899999999999 -0.045834
v -0.03914150000000001 0.027495999999999993 -0.030940999999999996
v -0.03914150000000001 0.027495999999999993 -0.016048
v -0.03914150000000001 0.027495999999999993 -0.0011549999999999963
v -0.03914150000000001 0.027495999999999993 0.013738000000000007
v -0.03914150000000001 0.027495999999999993 0.028630999999999997
v -0.03914150000000001 0.027495999999999993 0.043524
v -0.03914150000000001 0.027495999999999993 0.058417000000000004
v -0.03914150000000001 0.042388999999999996 -0.030940999999999996
v -0.03914150000000001 0.042388999999999996 0.058417000000000004
v -0.03914150000000001 0.057281999999999993 -0.045834
v -0.03914150000000001 0.057281999999999993 -0.030940999999999996
v -0.03914150000000001 0.057281999999999993 0.043524
v -0.03914150000000001 0.057281999999999993 0.058417000000000004
v -0.03914150000000001 0.072174999999999989 -0.045834
v -0.03914150000000001 0.072174999999999989 -0.030940999999999996
v -0.03914150000000001 0.072174999999999989 0.043524
v -0.03914150000000001 0.072174999999999989 0.058417000000000004
v -0.03914150000000001 0.087067999999999993 -0.045834
v -0.03914150000000001 0.087067999999999993 -0.030940999999999996
v -0.03914150000000001 0.087067999999999993 0.058417000000000004
v -0.03914150000000001 0.101961 -0.045834
v -0.03914150000000001 0.101961 -0.030940999999999996
v -0.03914150000000001 0.101961 0.043524
v -0.03914150000000001 0.101961 0.058417000000000004
v -0.03914150000000001 0.11685399999999999 -0.030940999999999996
v -0.03914150000000001 0.11685399999999999 -0.016048
v -0.03914150000000001 0.11685399999999999 0.043524
v -0.03914150000000001 0.131747 -0.016048
v -0.03914150000000001 0.131747 -0.0011549999999999963
v -0.03914150000000001 0.131747 0.013738000000000007
v -0.03914150000000001 0.131747 0.028630999999999997
v -0.03914150000000001 0.131747 0.043524
v -0.03914150000000001 0.14663999999999999 -0.016048
v -0.03914150000000001 0.14663999999999999 -0.0011549999999999963
v -0.03914150000000001 0.14663999999999999 0.013738000000000007
v -0.03914150000000001 0.14663999999999999 0.028630999999999997
v -0.03914150000000001 0.14663999999999999 0.043524
v -0.03914150000000001 0.16153299999999998 -0.030940999999999996
v -0.03914150000000001 0.16153299999999998 -0.016048
v -0.03914150000000001 0.16153299999999998 0.013738000000000007
v -0.03914150000000001 0.16153299999999998 0.028630999999999997
v -0.03914150000000001 0.176426 -0.030940999999999996
v -0.03914150000000001 0.176426 -0.016048
v -0.03914150000000001 0.176426 -0.0011549999999999963
v -0.03914150000000001 0.176426 0.013738000000000007
v -0.03914150000000001 0.19131899999999999 -0.030940999999999996
v -0.03914150000000001 0.19131899999999999 -0.016048
v -0.03914150000000001 0.19131899999999999 -0.0011549999999999963
v -0.024248500000000006 0.027495999999999993 -0.030940999999999996
v -0.024248500000000006 0.027495999999999993 -0.016048
v -0.024248500000000006 0.027495999999999993 -0.0011549999999999963
v -0.024248500000000006 0.027495999999999993 0.013738000000000007
v -0.024248500000000006 0.027495999999999993 0.028630999999999997
v -0.024248500000000006 0.027495999999999993 0.043524
v -0.024248500000000006 0.027495999999999993 0.058417000000000004
v -0.024248500000000006 0.042388999999999996 -0.045834
v -0.024248500000000006 0.042388999999999996 -0.030940999999999996
v -0.024248500000000006 0.042388999999999996 0.058417000000000004
v -0.024248500000000006 0.057281999999999993 -0.045834
v -0.024248500000000006 0.057281999999999993 -0.030940999999999996
v -0.024248500000000006 0.057281999999999993 0.058417000000000004
v -0.024248500000000006 0.072174999999999989 -0.045834
v -0.024248500000000006 0.072174999999999989 0.058417000000000004
v -0.024248500000000006 0.087067999999999993 -0.045834
v -0.024248500000000006 0.087067999999999993 0.058417000000000004
v -0.024248500000000006 0.101961 -0.045834
v -0.024248500000000006 0.101961 -0.030940999999999996
v -0.024248500000000006 0.101961 0.043524
v -0.024248500000000006 0.101961 0.058417000000000004
v -0.024248500000000006 0.11685399999999999 -0.030940999999999996
v -0.024248500000000006 0.11685399999999999 -0.016048
v -0.024248500000000006 0.11685399999999999 0.043524
v -0.024248500000000006 0.11685399999999999 0.058417000000000004
v -0.024248500000000006 0.131747 -0.016048
v -0.024248500000000006 0.131747 -0.0011549999999999963
v -0.024248500000000006 0.131747 0.013738000000000007
v -0.024248500000000006 0.131747 0.028630999999999997
v -0.024248500000000006 0.131747 0.043524
v -0.024248500000000006 0.14663999999999999 -0.016048
v -0.024248500000000006 0.14663999999999999 -0.0011549999999999963
v -0.024248500000000006 0.14663999999999999 0.013738000000000007
v -0.024248500000000006 0.16153299999999998 -0.030940999999999996
v -0.024248500000000006 0.16153299999999998 -0.016048
v -0.024248500000000006 0.16153299999999998 -0.0011549999999999963
v -0.024248500000000006 0.16153299999999998 0.013738000000000007
v -0.024248500000000006 0.176426 -0.030940999999999996
v -0.024248500000000006 0.176426 -0.0011549999999999963
v -0.024248500000000006 0.176426 0.013738000000000007
v -0.024248500000000006 0.19131899999999999 -0.030940999999999996
v -0.024248500000000006 0.19131899999999999 -0.016048
v -0.024248500000000006 0.19131899999999999 -0.0011549999999999963
v -0.0093555000000000166 0.027495999999999993 -0.030940999999999996
v -0.0093555000000000166 0.027495999999999993 -0.016048
v -0.0093555000000000166 0.027495999999999993 -0.0011549999999999963
v -0.0093555000000000166 0.027495999999999993 0.013738000000000007
v -0.0093555000000000166 0.027495999999999993 0.028630999999999997
v -0.0093555000000000166 0.027495999999999993 0.043524
v -0.0093555000000000166 0.027495999999999993 0.058417000000000004
v -0.0093555000000000166 0.042388999999999996 -0.045834
v -0.0093555000000000166 0.042388999999999996 -0.030940999999999996
v -0.0093555000000000166 0.042388999999999996 0.058417000000000004
v -0.0093555000000000166 0.057281999999999993 -0.045834
v -0.0093555000000000166 0.057281999999999993 0.058417000000000004
v -0.0093555000000000166 0.072174999999999989 -0.045834
v -0.0093555000000000166 0.072174999999999989 0.058417000000000004
v -0.0093555000000000166 0.087067999999999993 -0.045834
v -0.0093555000000000166 0.087067999999999993 0.058417000000000004
v -0.0093555000000000166 0.101961 -0.045834
v -0.0093555000000000166 0.101961 -0.030940999999999996
v -0.0093555000000000166 0.101961 0.058417000000000004
v -0.0093555000000000166 0.11685399999999999 -0.030940999999999996
v -0.0093555000000000166 0.11685399999999999 -0.016048
v -0.0093555000000000166 0.11685399999999999 0.043524
v -0.0093555000000000166 0.11685399999999999 0.058417000000000004
v -0.0093555000000000166 0.131747 -0.030940999999999996
v -0.0093555000000000166 0.131747 -0.016048
v -0.0093555000000000166 0.131747 -0.0011549999999999963
v -0.0093555000000000166 0.131747 0.013738000000000007
v -0.0093555000000000166 0.131747 0.028630999999999997
v -0.0093555000000000166 0.131747 0.043524
v -0.0093555000000000166 0.14663999999999999 -0.016048
v -0.0093555000000000166 0.14663999999999999 -0.0011549999999999963
v -0.0093555000000000166 0.16153299999999998 -0.030940999999999996
v -0.0093555000000000166 0.16153299999999998 -0.016048
v -0.0093555000000000166 0.16153299999999998 -0.0011549999999999963
v -0.0093555000000000166 0.176426 -0.030940999999999996
v -0.0093555000000000166 0.176426 -0.016048
v -0.0093555000000000166 0.176426 -0.0011549999999999963
v -0.0093555000000000166 0.19131899999999999 -0.030940999999999996
v -0.0093555000000000166 0.19131899999999999 -0.016048
v -0.0093555000000000166 0.19131899999999999 -0.0011549999999999963
v 0.0055374999999999869 0.027495999999999993 -0.030940999999999996
v 0.0055374999999999869 0.027495999999999993 -0.016048
v 0.0055374999999999869 0.027495999999999993 -0.0011549999999999963
v 0.0055374999999999869 0.027495999999999993 0.013738000000000007
v 0.0055374999999999869 0.027495999999999993 0.028630999999999997
v 0.0055374999999999869 0.027495999999999993 0.043524
v 0.0055374999999999869 0.027495999999999993 0.058417000000000004
v 0.0055374999999999869 0.042388999999999996 -0.045834
v 0.0055374999999999869 0.042388999999999996 -0.030940999999999996
v 0.0055374999999999869 0.042388999999999996 0.058417000000000004
v 0.0055374999999999869 0.057281999999999993 -0.045834
v 0.0055374999999999869 0.057281999999999993 -0.030940999999999996
v 0.0055374999999999869 0.057281999999999993 0.058417000000000004
v 0.0055374999999999869 0.072174999999999989 -0.045834
v 0.0055374999999999869 0.072174999999999989 0.058417000000000004
v 0.0055374999999999869 0.087067999999999993 -0.045834
v 0.0055374999999999869 0.087067999999999993 0.058417000000000004
v 0.0055374999999999869 0.101961 -0.045834
v 0.0055374999999999869 0.101961 -0.030940999999999996
v 0.0055374999999999869 0.101961 0.058417000000000004
v 0.0055374999999999869 0.11685399999999999 -0.030940999999999996
v 0.0055374999999999869 0.11685399999999999 0.043524
v 0.0055374999999999869 0.11685399999999999 0.058417000000000004
v 0.0055374999999999869 0.131747 -0.030940999999999996
v 0.0055374999999999869 0.131747 -0.016048
v 0.0055374999999999869 0.131747 -0.0011549999999999963
v 0.0055374999999999869 0.131747 0.013738000000000007
v 0.0055374999999999869 0.131747 0.028630999999999997
v 0.0055374999999999869 0.131747 0.043524
v 0.02043049999999999 0.027495999999999993 -0.030940999999999996
v 0.02043049999999999 0.027495999999999993 -0.016048
v 0.02043049999999999 0.027495999999999993 -0.0011549999999999963
v 0.02043049999999999 0.027495999999999993 0.013738000000000007
v 0.02043049999999999 0.027495999999999993 0.028630999999999997
v 0.02043049999999999 0.027495999999999993 0.043524
v 0.02043049999999999 0.027495999999999993 0.058417000000000004
v 0.02043049999999999 0.042388999999999996 -0.030940999999999996
v 0.02043049999999999 0.042388999999999996 0.043524
v 0.02043049999999999 0.042388999999999996 0.058417000000000004
v 0.02043049999999999 0.057281999999999993 -0.045834
v 0.02043049999999999 0.057281999999999993 -0.030940999999999996
v 0.02043049999999999 0.057281999999999993 0.058417000000000004
v 0.02043049999999999 0.072174999999999989 -0.045834
v 0.02043049999999999 0.072174999999999989 -0.030940999999999996
v 0.02043049999999999 0.072174999999999989 0.058417000000000004
v 0.02043049999999999 0.087067999999999993 -0.045834
v 0.02043049999999999 0.087067999999999993 -0.030940999999999996
v 0.02043049999999999 0.087067999999999993 0.058417000000000004
v 0.02043049999999999 0.101961 -0.045834
v 0.02043049999999999 0.101961 -0.030940999999999996
v 0.02043049999999999 0.101961 0.058417000000000004
v 0.02043049999999999 0.11685399999999999 -0.030940999999999996
v 0.02043049999999999 0.11685399999999999 -0.016048
v 0.02043049999999999 0.11685399999999999 0.043524
v 0.02043049999999999 0.11685399999999999 0.058417000000000004
v 0.02043049999999999 0.131747 -0.030940999999999996
v 0.02043049999999999 0.131747 -0.016048
v 0.02043049999999999 0.131747 -0.0011549999999999963
v 0.02043049999999999 0.131747 0.013738000000000007
v 0.02043049999999999 0.131747 0.028630999999999997
v 0.02043049999999999 0.131747 0.043524
v 0.03532349999999998 0.027495999999999993 -0.030940999999999996
v 0.03532349999999998 0.027495999999999993 -0.016048
v 0.03532349999999998 0.027495999999999993 -0.0011549999999999963
v 0.03532349999999998 0.027495999999999993 0.013738000000000007
v 0.03532349999999998 0.027495999999999993 0.028630999999999997
v 0.03532349999999998 0.027495999999999993 0.043524
v 0.03532349999999998 0.042388999999999996 -0.030940999999999996
v 0.03532349999999998 0.042388999999999996 -0.016048
v 0.03532349999999998 0.042388999999999996 0.028630999999999997
v 0.03532349999999998 0.042388999999999996 0.043524
v 0.03532349999999998 0.042388999999999996 0.058417000000000004
v 0.03532349999999998 0.057281999999999993 -0.030940999999999996
v 0.03532349999999998 0.057281999999999993 -0.016048
v 0.03532349999999998 0.057281999999999993 0.043524
v 0.03532349999999998 0.057281999999999993 0.058417000000000004
v 0.03532349999999998 0.072174999999999989 -0.030940999999999996
v 0.03532349999999998 0.072174999999999989 -0.016048
v 0.03532349999999998 0.072174999999999989 0.043524
v 0.03532349999999998 0.072174999999999989 0.058417000000000004
v 0.03532349999999998 0.087067999999999993 -0.030940999999999996
v 0.03532349999999998 0.087067999999999993 0.043524
v 0.03532349999999998 0.087067999999999993 0.058417000000000004
v 0.03532349999999998 0.101961 -0.030940999999999996
v 0.03532349999999998 0.101961 -0.016048
v 0.03532349999999998 0.101961 0.043524
v 0.03532349999999998 0.101961 0.058417000000000004
v 0.03532349999999998 0.11685399999999999 -0.030940999999999996
v 0.03532349999999998 0.11685399999999999 -0.016048
v 0.03532349999999998 0.11685399999999999 -0.0011549999999999963
v 0.03532349999999998 0.11685399999999999 0.013738000000000007
v 0.03532349999999998 0.11685399999999999 0.028630999999999997
v 0.03532349999999998 0.11685399999999999 0.043524
v 0.03532349999999998 0.11685399999999999 0.058417000000000004
v 0.03532349999999998 0.131747 -0.016048
v 0.03532349999999998 0.131747 -0.0011549999999999963
v 0.03532349999999998 0.131747 0.013738000000000007
v 0.03532349999999998 0.131747 0.028630999999999997
v 0.03532349999999998 0.131747 0.043524
v 0.050216499999999997 0.027495999999999993 -0.016048
v 0.050216499999999997 0.027495999999999993 -0.0011549999999999963
v 0.050216499999999997 0.027495999999999993 0.013738000000000007
v 0.050216499999999997 0.027495999999999993 0.028630999999999997
v 0.050216499999999997 0.042388999999999996 -0.016048
v 0.050216499999999997 0.042388999999999996 -0.0011549999999999963
v 0.050216499999999997 0.042388999999999996 0.013738000000000007
v 0.050216499999999997 0.042388999999999996 0.028630999999999997
v 0.050216499999999997 0.042388999999999996 0.043524
v 0.050216499999999997 0.057281999999999993 -0.016048
v 0.050216499999999997 0.057281999999999993 0.043524
v 0.050216499999999997 0.072174999999999989 -0.030940999999999996
v 0.050216499999999997 0.072174999999999989 -0.016048
v 0.050216499999999997 0.072174999999999989 -0.0011549999999999963
v 0.050216499999999997 0.072174999999999989 0.028630999999999997
v 0.050216499999999997 0.072174999999999989 0.043524
v 0.050216499999999997 0.087067999999999993 -0.030940999999999996
v 0.050216499999999997 0.087067999999999993 -0.016048
v 0.050216499999999997 0.087067999999999993 -0.0011549999999999963
v 0.050216499999999997 0.087067999999999993 0.013738000000000007
v 0.050216499999999997 0.087067999999999993 0.028630999999999997
v 0.050216499999999997 0.087067999999999993 0.043524
v 0.050216499999999997 0.101961 -0.030940999999999996
v 0.050216499999999997 0.101961 -0.016048
v 0.050216499999999997 0.101961 -0.0011549999999999963
v 0.050216499999999997 0.101961 0.013738000000000007
v 0.050216499999999997 0.101961 0.028630999999999997
v 0.050216499999999997 0.101961 0.043524
v 0.050216499999999997 0.11685399999999999 -0.016048
v 0.050216499999999997 0.11685399999999999 -0.0011549999999999963
v 0.050216499999999997 0.11685399999999999 0.013738000000000007
v 0.050216499999999997 0.11685399999999999 0.028630999999999997
v 0.050216499999999997 0.11685399999999999 0.043524
v 0.065109499999999987 0.042388999999999996 -0.016048
v 0.065109499999999987 0.042388999999999996 -0.0011549999999999963
v 0.065109499999999987 0.042388999999999996 0.013738000000000007
v 0.065109499999999987 0.042388999999999996 0.028630999999999997
v 0.065109499999999987 0.042388999999999996 0.043524
v 0.065109499999999987 0.057281999999999993 -0.016048
v 0.065109499999999987 0.057281999999999993 -0.0011549999999999963
v 0.065109499999999987 0.057281999999999993 0.013738000000000007
v 0.065109499999999987 0.057281999999999993 0.028630999999999997
v 0.065109499999999987 0.057281999999999993 0.043524
v 0.065109499999999987 0.072174999999999989 -0.016048
v 0.065109499999999987 0.072174999999999989 -0.0011549999999999963
v 0.065109499999999987 0.072174999999999989 0.013738000000000007
v 0.065109499999999987 0.072174999999999989 0.028630999999999997
v 0.065109499999999987 0.072174999999999989 0.043524
v 0.065109499999999987 0.087067999999999993 -0.0011549999999999963
v 0.065109499999999987 0.087067999999999993 0.013738000000000007
v 0.065109499999999987 0.087067999999999993 0.028630999999999997
f 473 477 478
f 478 474 473
f 447 448 478
f 478 477 447
f 472 476 477
f 477 473 472
f 467 472 473
f 473 468 467
f 466 471 472
f 472 467 466
f 440 441 472
f 472 471 440
f 435 464 465
f 465 436 435
f 463 468 469
f 469 464 463
f 432 461 462
f 462 433 432
f 432 437 466
f 466 461 432
f 453 458 459
f 459 454 453
f 418 419 458
f 458 457 418
f 451 456 457
f 457 452 451
f 410 449 455
f 455 414 410
f 447 453 454
f 454 448 447
f 445 451 452
f 452 446 445
f 444 450 451
f 451 445 444
f 409 412 450
f 450 444 409
f 442 448 449
f 449 443 442
f 433 462 463
f 463 434 433
f 407 443 449
f 449 410 407
f 440 445 446
f 446 441 440
f 439 444 445
f 445 440 439
f 402 406 440
f 440 437 402
f 398 435 436
f 436 399 398
f 399 436 438
f 438 403 399
f 419 420 459
f 459 458 419
f 430 434 435
f 435 431 430
f 429 433 434
f 434 430 429
f 391 397 432
f 432 428 391
f 419 425 426
f 426 420 419
f 418 424 425
f 425 419 418
f 386 387 425
f 425 424 386
f 382 383 422
f 422 421 382
f 414 455 460
f 460 421 414
f 441 446 476
f 476 472 441
f 391 428 429
f 429 392 391
f 410 414 415
f 415 411 410
f 373 408 411
f 411 376 373
f 370 404 408
f 408 373 370
f 369 372 405
f 405 401 369
f 399 403 404
f 404 400 399
f 366 399 400
f 400 367 366
f 365 369 401
f 401 396 365
f 358 390 391
f 391 359 358
f 356 357 389
f 389 388 356
f 350 382 389
f 389 357 350
f 349 352 384
f 384 380 349
f 374 377 378
f 378 375 374
f 361 393 394
f 394 362 361
f 343 373 376
f 376 345 343
f 342 344 374
f 374 371 342
f 388 389 427
f 427 426 388
f 368 371 372
f 372 369 368
f 339 368 369
f 369 340 339
f 339 342 371
f 371 368 339
f 371 374 375
f 375 372 371
f 394 431 435
f 435 398 394
f 337 340 369
f 369 365 337
f 363 366 367
f 367 364 363
f 334 363 364
f 364 335 334
f 335 364 367
f 367 338 335
f 330 359 360
f 360 331 330
f 316 317 357
f 357 356 316
f 315 316 356
f 356 355 315
f 314 315 355
f 355 354 314
f 313 314 354
f 354 353 313
f 308 312 352
f 352 349 308
f 307 348 351
f 351 311 307
f 308 309 313
f 313 312 308
f 304 345 348
f 348 307 304
f 305 306 347
f 347 346 305
f 303 305 346
f 346 344 303
f 344 346 377
f 377 374 344
f 302 343 345
f 345 304 302
f 379 415 422
f 422 383 379
f 298 338 341
f 341 300 298
f 333 362 363
f 363 334 333
f 336 339 340
f 340 337 336
f 294 334 335
f 335 295 294
f 295 335 338
f 338 298 295
f 292 332 333
f 333 293 292
f 291 331 332
f 332 292 291
f 396 401 402
f 402 397 396
f 290 330 331
f 331 291 290
f 289 329 330
f 330 290 289
f 289 297 337
f 337 329 289
f 324 327 328
f 328 325 324
f 286 287 327
f 327 326 286
f 283 286 326
f 326 323 283
f 464 469 470
f 470 465 464
f 321 324 325
f 325 322 321
f 293 333 334
f 334 294 293
f 281 322 325
f 325 284 281
f 320 323 324
f 324 321 320
f 347 349 380
f 380 378 347
f 279 320 321
f 321 280 279
f 276 280 321
f 321 318 276
f 274 275 317
f 317 316 274
f 269 310 317
f 317 275 269
f 273 274 316
f 316 315 273
f 271 272 314
f 314 313 271
f 268 271 313
f 313 309 268
f 265 266 270
f 270 269 265
f 269 270 311
f 311 310 269
f 267 268 309
f 309 308 267
f 332 361 362
f 362 333 332
f 264 267 308
f 308 306 264
f 262 304 307
f 307 266 262
f 260 302 304
f 304 262 260
f 394 398 399
f 399 395 394
f 259 261 303
f 303 301 259
f 329 358 359
f 359 330 329
f 258 300 302
f 302 260 258
f 405 439 440
f 440 406 405
f 412 413 451
f 451 450 412
f 331 360 361
f 361 332 331
f 256 259 301
f 301 299 256
f 255 298 300
f 300 258 255
f 376 411 415
f 415 379 376
f 253 296 297
f 297 254 253
f 251 294 295
f 295 252 251
f 250 293 294
f 294 251 250
f 249 292 293
f 293 250 249
f 248 291 292
f 292 249 248
f 247 290 291
f 291 248 247
f 246 289 290
f 290 247 246
f 312 313 353
f 353 352 312
f 246 254 297
f 297 289 246
f 240 241 245
f 245 244 240
f 281 284 285
f 285 282 281
f 241 242 285
f 285 284 241
f 237 282 285
f 285 242 237
f 235 236 240
f 240 239 235
f 434 463 464
f 464 435 434
f 235 279 280
f 280 236 235
f 235 239 283
f 283 279 235
f 231 277 278
f 278 232 231
f 232 278 282
f 282 237 232
f 230 276 277
f 277 231 230
f 417 418 457
f 457 456 417
f 230 236 280
f 280 276 230
f 39 42 97
f 97 91 39
f 224 269 275
f 275 229 224
f 137 142 196
f 196 190 137
f 226 227 273
f 273 272 226
f 225 226 272
f 272 271 225
f 220 265 269
f 269 224 220
f 80 81 135
f 135 134 80
f 222 223 268
f 268 267 222
f 420 421 460
f 460 459 420
f 469 474 475
f 475 470 469
f 17 23 66
f 66 63 17
f 306 308 349
f 349 347 306
f 215 218 263
f 263 261 215
f 69 128 129
f 129 70 69
f 149 202 203
f 203 150 149
f 239 243 286
f 286 283 239
f 138 191 197
f 197 143 138
f 211 212 216
f 216 215 211
f 261 263 305
f 305 303 261
f 184 192 193
f 193 185 184
f 209 210 214
f 214 213 209
f 352 353 385
f 385 384 352
f 323 326 327
f 327 324 323
f 190 196 197
f 197 191 190
f 207 208 212
f 212 211 207
f 401 405 406
f 406 402 401
f 452 457 458
f 458 453 452
f 372 375 409
f 409 405 372
f 11 12 18
f 18 17 11
f 205 208 257
f 257 254 205
f 203 251 252
f 252 204 203
f 428 432 433
f 433 429 428
f 204 252 255
f 255 206 204
f 200 248 249
f 249 201 200
f 228 229 275
f 275 274 228
f 88 89 143
f 143 142 88
f 103 110 159
f 159 155 103
f 198 205 254
f 254 246 198
f 194 195 242
f 242 241 194
f 187 237 242
f 242 195 187
f 165 220 224
f 224 169 165
f 193 194 241
f 241 240 193
f 6 7 12
f 12 11 6
f 228 233 234
f 234 229 228
f 40 41 44
f 44 43 40
f 179 180 234
f 234 233 179
f 227 232 233
f 233 228 227
f 108 109 158
f 158 157 108
f 226 231 232
f 232 227 226
f 405 409 444
f 444 439 405
f 277 319 322
f 322 281 277
f 225 230 231
f 231 226 225
f 172 178 230
f 230 225 172
f 133 134 187
f 187 186 133
f 211 215 261
f 261 259 211
f 22 64 67
f 67 28 22
f 266 307 311
f 311 270 266
f 164 167 222
f 222 219 164
f 68 127 128
f 128 69 68
f 163 217 221
f 221 166 163
f 385 386 424
f 424 423 385
f 160 213 214
f 214 161 160
f 403 438 443
f 443 407 403
f 113 161 163
f 163 116 113
f 17 18 24
f 24 23 17
f 201 249 250
f 250 202 201
f 159 162 216
f 216 212 159
f 390 396 397
f 397 391 390
f 300 341 343
f 343 302 300
f 155 159 212
f 212 208 155
f 154 206 210
f 210 158 154
f 161 214 217
f 217 163 161
f 152 155 208
f 208 205 152
f 150 203 204
f 204 151 150
f 363 395 399
f 399 366 363
f 151 204 206
f 206 154 151
f 91 97 153
f 153 146 91
f 171 177 178
f 178 172 171
f 183 191 192
f 192 184 183
f 147 200 201
f 201 148 147
f 145 198 199
f 199 146 145
f 462 467 468
f 468 463 462
f 145 152 205
f 205 198 145
f 284 325 328
f 328 288 284
f 133 186 194
f 194 141 133
f 227 228 274
f 274 273 227
f 138 139 192
f 192 191 138
f 132 137 190
f 190 182 132
f 130 180 189
f 189 136 130
f 345 376 379
f 379 348 345
f 207 211 259
f 259 256 207
f 176 183 184
f 184 177 176
f 175 182 183
f 183 176 175
f 219 222 267
f 267 264 219
f 177 184 185
f 185 178 177
f 130 131 181
f 181 180 130
f 135 136 189
f 189 188 135
f 1 6 57
f 57 51 1
f 199 247 248
f 248 200 199
f 392 429 430
f 430 393 392
f 380 381 417
f 417 416 380
f 124 171 172
f 172 125 124
f 65 124 125
f 125 66 65
f 215 216 219
f 219 218 215
f 169 173 174
f 174 170 169
f 91 146 147
f 147 92 91
f 146 199 200
f 200 147 146
f 123 170 174
f 174 126 123
f 145 146 153
f 153 152 145
f 128 176 177
f 177 129 128
f 341 370 373
f 373 343 341
f 6 11 60
f 60 57 6
f 220 221 266
f 266 265 220
f 179 188 189
f 189 180 179
f 122 125 172
f 172 168 122
f 15 16 22
f 22 21 15
f 165 166 221
f 221 220 165
f 350 351 383
f 383 382 350
f 120 166 170
f 170 123 120
f 117 118 122
f 122 121 117
f 276 318 319
f 319 277 276
f 127 132 182
f 182 175 127
f 121 122 168
f 168 167 121
f 117 121 167
f 167 164 117
f 263 264 306
f 306 305 263
f 115 116 120
f 120 119 115
f 198 246 247
f 247 199 198
f 358 365 396
f 396 390 358
f 112 113 116
f 116 115 112
f 167 168 223
f 223 222 167
f 253 254 257
f 257 256 253
f 58 115 119
f 119 61 58
f 92 147 148
f 148 93 92
f 353 354 386
f 386 385 353
f 64 123 126
f 126 67 64
f 110 114 162
f 162 159 110
f 348 379 383
f 383 351 348
f 103 104 111
f 111 110 103
f 8 9 14
f 14 13 8
f 43 46 105
f 105 98 43
f 101 102 109
f 109 108 101
f 165 169 170
f 170 166 165
f 102 154 158
f 158 109 102
f 43 44 47
f 47 46 43
f 468 473 474
f 474 469 468
f 83 88 142
f 142 137 83
f 99 100 107
f 107 106 99
f 68 69 76
f 76 75 68
f 214 260 262
f 262 217 214
f 354 355 387
f 387 386 354
f 29 30 72
f 72 71 29
f 97 98 105
f 105 104 97
f 41 93 99
f 99 44 41
f 187 188 238
f 238 237 187
f 127 175 176
f 176 128 127
f 95 96 102
f 102 101 95
f 23 29 71
f 71 66 23
f 168 172 225
f 225 223 168
f 94 149 150
f 150 95 94
f 387 388 426
f 426 425 387
f 93 94 100
f 100 99 93
f 30 31 36
f 36 35 30
f 14 15 21
f 21 20 14
f 287 288 328
f 328 327 287
f 78 79 87
f 87 86 78
f 296 336 337
f 337 297 296
f 202 250 251
f 251 203 202
f 63 66 125
f 125 122 63
f 142 143 197
f 197 196 142
f 217 262 266
f 266 221 217
f 49 108 112
f 112 55 49
f 378 380 416
f 416 412 378
f 407 410 411
f 411 408 407
f 393 430 431
f 431 394 393
f 15 61 62
f 62 16 15
f 138 143 144
f 144 139 138
f 89 90 144
f 144 143 89
f 85 139 144
f 144 90 85
f 86 87 141
f 141 140 86
f 79 133 141
f 141 87 79
f 77 78 86
f 86 85 77
f 114 117 164
f 164 162 114
f 85 86 140
f 140 139 85
f 13 14 20
f 20 19 13
f 412 416 417
f 417 413 412
f 70 71 78
f 78 77 70
f 65 66 71
f 71 70 65
f 81 82 136
f 136 135 81
f 169 224 229
f 229 173 169
f 69 70 77
f 77 76 69
f 30 35 79
f 79 72 30
f 206 255 258
f 258 210 206
f 4 54 55
f 55 5 4
f 103 155 156
f 156 104 103
f 252 295 298
f 298 255 252
f 68 75 132
f 132 127 68
f 73 74 131
f 131 130 73
f 50 110 111
f 111 51 50
f 437 440 471
f 471 466 437
f 179 233 238
f 238 188 179
f 44 99 106
f 106 47 44
f 65 70 129
f 129 124 65
f 112 160 161
f 161 113 112
f 403 407 408
f 408 404 403
f 367 400 404
f 404 370 367
f 62 120 123
f 123 64 62
f 438 470 475
f 475 443 438
f 346 347 378
f 378 377 346
f 71 72 79
f 79 78 71
f 375 378 412
f 412 409 375
f 93 148 149
f 149 94 93
f 186 187 195
f 195 194 186
f 60 63 122
f 122 118 60
f 360 392 393
f 393 361 360
f 73 130 136
f 136 82 73
f 3 4 9
f 9 8 3
f 446 447 477
f 477 476 446
f 116 163 166
f 166 120 116
f 157 209 213
f 213 160 157
f 84 85 90
f 90 89 84
f 19 20 26
f 26 25 19
f 329 337 365
f 365 358 329
f 448 454 455
f 455 449 448
f 243 244 287
f 287 286 243
f 45 51 111
f 111 104 45
f 95 150 151
f 151 96 95
f 362 394 395
f 395 363 362
f 75 76 84
f 84 83 75
f 436 465 470
f 470 438 436
f 148 201 202
f 202 149 148
f 446 452 453
f 453 447 446
f 241 284 288
f 288 245 241
f 124 129 177
f 177 171 124
f 59 60 118
f 118 117 59
f 56 59 117
f 117 114 56
f 310 350 357
f 357 317 310
f 139 140 193
f 193 192 139
f 134 135 188
f 188 187 134
f 162 164 219
f 219 216 162
f 94 95 101
f 101 100 94
f 301 303 344
f 344 342 301
f 140 141 194
f 194 193 140
f 61 119 120
f 120 62 61
f 173 180 181
f 181 174 173
f 46 47 53
f 53 52 46
f 56 57 60
f 60 59 56
f 50 56 114
f 114 110 50
f 20 21 27
f 27 26 20
f 397 402 437
f 437 432 397
f 48 107 108
f 108 49 48
f 417 423 424
f 424 418 417
f 67 126 131
f 131 74 67
f 47 106 107
f 107 48 47
f 11 17 63
f 63 60 11
f 10 58 61
f 61 15 10
f 48 49 55
f 55 54 48
f 45 104 105
f 105 46 45
f 24 25 31
f 31 30 24
f 182 190 191
f 191 183 182
f 454 459 460
f 460 455 454
f 310 311 351
f 351 350 310
f 40 92 93
f 93 41 40
f 178 185 236
f 236 230 178
f 210 258 260
f 260 214 210
f 7 8 13
f 13 12 7
f 97 104 156
f 156 153 97
f 39 91 92
f 92 40 39
f 39 40 43
f 43 42 39
f 42 43 98
f 98 97 42
f 442 474 478
f 478 448 442
f 338 367 370
f 370 341 338
f 32 33 38
f 38 37 32
f 37 38 82
f 82 81 37
f 355 356 388
f 388 387 355
f 36 37 81
f 81 80 36
f 96 151 154
f 154 102 96
f 272 273 315
f 315 314 272
f 27 28 34
f 34 33 27
f 218 219 264
f 264 263 218
f 33 34 74
f 74 73 33
f 157 158 210
f 210 209 157
f 239 240 244
f 244 243 239
f 28 67 74
f 74 34 28
f 26 27 33
f 33 32 26
f 100 101 108
f 108 107 100
f 279 283 323
f 323 320 279
f 18 19 25
f 25 24 18
f 108 157 160
f 160 112 108
f 442 443 475
f 475 474 442
f 318 321 322
f 322 319 318
f 47 48 54
f 54 53 47
f 277 281 282
f 282 278 277
f 76 77 85
f 85 84 76
f 50 51 57
f 57 56 50
f 126 174 181
f 181 131 126
f 33 73 82
f 82 38 33
f 420 426 427
f 427 421 420
f 413 417 456
f 456 451 413
f 79 80 134
f 134 133 79
f 21 22 28
f 28 27 21
f 55 112 115
f 115 58 55
f 223 225 271
f 271 268 223
f 380 384 385
f 385 381 380
f 45 46 52
f 52 51 45
f 299 301 342
f 342 339 299
f 173 229 234
f 234 180 173
f 296 299 339
f 339 336 296
f 9 10 15
f 15 14 9
f 23 24 30
f 30 29 23
f 12 13 19
f 19 18 12
f 83 84 89
f 89 88 83
f 381 385 423
f 423 417 381
f 185 193 240
f 240 236 185
f 4 5 10
f 10 9 4
f 16 62 64
f 64 22 16
f 3 53 54
f 54 4 3
f 152 153 156
f 156 155 152
f 1 51 52
f 52 2 1
f 461 466 467
f 467 462 461
f 2 3 8
f 8 7 2
f 5 55 58
f 58 10 5
f 75 83 137
f 137 132 75
f 244 245 288
f 288 287 244
f 2 52 53
f 53 3 2
f 382 421 427
f 427 389 382
f 359 391 392
f 392 360 359
f 35 36 80
f 80 79 35
f 232 237 238
f 238 233 232
f 31 32 37
f 37 36 31
f 253 256 299
f 299 296 253
f 414 421 422
f 422 415 414
f 1 2 7
f 7 6 1
f 207 256 257
f 257 208 207
f 25 26 32
f 32 31 25
