# https://github.com/mikedh/trimesh
v -0.30399525 -0.34013586 0.22489041
v -0.31027154 -0.32484648 0.28239144
v -0.29223149 -0.17417998 0.11818806
v -0.30615460 -0.22260045 0.18541454
v -0.30234905 -0.22730868 0.26274910
v -0.31014580 -0.10176231 0.08194071
v -0.34044667 -0.08192503 0.17350724
v -0.30829795 -0.10143985 0.24975444
v -0.33042059 0.01139301 0.08056360
v -0.32041770 -0.01081154 0.18468270
v -0.23823478 -0.32447530 0.20965846
v -0.21616733 -0.34343820 0.28850947
v -0.24272730 -0.17987649 0.11405357
v -0.22519343 -0.22601428 0.17037485
v -0.23315336 -0.23701790 0.28586968
v -0.23330698 -0.10818884 0.08192857
v -0.22309468 -0.14232142 0.19069069
v -0.22824862 -0.11228680 0.25835934
v -0.22796947 -0.01921118 0.05979563
v -0.22795453 0.01425766 0.18463604
v -0.22458791 -0.04232755 0.24058696
v -0.17935386 0.16965868 0.10614278
v -0.19362807 0.14466034 0.14818251
v -0.19072695 0.25434405 0.09737494
v -0.21452111 0.24847492 0.15741080
v -0.17962159 0.33686149 0.10470097
v -0.19698739 0.35775248 0.15157732
v -0.13970340 -0.33825262 0.21703138
v -0.15112124 -0.34144546 0.30656243
v -0.13035004 -0.21954805 0.17597708
v -0.14492780 -0.23180555 0.29539815
v -0.13190588 -0.09540288 0.09991018
v -0.12713016 -0.12675823 0.18763064
v -0.13829682 -0.11653541 0.26212228
v -0.12643341 -0.01763604 0.10724721
v -0.10401473 0.00938025 0.16618030
v -0.10063151 0.13504803 0.08654003
v -0.12133053 0.11539506 0.18978020
v -0.05595540 0.12288632 0.23979936
v -0.10661733 0.25184160 0.08292296
v -0.09698123 0.24856270 0.20589225
v -0.10478257 0.36580008 0.09030317
v -0.11811004 0.39127304 0.18433244
v -0.10525959 0.49003680 0.17834510
v 0.05983305 -0.29224891 0.21268474
v 0.06233466 -0.28900714 0.24949733
v 0.01041384 -0.23863462 0.17629292
v 0.01861291 -0.22272529 0.27671757
v -0.04257232 -0.09872562 0.11715882
v 0.01370295 -0.09269805 0.17169391
v 0.01152555 -0.12968939 0.26844547
v 0.01891016 0.04579518 0.09761097
v 0.00596454 -0.00145216 0.17439043
v 0.03970672 0.05227760 0.25133292
v 0.00787775 0.13004726 0.08744197
v 0.01491288 0.16346052 0.19101516
v 0.00696438 0.10660990 0.24709043
v 0.02118784 0.27995288 0.09576599
v 0.00854184 0.25697421 0.17379616
v 0.01437689 0.30185569 0.30100132
v 0.06957079 0.31041608 0.36617443
v 0.00652434 0.36497404 0.09011816
v 0.02351279 0.39361744 0.19254042
v 0.02267874 0.32543745 0.31258149
v 0.06130691 0.32618195 0.37279539
v 0.00821019 0.46796203 0.19624477
v 0.04268325 0.48965221 0.26846410
v 0.13595798 -0.30294425 0.20349640
v 0.13651436 -0.29983671 0.26161220
v 0.13937972 -0.20840651 0.09499113
v 0.11956297 -0.24221194 0.14045439
v 0.13696424 -0.23086850 0.31441189
v 0.16145361 -0.11491937 0.09637630
v 0.09887445 -0.09233145 0.17517204
v 0.13421766 -0.10432969 0.32233065
v 0.18435777 -0.12374224 0.38624035
v 0.13793095 0.01233135 0.08771008
v 0.08788962 -0.03452685 0.17881002
v 0.13878978 0.02013587 0.28718088
v 0.11857389 0.09971206 0.10136049
v 0.13705593 0.13452730 0.17703658
v 0.12753350 0.09388066 0.25506022
v 0.14837490 0.25538198 0.07850063
v 0.12741152 0.22888003 0.19682611
v 0.14909602 0.27360799 0.29983644
v 0.14281339 0.29744101 0.37782995
v 0.13989947 0.33858307 0.09312220
v 0.13035812 0.35870503 0.18787192
v 0.15802915 0.35501516 0.30966644
v 0.12395155 0.33623073 0.38095202
v 0.09874877 0.48376421 0.22955849
v 0.13174013 0.48267394 0.28690561
v 0.18207064 0.45418436 0.36369791
v 0.25739985 -0.30048405 0.08986036
v 0.24871598 -0.29807596 0.15299956
v 0.21263240 -0.29422388 0.25292141
v 0.23990131 -0.23690743 0.08657794
v 0.25453646 -0.24082792 0.16369945
v 0.24994280 -0.21976212 0.30519631
v 0.23657361 -0.19106865 0.41073697
v 0.25666342 -0.09966712 0.07655036
v 0.28612208 -0.10370796 0.18198083
v 0.27266234 -0.10270575 0.30114031
v 0.25038064 -0.11169035 0.39765435
v 0.24424973 -0.01029424 0.07613437
v 0.27820177 0.00981898 0.17387470
v 0.25492635 0.02203661 0.30828741
v 0.26887452 0.00708336 0.36740862
v 0.21510754 0.11556462 0.17937881
v 0.25904624 0.15908290 0.30615488
v 0.26931545 0.16574436 0.36707835
v 0.23664751 0.26859715 0.04542081
v 0.27431274 0.25128187 0.19122934
v 0.25608695 0.25351442 0.30516768
v 0.25941859 0.27309805 0.36743581
v 0.23879023 0.34489572 0.07689606
v 0.26308478 0.37796208 0.18099447
v 0.26230695 0.35143589 0.30260982
v 0.23215918 0.39662208 0.36526835
v 0.26169556 0.45850438 0.19628741
v 0.24227356 0.47761906 0.28964610
v 0.22090854 0.45710947 0.36605750
f 76 100 104
f 117 112 116
f 117 113 112
f 21 17 20
f 84 113 85
f 6 19 16
f 90 86 119
f 93 90 119
f 66 91 92
f 50 74 47
f 17 20 19
f 75 103 79
f 107 106 109
f 30 50 47
f 31 51 34
f 89 85 118
f 33 50 32
f 92 118 89
f 83 81 84
f 63 84 88
f 50 51 74
f 6 19 9
f 89 118 117
f 41 58 59
f 34 50 33
f 118 120 117
f 48 45 46
f 76 72 100
f 62 63 88
f 17 14 18
f 18 34 36
f 105 106 102
f 71 74 73
f 102 97 101
f 77 101 73
f 84 59 83
f 5 2 15
f 75 72 76
f 67 66 92
f 93 119 122
f 30 32 33
f 55 80 77
f 54 53 79
f 110 107 109
f 102 99 98
f 110 109 82
f 89 90 93
f 102 106 103
f 119 118 89
f 33 31 30
f 109 105 81
f 7 10 17
f 95 97 98
f 10 17 20
f 17 18 36
f 64 85 60
f 111 110 115
f 45 71 68
f 79 82 57
f 62 87 83
f 117 114 113
f 19 35 32
f 61 90 65
f 23 37 38
f 24 42 40
f 14 30 11
f 73 101 97
f 71 98 95
f 4 14 11
f 23 22 37
f 36 35 53
f 8 18 17
f 58 62 83
f 16 32 30
f 109 106 105
f 17 16 14
f 33 34 31
f 82 109 81
f 47 71 45
f 75 76 104
f 13 17 14
f 69 96 99
f 46 69 48
f 25 41 43
f 4 3 14
f 11 30 28
f 53 78 79
f 2 5 4
f 70 97 98
f 86 114 115
f 52 77 53
f 79 107 82
f 17 16 6
f 36 37 35
f 7 4 5
f 25 27 26
f 19 36 35
f 94 95 98
f 94 97 95
f 77 105 101
f 40 41 59
f 65 90 64
f 17 18 20
f 62 88 87
f 17 36 20
f 2 11 12
f 82 81 56
f 40 58 41
f 2 12 15
f 2 4 1
f 105 80 81
f 44 43 63
f 85 89 114
f 71 95 68
f 19 20 36
f 83 113 81
f 83 87 112
f 1 4 11
f 117 118 114
f 38 56 57
f 32 49 50
f 25 24 23
f 64 90 89
f 121 120 118
f 58 59 55
f 104 108 107
f 46 68 69
f 88 117 87
f 85 114 86
f 30 31 34
f 21 18 17
f 42 62 40
f 54 79 57
f 40 59 58
f 23 24 22
f 17 19 16
f 119 121 122
f 55 56 81
f 103 104 107
f 81 109 113
f 59 41 56
f 68 95 69
f 57 38 39
f 41 38 56
f 41 59 43
f 31 30 48
f 18 20 21
f 38 53 56
f 53 77 78
f 53 54 56
f 51 75 74
f 24 26 42
f 96 98 99
f 87 116 112
f 85 113 114
f 63 59 84
f 69 99 72
f 88 89 117
f 55 81 80
f 89 93 92
f 52 53 35
f 47 74 71
f 11 28 29
f 33 30 34
f 36 50 53
f 70 71 73
f 36 53 38
f 74 77 73
f 119 115 118
f 78 77 74
f 70 73 97
f 3 13 14
f 96 95 98
f 15 14 12
f 12 11 29
f 58 83 59
f 84 85 89
f 79 103 107
f 43 63 62
f 69 95 96
f 48 75 51
f 82 107 110
f 83 112 113
f 92 93 122
f 75 104 103
f 72 99 100
f 118 85 114
f 12 11 15
f 15 31 34
f 89 118 114
f 53 50 33
f 94 98 97
f 44 66 43
f 53 33 36
f 98 97 102
f 35 36 32
f 22 40 37
f 3 6 13
f 30 47 48
f 43 66 63
f 119 118 121
f 37 55 52
f 31 48 51
f 103 104 99
f 60 85 86
f 104 103 108
f 18 15 34
f 15 17 18
f 37 40 55
f 25 43 27
f 92 122 121
f 2 1 11
f 7 8 17
f 78 74 75
f 60 86 61
f 88 84 89
f 12 29 31
f 8 15 18
f 100 99 104
f 19 35 16
f 92 121 118
f 105 102 101
f 15 11 14
f 31 29 30
f 89 119 90
f 52 55 77
f 28 30 29
f 40 58 55
f 7 5 8
f 14 15 18
f 108 103 107
f 87 117 116
f 45 68 46
f 15 14 17
f 78 75 79
f 27 43 42
f 36 34 33
f 65 60 61
f 64 60 65
f 64 89 85
f 61 86 90
f 38 37 36
f 48 69 72
f 26 27 42
f 14 16 30
f 67 92 91
f 13 16 17
f 118 115 114
f 6 16 13
f 25 26 24
f 86 115 119
f 32 36 33
f 34 51 50
f 56 54 57
f 48 47 45
f 5 15 8
f 7 6 4
f 81 113 84
f 24 40 22
f 42 43 62
f 30 33 50
f 25 38 41
f 36 33 50
f 25 23 38
f 7 17 6
f 44 63 66
f 12 14 11
f 16 35 32
f 106 107 103
f 105 77 80
f 15 12 31
f 59 56 55
f 66 67 91
f 48 72 75
f 37 52 35
f 43 59 63
f 57 82 56
f 110 114 115
f 103 99 102
f 4 6 3
f 62 58 40
f 71 70 98

