305  3  0  0
   0    -0.33104672000000007  -0.30813498000000006  0.23638112
   1    -0.33142486000000015  -0.30659427000000006  0.25514747999999998
   2    -0.32920066000000009  -0.18027500999999999  0.19983402
   3    -0.33538862000000014  -0.10145765999999999  0.068536750000000021
   4    -0.34244290000000005  -0.099627029999999991  0.13836194000000002
   5    -0.33278040000000009  -0.12673564000000001  0.17777076999999999
   6    -0.33744803000000007  -0.08462188000000001  0.06900010999999999
   7    -0.37115369000000004  -0.054228250000000006  0.1401647
   8    -0.34189816000000006  -0.048225120000000003  0.21332743000000004
   9    -0.33263298000000008  -0.060533110000000008  0.24381856000000002
  10    -0.35684524000000001  0.031801929999999999  0.11683992999999999
  11    -0.38240503000000003  0.087332150000000011  0.096837319999999991
  12    -0.27784333  -0.34935171000000004  0.21454497000000003
  13    -0.30718147000000007  -0.34022207000000004  0.26695843000000002
  14    -0.27791186000000007  -0.29117407000000006  0.20841086000000003
  15    -0.28599701  -0.29398754000000005  0.28847782000000005
  16    -0.28361716000000003  -0.29038518000000008  0.32237423000000009
  17    -0.28421301999999998  -0.20632117  0.13689245000000003
  18    -0.29859618000000004  -0.22648628000000004  0.19550969000000001
  19    -0.27781918000000005  -0.20868441000000001  0.27631253000000006
  20    -0.26694827000000004  -0.24369738000000005  0.31992808000000011
  21    -0.29661681000000006  -0.10701982  0.071731850000000014
  22    -0.29878053000000004  -0.12895205000000001  0.10351830999999999
  23    -0.32042195000000007  -0.11602572000000003  0.21505001000000001
  24    -0.28437631000000008  -0.12794792000000002  0.26040580000000002
  25    -0.28152295000000005  -0.043912290000000007  0.055662910000000003
  26    -0.29240137000000005  -0.043778940000000002  0.12308625000000002
  27    -0.29890541000000004  -0.042773600000000009  0.21288639000000004
  28    -0.29008792000000005  -0.072528170000000017  0.24558702000000002
  29    -0.26983583999999999  0.00027180000000000005  0.040372230000000002
  30    -0.26399824999999999  -0.00284257  0.13264463000000001
  31    -0.28005203000000001  0.028160410000000004  0.2030015
  32    -0.18043004000000001  -0.34490730000000003  0.22945357
  33    -0.19775130000000002  -0.37089346000000006  0.28514359
  34    -0.17533187  -0.35679482000000001  0.33163567000000005
  35    -0.23213591  -0.26408648000000007  0.15419705
  36    -0.21146078000000004  -0.29471104999999997  0.20246758000000004
  37    -0.18965628000000001  -0.28290619000000006  0.28741606000000008
  38    -0.17952837000000002  -0.31492182000000007  0.32731649000000013
  39    -0.21250855000000002  -0.19898511000000002  0.13647916000000002
  40    -0.20358758000000002  -0.21101653000000004  0.19241068000000003
  41    -0.20663147000000001  -0.20794667000000003  0.27436057000000008
  42    -0.21912102  -0.098178120000000008  0.073842770000000016
  43    -0.21217470999999999  -0.14108075  0.10712035000000002
  44    -0.22334838000000004  -0.15029175  0.20713758000000002
  45    -0.21341381000000004  -0.13143898000000004  0.26171268000000003
  46    -0.20551372000000001  -0.03585199  0.056643320000000011
  47    -0.21212369  -0.022952070000000001  0.1033443
  48    -0.20721376000000002  -0.027060070000000002  0.23008345000000002
  49    -0.21054913000000006  -0.064321400000000001  0.24621480000000004
  50    -0.22760856999999998  -0.00048712000000000001  0.042465349999999999
  51    -0.20987524000000002  0.0086609899999999986  0.13007580999999999
  52    -0.20846707000000003  0.027647839999999996  0.20274512000000003
  53    -0.1850744  0.12349552000000003  0.14164737000000002
  54    -0.18673519000000002  0.12926125000000002  0.17754213000000005
  55    -0.21074681000000003  0.19030179999999999  0.13375881000000001
  56    -0.19048120000000002  0.19521573000000003  0.19016124000000001
  57    -0.17178488000000003  0.26832786000000008  0.077474870000000015
  58    -0.21638048000000004  0.27177625  0.12980054999999999
  59    -0.19582015999999999  0.27165056000000004  0.19481909000000003
  60    -0.20202490000000001  0.3503220600000001  0.14071332000000003
  61    -0.18443976000000001  0.34894989000000004  0.17793742000000004
  62    -0.17691743000000007  0.39896705000000005  0.15081969000000001
  63    -0.17530840000000003  0.52054461000000007  0.20060184
  64    -0.17034374000000002  0.58100797999999987  0.21446423000000006
  65    -0.13953779000000002  -0.35839369000000004  0.22346717000000002
  66    -0.15492234000000002  -0.37132195000000007  0.27039805
  67    -0.15623396000000001  -0.34801494000000005  0.33871342000000004
  68    -0.14299576000000003  -0.28562677000000009  0.19837193
  69    -0.14152816000000001  -0.28390991000000004  0.28613638000000002
  70    -0.14660155999999999  -0.29910266000000008  0.33729303999999999
  71    -0.14101623000000005  -0.19630355999999999  0.14042933000000005
  72    -0.14225119000000003  -0.21520873000000004  0.1878987
  73    -0.15018100999999998  -0.21028986000000002  0.29078650000000006
  74    -0.13849013000000004  -0.13092681  0.12034246
  75    -0.13577201  -0.13748512000000002  0.20498197000000001
  76    -0.15136985999999999  -0.13190923000000004  0.26911489000000005
  77    -0.15992213000000002  -0.060430539999999998  0.070371630000000004
  78    -0.13409161  -0.051849210000000007  0.10069093000000001
  79    -0.13496557000000001  -0.038418140000000003  0.21924221000000005
  80    -0.14787058  -0.069259979999999985  0.24779763000000005
  81    -0.12183166000000001  0.026247719999999999  0.14010446000000001
  82    -0.13552765999999999  0.018034400000000003  0.18285253999999998
  83    -0.096810079999999993  0.14755027000000001  0.075411760000000008
  84    -0.13771200000000003  0.10200906  0.12455007000000001
  85    -0.12634256999999999  0.10975388  0.19839065
  86    -0.12049702000000001  0.1916069  0.074844020000000011
  87    -0.15399643000000005  0.17278508000000004  0.084077470000000001
  88    -0.12735368999999999  0.19250200000000001  0.22608930000000002
  89    -0.13547380000000001  0.27065119999999998  0.074787650000000011
  90    -0.094553089999999992  0.27142332000000002  0.083085480000000003
  91    -0.13276451  0.26719697000000003  0.22674057
  92    -0.11601588  0.32582862000000012  0.077375950000000013
  93    -0.13439522000000001  0.36032602000000008  0.093080599999999999
  94    -0.13070603000000003  0.35351623000000004  0.21845262000000001
  95    -0.12458627000000003  0.42558393000000005  0.14245526000000003
  96    -0.11622832000000001  0.43272574000000003  0.17299512000000003
  97    -0.10916362000000002  0.49349269000000007  0.15392965
  98    -0.14175654000000001  0.50694876  0.19212294999999999
  99    -0.12750644000000003  0.56949460000000007  0.19888232
 100    -0.01301391  -0.25186829000000005  0.20592717000000002
 101    -0.038788320000000001  -0.18628437  0.14193233000000005
 102    -0.050218220000000008  -0.21302902000000001  0.20002354
 103    -0.031137659999999998  -0.19795564000000002  0.26165054999999998
 104    -0.047718240000000002  -0.12937619  0.12301797
 105    -0.082273530000000011  -0.15920027  0.23747865000000001
 106    -0.044332980000000001  -0.12875990000000001  0.25930270000000005
 107    -0.050991510000000004  -0.04035594  0.13938122
 108    -0.040664169999999999  -0.046180810000000003  0.18977290999999999
 109    -0.066156359999999997  -0.082377879999999987  0.24378882000000002
 110    -0.05634509  0.029716650000000001  0.13925638000000004
 111    -0.043722020000000007  0.031905899999999994  0.18263284999999999
 112    -0.013802000000000002  0.06922600000000001  0.24092600000000003
 113    -0.044302630000000003  0.13096043000000004  0.076531470000000018
 114    -0.055393420000000006  0.092247889999999985  0.088595309999999997
 115    -0.062560210000000005  0.10656266000000002  0.23338037
 116    -0.028265070000000003  0.11359473000000002  0.24278120000000003
 117    -0.06901738999999997  0.17356248000000005  0.07599038000000001
 118    -0.038970089999999999  0.19795852  0.10952811
 119    -0.046477299999999999  0.18920503000000002  0.20659434000000004
 120    -0.085599520000000012  0.31052180000000007  0.079166030000000012
 121    -0.051478250000000003  0.27423549999999997  0.11505453
 122    -0.04802207  0.27596425000000002  0.19470256
 123    -0.028666670000000002  0.30433145  0.28279932999999996
 124    -0.052331040000000009  0.34275996000000003  0.078011960000000005
 125    -0.043419010000000008  0.36287300000000006  0.083479879999999992
 126    -0.049122400000000004  0.35125727000000001  0.23168651999999998
 127    -0.021223239999999997  0.31707955000000004  0.29041664000000006
 128    -0.051338110000000013  0.43110298000000008  0.13236918000000003
 129    -0.046180569999999997  0.43893409000000005  0.18971763000000003
 130    -0.061973229999999997  0.49360042000000004  0.15234966
 131    -0.055293469999999997  0.51224506000000003  0.18774640000000004
 132    -0.079527009999999995  0.5670284000000001  0.19107426999999999
 133    0.054062350000000009  -0.25415310999999996  0.15167282999999998
 134    0.030505640000000001  -0.27414039000000001  0.20038414000000002
 135    0.03760898  -0.26710919  0.26494255
 136    0.028844179999999997  -0.20760074000000001  0.14002234000000002
 137    -0.0019306799999999999  -0.24091266000000003  0.16285113000000001
 138    0.032712940000000003  -0.20736081000000001  0.29088467000000012
 139    0.025001360000000004  -0.13286226000000001  0.13820098000000003
 140    0.046129810000000007  -0.099502679999999996  0.19897220000000002
 141    0.031678440000000002  -0.13224163000000003  0.27163659000000001
 142    0.032396320000000006  -0.045023650000000005  0.14996386000000003
 143    0.035708229999999994  -0.048898920000000005  0.18045153
 144    0.0303317  0.027406900000000001  0.11522849
 145    0.019040239999999996  0.0082018999999999998  0.19512789
 146    0.043273960000000007  0.051147700000000004  0.25202671000000004
 147    0.00903173  0.11247254000000001  0.077877290000000002
 148    0.04255732000000001  0.11479073000000002  0.08780948999999999
 149    0.036420099999999997  0.14305229000000003  0.22733682
 150    0.033763420000000002  0.10148662000000001  0.25038872000000006
 151    0.028094960000000002  0.17428775000000002  0.12607496999999998
 152    0.027102379999999999  0.16631010000000002  0.19107786999999998
 153    0.059386290000000001  0.30394053000000004  0.07644229000000001
 154    0.033527710000000002  0.26866404999999999  0.11257419
 155    0.035778520000000001  0.27081658000000008  0.20201011000000002
 156    0.024607500000000001  0.30105460000000006  0.29589852000000005
 157    0.052668320000000012  0.30076594000000001  0.33994744000000005
 158    0.03202924  0.32905371000000005  0.078201440000000025
 159    0.037880089999999998  0.36274192999999999  0.093682979999999999
 160    0.033717410000000003  0.35455415000000001  0.22289326000000001
 161    0.028964200000000002  0.32449708000000005  0.30353682000000004
 162    0.047283579999999999  0.32954158000000006  0.34899187000000004
 163    0.026351590000000008  0.40771886000000007  0.13533891000000001
 164    0.034225650000000003  0.43051537000000006  0.19602546000000001
 165    0.043374650000000008  0.46052345  0.26184449000000004
 166    0.028370020000000003  0.50336298999999984  0.20316480000000001
 167    0.04229434  0.50603713999999989  0.27218763000000001
 168    0.1204703  -0.2612777  0.14204956000000002
 169    0.11420884000000001  -0.30014961000000001  0.19776429000000004
 170    0.11345347  -0.28565098000000005  0.27830552000000003
 171    0.13948153000000002  -0.19066961999999998  0.074936410000000009
 172    0.10472590000000002  -0.20999735000000005  0.11613262000000002
 173    0.10667639000000001  -0.21961663000000003  0.31352287000000012
 174    0.13225449000000003  -0.19413248000000002  0.32650304000000002
 175    0.14555642000000002  -0.16107452999999999  0.076749510000000007
 176    0.12121795  -0.13591136000000004  0.12701645000000003
 177    0.091102730000000007  -0.10384152000000001  0.18757198999999999
 178    0.094228980000000004  -0.11952109  0.29196254000000005
 179    0.12255031  -0.12770734000000003  0.33779845000000003
 180    0.11823573000000001  -0.040074909999999998  0.12321536000000001
 181    0.089151670000000002  -0.057856850000000008  0.19439384000000001
 182    0.11824372000000001  -0.048138250000000007  0.27638018000000009
 183    0.13987701  -0.073421890000000004  0.33233802000000007
 184    0.13336125000000001  0.0065946599999999996  0.07432161000000001
 185    0.11195716999999999  0.027634799999999998  0.08869740999999999
 186    0.11603706  0.037952989999999999  0.27724217000000001
 187    0.11160252000000001  0.11546620000000002  0.11409477000000003
 188    0.11529801000000001  0.13303107  0.20608274000000001
 189    0.11145318999999999  0.096072040000000011  0.25570831999999999
 190    0.11417013000000001  0.20998804000000004  0.12257863000000001
 191    0.11525622000000002  0.20085141000000001  0.18422734000000002
 192    0.15066856999999997  0.23057351999999998  0.28081820000000007
 193    0.11630346  0.28077402000000001  0.076606340000000023
 194    0.099463329999999989  0.25011257000000003  0.088260900000000003
 195    0.11638132999999999  0.26518826000000006  0.22477316
 196    0.13095612000000001  0.2734316  0.28882558000000008
 197    0.11746782  0.29322203000000002  0.35861902000000001
 198    0.14048868000000003  0.31769137000000003  0.075349070000000004
 199    0.11522653000000002  0.34837766000000009  0.11781251
 200    0.11366220000000002  0.35800828000000007  0.19731086
 201    0.10226700000000001  0.3204082900000001  0.31593381000000004
 202    0.11017802  0.33921847000000011  0.35855180000000003
 203    0.084679770000000015  0.43296432000000007  0.21575230000000004
 204    0.11788358  0.44287857000000008  0.26797164000000001
 205    0.13048033000000003  0.44884958000000003  0.33684718000000008
 206    0.10656467000000003  0.50268827999999999  0.22834913000000004
 207    0.11278806  0.52304069000000009  0.27903260000000002
 208    0.12297117000000002  0.49711603000000004  0.33577100000000004
 209    0.21500534000000004  -0.26762752000000001  0.12505020999999999
 210    0.19671465000000002  -0.29351685000000005  0.19616009000000001
 211    0.19056749000000003  -0.28442458000000009  0.27881584000000004
 212    0.18008018000000001  -0.1855087  0.074208760000000012
 213    0.20648012000000002  -0.21954677000000003  0.10819325000000003
 214    0.20021217000000002  -0.23680709000000003  0.31604063000000004
 215    0.19811687  -0.20244595000000004  0.34551520000000002
 216    0.21269954000000002  -0.18589617  0.42902875000000007
 217    0.20306644000000004  -0.13244151000000001  0.072060780000000019
 218    0.17445542000000003  -0.11084160999999999  0.095951149999999999
 219    0.18473030000000001  -0.12051638000000001  0.36912842000000007
 220    0.20672190000000001  -0.14027165999999999  0.41389710000000002
 221    0.21625375000000002  -0.035081599999999998  0.063762570000000018
 222    0.19121300000000002  -0.04876465  0.095418619999999996
 223    0.16658331000000001  -0.024376070000000003  0.30289978000000006
 224    0.19719488000000002  -0.053152180000000014  0.35519306
 225    0.19658404000000002  0.0048140299999999995  0.068000409999999997
 226    0.19226313000000003  0.045538670000000003  0.10182145000000001
 227    0.18628145000000002  0.038575449999999997  0.29449297000000008
 228    0.21201954000000003  0.037711830000000002  0.33406763000000006
 229    0.18377584999999999  0.090950959999999983  0.13284482
 230    0.19409654000000001  0.10182979  0.19953221000000002
 231    0.18977655999999998  0.083273260000000016  0.26552249000000006
 232    0.22010870999999999  0.073836510000000008  0.32320726000000005
 233    0.20218225000000001  0.22392355  0.058673110000000014
 234    0.19269576999999999  0.20130980000000001  0.11971326
 235    0.19325484000000001  0.19836387  0.20643098000000004
 236    0.19569961999999999  0.21134672000000002  0.27206342999999999
 237    0.20163848000000004  0.26450841000000003  0.055168920000000003
 238    0.20718189000000001  0.25335434000000001  0.084378720000000004
 239    0.15482544000000001  0.26989556000000003  0.23659269000000002
 240    0.18172663  0.28564999000000002  0.28937077000000011
 241    0.19577320000000001  0.28210398000000003  0.35071038000000004
 242    0.20929317000000003  0.32978712000000004  0.065307499999999991
 243    0.19426445000000003  0.35696333000000002  0.10972820000000001
 244    0.17955815000000003  0.35866080000000006  0.20328325000000003
 245    0.18096314000000002  0.33442530000000009  0.29811699000000008
 246    0.18952690999999999  0.33274712000000001  0.33883845000000007
 247    0.22105086999999998  0.40020983999999998  0.14557119000000002
 248    0.21697647000000003  0.42891897000000012  0.21197580000000002
 249    0.17549857000000002  0.42394109000000002  0.26358922000000001
 250    0.19223551  0.42824718000000001  0.35960974000000001
 251    0.22336499000000001  0.47699609000000004  0.22742299000000002
 252    0.19384405000000002  0.50154531000000002  0.26244363999999998
 253    0.19527808000000002  0.4999119600000001  0.34522364999999999
 254    0.25775606000000001  -0.28162331000000002  0.064446500000000004
 255    0.25706276000000006  -0.29137365000000004  0.1204394
 256    0.25540182  -0.26615619000000001  0.19736375
 257    0.25343570999999998  -0.26429742999999994  0.26510139999999999
 258    0.24651124000000005  -0.20925448000000005  0.072437000000000001
 259    0.26109931999999997  -0.20478295000000002  0.11861868999999998
 260    0.28645897000000009  -0.21054797000000003  0.18940244000000003
 261    0.27756554999999999  -0.20688117  0.28281315000000001
 262    0.26786646000000008  -0.19766058  0.35488056000000012
 263    0.25508071000000004  -0.19111313000000002  0.41929922999999997
 264    0.26949434999999999  -0.12286295000000001  0.064754790000000007
 265    0.28097490000000008  -0.13015493  0.11876049
 266    0.28782276000000012  -0.12050632000000001  0.20434466000000001
 267    0.28419350999999998  -0.12174951000000001  0.28175332999999997
 268    0.26954559  -0.11858497999999999  0.36222401000000004
 269    0.26717213000000001  -0.11923778  0.41144015
 270    0.27424358999999998  -0.046212350000000006  0.053337150000000014
 271    0.29023558999999999  -0.046226749999999997  0.11689490000000001
 272    0.28803019000000002  -0.051343740000000006  0.20028303000000003
 273    0.28509299999999999  -0.049048880000000003  0.28078197000000005
 274    0.26218501  -0.049818000000000008  0.3519149700000001
 275    0.27127999000000003  -0.085617909999999992  0.40616657000000006
 276    0.25441462000000004  0.00140784  0.061099840000000002
 277    0.25689070000000003  0.020318610000000004  0.12282270000000002
 278    0.27867268000000006  0.035207399999999993  0.19606367
 279    0.27495729000000002  0.032629220000000007  0.27999586000000004
 280    0.27241789000000005  0.032446279999999994  0.35379178
 281    0.23934010000000003  0.076421620000000023  0.20654310000000003
 282    0.26705452000000002  0.13315038000000001  0.31084437000000009
 283    0.2663689600000001  0.11944917999999999  0.35084182000000003
 284    0.25489191999999999  0.21170258000000003  0.1356348
 285    0.26803549999999998  0.21307066  0.1970036
 286    0.25567623  0.18710643000000002  0.28459830000000003
 287    0.26532067000000009  0.18375961999999998  0.35080629000000008
 288    0.25774333999999993  0.28042409000000007  0.021947620000000001
 289    0.26624566  0.27782699000000011  0.11860975999999999
 290    0.29152766000000008  0.28076855000000001  0.21360499000000002
 291    0.27615782999999999  0.26981063000000005  0.27789867000000007
 292    0.26697906000000005  0.27751216000000006  0.34796338000000004
 293    0.2521776  0.32534916000000008  0.044958339999999999
 294    0.26336269000000007  0.35550557000000005  0.11563527000000003
 295    0.29190535000000001  0.34393808000000003  0.20274280000000003
 296    0.28446834000000004  0.34253968000000001  0.27324402999999997
 297    0.27188723000000004  0.35439270000000006  0.34023533999999994
 298    0.27394645000000001  0.41743921  0.13564097
 299    0.27675537  0.44190574999999999  0.18940612000000001
 300    0.29055784000000001  0.43491923000000005  0.28187259000000009
 301    0.26756612000000002  0.42636243000000007  0.34987974000000005
 302    0.26967245000000001  0.48260045000000001  0.21605236000000003
 303    0.25176938999999998  0.48554650000000005  0.27663884
 304    0.24623482000000002  0.48373856000000004  0.33503373000000003
# Generated by pq1.2a0.05 
